<?xml version="1.0" encoding="UTF-8"?>
<svg width="137px" height="77px" viewBox="0 0 137 77" version="1.1" xmlns="http://www.w3.org/2000/svg" xmlns:xlink="http://www.w3.org/1999/xlink">
    <!-- Generator: Sketch 41 (35326) - http://www.bohemiancoding.com/sketch -->
    <title>001-group</title>
    <desc>Created with Sketch.</desc>
    <defs></defs>
    <g id="Page-1" stroke="none" stroke-width="1" fill="none" fill-rule="evenodd">
        <g id="about-us" transform="translate(-4.000000, -4.000000)">
            <g id="001-group" transform="translate(4.000000, 4.000000)">
                <g id="Group" transform="translate(0.000000, -0.000000)">
                    <path d="M94.8902195,28.4308482 L94.8902195,38.9339641 C94.8902195,40.9120045 95.6702918,42.7507463 97.0075585,44.1437325 L97.0075585,47.7097771 C97.0075585,49.242062 98.2333864,50.4678898 99.7656712,50.4678898 C101.297956,50.4678898 102.523784,49.242062 102.523784,47.7097771 L102.523784,42.8621852 C102.523784,41.9428143 102.050169,41.0791629 101.297956,40.5776878 C100.740762,40.2155114 100.406445,39.6025975 100.406445,38.9339641 L100.406445,28.4308482 C100.406445,24.7533647 103.415295,21.7445145 107.092779,21.7445145 L109.349416,21.7445145 C113.0269,21.7445145 116.03575,24.7533647 116.03575,28.4308482 L116.03575,38.9339641 C116.03575,39.6025975 115.701433,40.2155114 115.144239,40.5776878 C114.364167,41.0791629 113.918411,41.9428143 113.918411,42.8621852 L113.918411,52.975265 C113.918411,54.2010928 114.642764,55.3433415 115.729293,55.8726762 C117.0387,56.5134499 123.836473,59.9401959 130.13277,65.0942448 C130.662105,65.5400004 130.968562,66.1807741 130.968562,66.9051269 L130.968562,71.334823 L111.633914,71.334823 C110.101629,71.334823 108.875801,72.5606508 108.875801,74.0929357 C108.875801,75.6252205 110.101629,76.8510483 111.633914,76.8510483 L133.726675,76.8510483 C135.258959,76.8510483 136.484787,75.6252205 136.484787,74.0929357 L136.484787,66.9051269 C136.484787,64.5370504 135.453978,62.3361322 133.615236,60.8317071 C128.071151,56.2905721 122.137029,52.975265 119.434636,51.554419 L119.434636,44.1158728 C120.771903,42.7228866 121.551975,40.8841448 121.551975,38.9061044 L121.551975,28.4029885 C121.551975,21.6609353 116.06361,16.2004294 109.349416,16.2004294 L107.092779,16.2004294 C100.378585,16.2282892 94.8902195,21.688795 94.8902195,28.4308482 Z" id="Shape" fill="#484848"></path>
                    <path d="M2.75811266,76.8510483 L25.1851904,76.8510483 C26.7174752,76.8510483 27.9433031,75.6252205 27.9433031,74.0929357 C27.9433031,72.5606508 26.7174752,71.334823 25.1851904,71.334823 L5.51622533,71.334823 L5.51622533,66.9051269 C5.51622533,66.2086338 5.82268229,65.5400004 6.35201704,65.0942448 C12.6204549,59.9401959 19.4460873,56.4855902 20.7554943,55.8726762 C21.8698832,55.3433415 22.5663763,54.2010928 22.5663763,52.975265 L22.5663763,42.8621852 C22.5663763,41.9428143 22.092761,41.0791629 21.3405485,40.5776878 C20.783354,40.2155114 20.4490373,39.6025975 20.4490373,38.9339641 L20.4490373,28.4308482 C20.4490373,24.7533647 23.4578875,21.7445145 27.1353711,21.7445145 L29.3920087,21.7445145 C33.0694922,21.7445145 36.0783424,24.7533647 36.0783424,28.4308482 L36.0783424,38.9339641 C36.0783424,39.6025975 35.7440257,40.2155114 35.1868313,40.5776878 C34.406759,41.0791629 33.9610034,41.9428143 33.9610034,42.8621852 L33.9610034,47.9326549 C33.9610034,49.4649397 35.1868313,50.6907676 36.7191161,50.6907676 C38.2514009,50.6907676 39.4772287,49.4649397 39.4772287,47.9326549 L39.4772287,44.1437325 C40.8144955,42.7507463 41.5945678,40.9120045 41.5945678,38.9339641 L41.5945678,28.4308482 C41.5945678,21.688795 36.1062021,16.2282892 29.3920087,16.2282892 L27.1353711,16.2282892 C20.3933179,16.2282892 14.932812,21.7166548 14.932812,28.4308482 L14.932812,38.9339641 C14.932812,40.9120045 15.7128843,42.7507463 17.050151,44.1437325 L17.050151,51.5822788 C14.3198981,53.0031247 8.41363661,56.2905721 2.86955156,60.8595668 C1.05866951,62.3639919 0,64.5649101 0,66.9329866 L0,74.0929357 C9.89776221e-16,75.6252205 1.22582785,76.8510483 2.75811266,76.8510483 Z" id="Shape" fill="#484848"></path>
                    <path d="M84.8049995,28.5701468 L84.8049995,15.0024613 C84.8049995,6.72812332 78.090806,0.0139298619 69.816468,0.0139298619 L66.891197,0.0139298619 C58.616859,0.0139298619 51.9026656,6.72812332 51.9026656,15.0024613 L51.9026656,28.5701468 C51.9026656,31.0218025 52.9056156,33.3062999 54.6329185,34.9778833 L54.6329185,45.4252798 C51.3733308,47.0968632 43.4054498,51.4429801 35.9669035,57.5721194 C33.7938451,59.3551417 32.5680172,61.9739558 32.5680172,64.7877879 L32.5680172,74.0929357 C32.5680172,75.6252205 33.7938451,76.8510483 35.3261299,76.8510483 L101.353675,76.8510483 C102.88596,76.8510483 104.111788,75.6252205 104.111788,74.0929357 L104.111788,64.7877879 C104.111788,61.9739558 102.88596,59.3551417 100.712902,57.5721194 C93.2743555,51.4708399 85.3064745,47.0968632 82.0468868,45.4252798 L82.0468868,34.9778833 C83.8020494,33.3341596 84.8049995,31.0218025 84.8049995,28.5701468 Z M97.2304363,61.8346572 C98.1219475,62.55901 98.6234225,63.6455392 98.6234225,64.7877879 L98.6234225,71.334823 L38.1121023,71.334823 L38.1121023,64.7877879 C38.1121023,63.6455392 38.6135773,62.55901 39.5050885,61.8346572 C47.6958473,55.092604 56.5830992,50.6071884 58.2825424,49.7713967 C59.424791,49.2142022 60.1770036,48.0162341 60.1770036,46.7625465 L60.1770036,33.6684763 C60.1770036,32.7491054 59.7033883,31.885454 58.9511757,31.383979 C58.0039451,30.7432053 57.4467506,29.7123955 57.4467506,28.5980066 L57.4467506,15.030321 C57.4467506,9.79269294 61.7092884,5.55801491 66.9190568,5.55801491 L69.8443278,5.55801491 C75.0819559,5.55801491 79.3166339,9.82055267 79.3166339,15.030321 L79.3166339,28.5980066 C79.3166339,29.7123955 78.7594394,30.771065 77.8122088,31.383979 C77.0321365,31.885454 76.5863809,32.7491054 76.5863809,33.6684763 L76.5863809,46.7625465 C76.5863809,48.0440938 77.3385935,49.2142022 78.4808422,49.7713967 C80.1524256,50.6071884 89.0396775,55.1204637 97.2304363,61.8346572 Z" id="Shape" fill="#FF2D55"></path>
                </g>
            </g>
        </g>
    </g>
</svg>