<?xml version="1.0" encoding="UTF-8"?>
<svg width="120px" height="120px" viewBox="0 0 120 120" version="1.1" xmlns="http://www.w3.org/2000/svg" xmlns:xlink="http://www.w3.org/1999/xlink">
    <!-- Generator: Sketch 41 (35326) - http://www.bohemiancoding.com/sketch -->
    <title>awards</title>
    <desc>Created with Sketch.</desc>
    <defs></defs>
    <g id="Page-1" stroke="none" stroke-width="1" fill="none" fill-rule="evenodd">
        <g id="awards">
            <g id="Group" transform="translate(6.000000, 6.000000)">
                <path d="M70.0511295,57.5003783 C69.8393612,57.7746182 69.6796879,57.9745275 69.5191676,58.1716837 C69.4797787,58.2197551 69.4410251,58.2686736 69.4014244,58.3165332 C69.2250215,58.5308427 69.0471361,58.7404933 68.8684037,58.9450614 C67.0474084,61.0231434 65.0872813,62.6455001 63.016823,63.7975195 C60.4648036,65.2172139 58.7295745,67.7387387 58.2522488,70.6035398 L50.1749836,70.6035398 C49.6974462,67.7385269 47.962217,65.2172139 45.4101976,63.7975195 C43.4119523,62.6859479 41.6072631,61.1999699 39.9768592,59.424293 L39.5829703,58.9749208 C37.9820022,57.1490548 36.4729415,54.9369235 35.0979302,52.400575 L34.6767231,51.6231737 C27.7525361,38.2442899 25.658148,18.9075178 25.026655,8.63612164 L83.4122247,8.63612164 C83.3853301,9.08295268 83.3558943,9.54439573 83.323282,10.0236273 C83.283046,10.6102254 83.2449277,11.1309636 83.20448,11.6521253 C83.0723366,13.3498715 82.9198635,15.0078052 82.7460017,16.6460445 L82.6407529,17.6366965 C81.4707332,28.1251551 78.9996093,41.4870974 73.7886276,51.5520195 L73.3284552,52.4003632 C72.3045556,54.288489 71.2063254,55.9966119 70.0511295,57.5003783 Z" id="Path-Copy" fill="#4F32C5"></path>
                <path d="M108.421633,20.6842536 C108.313631,11.4818636 103.604329,6.41361369 95.1609163,6.41361369 C91.8929084,6.41361369 88.7439143,7.1742853 86.685315,7.8089548 C86.8903067,4.04752686 86.8934832,1.7256996 86.8934832,1.61028589 L86.893695,0 L21.5333257,0 L21.5333257,1.61007412 C21.5333257,1.66513387 21.5388317,4.02359705 21.7461528,7.81086071 C19.6877652,7.17576768 16.5358064,6.41361369 13.264622,6.41361369 C4.82142122,6.41361369 0.111906765,11.4816518 0.00390494927,20.6842536 C-0.10240272,29.7373469 1.96233787,37.7959765 6.14031398,44.6367268 C10.2422653,51.3529573 15.485224,55.4000607 19.1613093,57.6119802 C25.0491024,61.1552868 30.9335072,61.899017 34.8334316,61.899017 C35.7948595,61.899017 36.7211339,61.8536986 37.5874779,61.7643324 C37.6448671,61.7584028 37.6980209,61.7516263 37.7541395,61.745485 C39.6397242,63.7761309 41.6724877,65.4027229 43.8445948,66.6114962 C45.4457747,67.5024053 46.559464,69.0561491 46.9410704,70.8419908 C44.782093,71.5139315 43.2101371,73.5310243 43.2101371,75.9081231 C43.2101371,78.3385874 44.8540942,80.3912572 47.0876141,81.0159736 L47.0876141,87.773499 L38.3750441,87.773499 L38.3750441,94.825594 L29.7772525,94.825594 L29.7772525,108.414128 L78.6493446,108.414128 L78.6493446,94.825594 L70.051553,94.825594 L70.051553,87.773499 L61.338983,87.773499 L61.338983,81.0159736 C63.5727147,80.3910455 65.2166717,78.3385874 65.2166717,75.9081231 C65.2166717,73.5308125 63.6447159,71.5139315 61.4857384,70.8419908 C61.8673449,69.0561491 62.9808224,67.5026171 64.582214,66.6114962 C66.7490269,65.4058995 68.7957672,63.7704131 70.6766929,61.7463321 C71.3431277,61.8202392 72.3424621,61.8988052 73.5918949,61.8988052 L73.592742,61.8988052 C77.4922428,61.8988052 83.3764358,61.1546515 89.2638054,57.6117684 C92.9396789,55.3996371 98.1828494,51.3527456 102.284801,44.636515 C106.463412,37.7959765 108.527941,29.7371352 108.421633,20.6842536 Z M83.6468639,3.22014825 C83.6324637,3.80907579 83.6095927,4.54941765 83.5744392,5.41597339 L24.8589345,5.41597339 C24.8225104,4.54962942 24.798157,3.80822872 24.7824862,3.22014825 L83.6468639,3.22014825 Z M85.8369713,18.0043262 C88.018608,17.2781728 90.8461379,16.5458781 93.3790981,16.5458781 C95.502922,16.5458781 97.0321007,17.0647104 97.9242804,18.0879746 C98.9496623,19.2641356 99.2802326,21.2399335 98.9062498,23.9611557 C97.3491178,35.2962639 92.4341881,44.1443656 85.0663466,48.8750569 C82.499927,50.5230375 79.7359276,51.2038725 77.4196063,51.4457118 C82.3192887,41.1472093 84.6906697,28.2259568 85.8369713,18.0043262 Z M24.2465007,29.2202088 C25.8303156,37.7152928 28.0170347,45.010286 30.7463041,50.9023145 C30.8307996,51.0852823 30.9167775,51.2654971 31.0023319,51.4457118 C28.6868577,51.2032372 25.9245524,50.522614 23.3591917,48.8754804 C15.9915619,44.1445774 11.0764205,35.2966874 9.51928843,23.9615793 C9.14551744,21.2401453 9.47587594,19.2641356 10.5014696,18.0883982 C11.3936493,17.0651339 12.9230398,16.5465134 15.0466519,16.5465134 C17.5817298,16.5465134 20.4118009,17.2798669 22.5942847,18.0064439 C22.9841501,21.492573 23.5171708,25.3084254 24.2465007,29.2202088 Z M34.8334316,58.6788687 C31.3417964,58.6788687 26.0761785,58.0149752 20.8219961,54.8530632 C15.4483763,51.6193618 2.97628433,41.8199971 3.2240532,20.7221601 C3.31172526,13.2609288 6.59603929,9.63397371 13.264622,9.63397371 C16.8310113,9.63397371 20.3533529,10.7091212 21.963427,11.2762366 C22.0436872,12.3564665 22.1336887,13.439873 22.2332198,14.5188323 C20.0445948,13.8759038 17.4658926,13.3257299 15.0466519,13.3257299 C11.9510234,13.3257299 9.60526635,14.2157919 8.07418179,15.9713508 C6.40989499,17.8800182 5.82266158,20.7155953 6.32878774,24.3993043 C7.19576702,30.7102103 9.0076563,36.2881865 11.7142665,40.9780065 C14.2980511,45.4552112 17.6306483,49.02393 21.6190918,51.5846318 C25.5147808,54.0862504 29.728334,54.717108 32.733961,54.777462 C32.7441259,54.7952505 32.7545025,54.812192 32.7646674,54.8297687 C32.9294231,55.1184089 33.095873,55.4021784 33.264017,55.6823478 C33.3163237,55.7698081 33.369054,55.8566331 33.4217843,55.9432463 C33.5820929,56.206686 33.7436721,56.4675845 33.9069454,56.7231888 C33.9683582,56.8193316 34.0306181,56.9131449 34.0924544,57.0084407 C34.2036328,57.1793376 34.3154464,57.3487523 34.4281071,57.516261 C34.536956,57.6782637 34.6462285,57.8385723 34.7561362,57.9971867 C34.8639262,58.1524128 34.971928,58.3067919 35.0807769,58.4590533 C35.1318131,58.5306309 35.1820022,58.6049616 35.2330383,58.6756922 C35.1034361,58.6778099 34.9702339,58.6788687 34.8334316,58.6788687 Z M75.4294081,98.0461658 L75.4294081,105.19398 L32.9978243,105.19398 L32.9978243,98.0461658 L38.3752558,98.0461658 L70.0517648,98.0461658 L75.4294081,98.0461658 Z M61.3394066,90.9940708 L66.8314048,90.9940708 L66.8314048,94.8258058 L41.5956159,94.8258058 L41.5956159,90.9940708 L47.0878258,90.9940708 L61.3394066,90.9940708 Z M50.3079741,87.7737107 L50.3079741,81.2127063 L58.1190466,81.2127063 L58.1190466,87.7737107 L50.3079741,87.7737107 L50.3079741,87.7737107 Z M61.9967353,75.9081231 C61.9967353,77.0573894 61.0615666,77.9923463 59.912512,77.9923463 L48.5147204,77.9923463 C47.365454,77.9923463 46.4304971,77.0573894 46.4304971,75.9081231 C46.4304971,74.7588567 47.365454,73.8238998 48.5147204,73.8238998 L59.912512,73.8238998 C61.0617784,73.8238998 61.9967353,74.7588567 61.9967353,75.9081231 Z M70.0511295,57.5003783 C69.8393612,57.7746182 69.6796879,57.9745275 69.5191676,58.1716837 C69.4797787,58.2197551 69.4410251,58.2686736 69.4014244,58.3165332 C69.2250215,58.5308427 69.0471361,58.7404933 68.8684037,58.9450614 C67.0474084,61.0231434 65.0872813,62.6455001 63.016823,63.7975195 C60.4648036,65.2172139 58.7295745,67.7387387 58.2522488,70.6035398 L50.1749836,70.6035398 C49.6974462,67.7385269 47.962217,65.2172139 45.4101976,63.7975195 C43.4119523,62.6859479 41.6072631,61.1999699 39.9768592,59.424293 L39.5829703,58.9749208 C37.9820022,57.1490548 36.4729415,54.9369235 35.0979302,52.400575 L34.6767231,51.6231737 C27.7525361,38.2442899 25.658148,18.9075178 25.026655,8.63612164 L83.4122247,8.63612164 C83.3853301,9.08295268 83.3558943,9.54439573 83.323282,10.0236273 C83.283046,10.6102254 83.2449277,11.1309636 83.20448,11.6521253 C83.0723366,13.3498715 82.9198635,15.0078052 82.7460017,16.6460445 L82.6407529,17.6366965 C81.4707332,28.1251551 78.9996093,41.4870974 73.7886276,51.5520195 L73.3284552,52.4003632 C72.3045556,54.288489 71.2063254,55.9966119 70.0511295,57.5003783 Z M87.603754,54.8530632 C82.349148,58.015187 77.0845889,58.6788687 73.5931655,58.6788687 L73.5923184,58.6788687 C73.4553044,58.6788687 73.3221021,58.6778099 73.1922882,58.6756922 C73.1944059,58.6727275 73.1965235,58.6695509 73.1986412,58.6665862 C73.4076565,58.3781578 73.6134952,58.0854941 73.8161575,57.7888067 C73.8409344,57.7525943 73.8652877,57.7155349 73.8900646,57.6793225 C74.0613851,57.4268947 74.2301644,57.1710787 74.3970378,56.9127214 C74.4400268,56.8464379 74.4830157,56.7799427 74.5255812,56.7132357 C74.7102431,56.4233249 74.8929991,56.1315083 75.0721551,55.8346092 C75.1003202,55.7882319 75.1276383,55.740584 75.1555918,55.6937833 C75.3023472,55.4485556 75.4474084,55.2009985 75.5905638,54.951112 C75.6240232,54.8926639 75.6585414,54.8367571 75.6922125,54.7778855 C78.6978395,54.7175316 82.9113927,54.0866739 86.8070817,51.5850554 C90.7955253,49.02393 94.1281224,45.4552112 96.7119071,40.97843 C99.4183055,36.28861 101.230195,30.7106339 102.097386,24.3997278 C102.603088,20.7158071 102.016067,17.88023 100.351992,15.9717744 C98.821119,14.2160037 96.4751501,13.3259417 93.3795216,13.3259417 C90.9604927,13.3259417 88.381367,13.8756921 86.1929538,14.5188323 C86.2943908,13.4186962 86.3814275,12.3634549 86.45597,11.3605204 C86.4580876,11.332567 86.4604171,11.3044018 86.4625348,11.2766601 C88.0730324,10.709333 91.5951622,9.63439725 95.1613398,9.63439725 C101.829923,9.63439725 105.114237,13.2613523 105.20212,20.7221601 C105.449042,41.8199971 92.9773737,51.6191501 87.603754,54.8530632 Z" id="Shape-Copy" fill="#FFFFFF"></path>
                <path d="M33.8228734,34.2842234 L30.6831971,35.0004236 C32.2274113,41.7695963 34.2889754,47.4521859 36.8102884,51.8902134 L39.6102884,50.2994102 C37.2444133,46.1349873 35.2972041,40.7467555 33.8228734,34.2842234 Z" id="Shape-Copy-2" fill="#FFFFFF"></path>
                <text id="May" font-family="CircularStd-Bold, Circular Std" font-size="12" font-weight="bold" letter-spacing="0.100000001" fill="#FFFFFF">
                    <tspan x="42.9882993" y="42.1977267">May</tspan>
                </text>
            </g>
        </g>
    </g>
</svg>