<?xml version="1.0" encoding="UTF-8"?>
<svg width="120px" height="120px" viewBox="0 0 120 120" version="1.1" xmlns="http://www.w3.org/2000/svg" xmlns:xlink="http://www.w3.org/1999/xlink">
    <!-- Generator: Sketch 41 (35326) - http://www.bohemiancoding.com/sketch -->
    <title>awards</title>
    <desc>Created with Sketch.</desc>
    <defs></defs>
    <g id="Page-1" stroke="none" stroke-width="1" fill="none" fill-rule="evenodd">
        <g id="awards">
            <g id="Group-3" transform="translate(7.000000, 4.000000)">
                <path d="M82.761414,68.9257413 C82.8636542,69.3059158 82.9147742,70.0101817 82.1132313,70.455373 C79.760219,71.7621609 78.3551614,74.149915 78.3551614,76.841908 C78.3551614,79.5334047 79.760219,81.9211588 82.112735,83.2279467 C82.9142779,83.673138 82.8631578,84.3774039 82.761414,84.7575784 C82.6606628,85.1332862 82.3589055,85.7581422 81.4675302,85.7581422 L81.43527,85.7581422 C78.7546921,85.7095037 76.3336851,87.0783305 74.9876886,89.4095051 C73.6416921,91.7406798 73.6645225,94.5105937 75.0492312,96.8194343 C75.5207271,97.6055915 75.1241743,98.18975 74.8457436,98.4676844 C74.5673129,98.7456188 73.9836507,99.1426679 73.1974934,98.6711721 C70.8886528,97.285967 68.1187389,97.263633 65.7875643,98.6096295 C63.4563897,99.9551297 62.091037,102.365714 62.1357051,105.057707 C62.1505944,105.973898 61.5153158,106.281611 61.1351413,106.383355 C60.7549668,106.485595 60.0507009,106.536219 59.6060059,105.735172 C58.2987217,103.38216 55.9114639,101.977102 53.2194709,101.977102 C50.5274779,101.977102 48.14022,103.38216 46.8329358,105.735172 C46.3882408,106.536715 45.683975,106.486588 45.3038004,106.383355 C44.9236259,106.281611 44.2883473,105.973898 44.3032367,105.057211 C44.3479047,102.365714 42.982552,99.955626 40.6513774,98.6096295 C38.3197065,97.2631367 35.5502889,97.2864633 33.2419446,98.6711721 C32.4562837,99.1431642 31.8716288,98.7461151 31.5931981,98.4676844 C31.3147675,98.1892537 30.918711,97.6055915 31.3902068,96.8194343 C32.7744193,94.5105937 32.7972496,91.7406798 31.4512531,89.4095051 C30.1052566,87.0788268 27.6936795,85.7104963 25.0036718,85.7581422 C24.0765621,85.756157 23.7792715,85.137753 23.6775277,84.7575784 C23.5752876,84.3774039 23.5241675,83.673138 24.3257104,83.2279467 C26.6787227,81.9211588 28.0837803,79.5334047 28.0837803,76.841908 C28.0837803,74.149915 26.6787227,71.7626572 24.3257104,70.455373 C23.5241675,70.0101817 23.5752876,69.3064121 23.6775277,68.9257413 C23.7792715,68.5455667 24.0815252,67.9256738 25.0036718,67.9251775 C27.6847459,67.9693492 30.1052566,66.6044929 31.4512531,64.2738146 C32.7972496,61.9426399 32.7744193,59.172726 31.3897105,56.8633891 C30.9182146,56.0777282 31.3147675,55.4935697 31.5931981,55.215139 C31.8716288,54.9367083 32.4557873,54.5406518 33.2419446,55.0121476 C35.5502889,56.3963601 38.3202028,56.4186941 40.6518737,55.0731939 C42.9830483,53.7271974 44.3479047,51.3171093 44.3032367,48.6256126 C44.2883473,47.7089254 44.9236259,47.4012124 45.3038004,47.2994685 C45.6829823,47.1967321 46.3877445,47.1466046 46.8329358,47.9476512 C48.14022,50.3006635 50.5274779,51.7057211 53.2194709,51.7057211 C55.9114639,51.7057211 58.2987217,50.3006635 59.6060059,47.9476512 C60.0511972,47.1466046 60.7559594,47.1972284 61.1351413,47.2994685 C61.5153158,47.4012124 62.1505944,47.7089254 62.1357051,48.6256126 C62.091037,51.316613 63.4563897,53.7271974 65.787068,55.0731939 C68.1187389,56.4191904 70.8881565,56.3968564 73.1969971,55.0116513 C73.9826581,54.5401555 74.5673129,54.9367083 74.8452473,55.215139 C75.1231816,55.4935697 75.5197344,56.0772319 75.0487349,56.8633891 L75.0487349,56.8638854 C73.6645225,59.1722297 73.6416921,61.9421436 74.9876886,64.2733182 C76.3331888,66.6044929 78.7328544,67.9609119 81.43527,67.9246812 C82.3484829,67.9316295 82.6596702,68.5455667 82.761414,68.9257413 L82.761414,68.9257413 Z" id="Path" fill="#FF2D55"></path>
                <g id="Group" fill="#FFFFFF">
                    <path d="M104.645769,12.8003672 L77.935282,0.281408561 C77.2200973,-0.0536016306 76.4006872,-0.0913212966 75.6587016,0.177679479 C74.9157235,0.446680255 74.3102236,0.999074838 73.9752134,1.71425956 L53.3390819,45.7455176 C53.2963991,45.7489917 53.2561979,45.7504807 53.2204635,45.7504807 C53.1847291,45.7504807 53.1445278,45.7489917 53.1018451,45.7455176 L32.4657136,1.71425956 C32.1307034,0.999074838 31.5247072,0.446680255 30.7822253,0.177679479 C30.0397435,-0.0913212966 29.2208297,-0.0536016306 28.505645,0.281408561 L1.794662,12.8003672 C0.305727819,13.498181 -0.336002814,15.2715016 0.361811007,16.7604358 L21.8684727,62.6498837 C19.9656148,63.5293475 18.5084445,65.2098578 17.925775,67.3846944 C17.042837,70.6792094 18.453354,74.0054884 21.4346965,75.6616795 C22.0387075,75.997186 22.1290362,76.5451138 22.1290362,76.8414117 C22.1290362,77.1377096 22.0387075,77.6856374 21.4346965,78.0211439 C18.453354,79.677335 17.042837,83.0041103 17.925775,86.2986253 C18.8087129,89.5931404 21.7012157,91.7709548 25.102934,91.71239 C25.8032294,91.7218199 26.1461806,92.1302842 26.2940814,92.3868772 C26.4419822,92.6434702 26.6380252,93.1631082 26.2831625,93.7562003 C24.5291981,96.6814597 24.9709152,100.266813 27.3824923,102.678887 C29.793573,105.090464 33.3799192,105.532677 36.3056748,103.778713 C36.8982706,103.423354 37.4174124,103.6189 37.6745017,103.767297 C37.931591,103.915695 38.360404,104.267579 38.3489888,104.958445 C38.2924094,108.3686 40.4682385,111.253162 43.7627535,112.1361 C44.4173883,112.311794 45.0735119,112.396167 45.7172278,112.396167 C48.3129364,112.396167 50.712602,111.015925 52.0397387,108.626682 C52.3752452,108.022671 52.923173,107.932343 53.2194709,107.932343 C53.5157688,107.932343 54.0636965,108.022671 54.399203,108.626682 C56.0553942,111.608521 59.3811768,113.017549 62.6761882,112.135604 C65.9707032,111.252666 68.1465324,108.368104 68.0899529,104.957949 C68.0785377,104.267083 68.5078471,103.914702 68.7644401,103.766801 C69.0215294,103.6189 69.5406711,103.422857 70.1337632,103.778216 C73.0585262,105.531684 76.6448724,105.090464 79.0564494,102.67839 C81.4680265,100.266813 81.91024,96.6809634 80.1562755,93.755704 C79.8009165,93.1631082 79.9964632,92.6434702 80.1448603,92.3863809 C80.2932574,92.1297879 80.6471275,91.7148716 81.3360077,91.7118937 C84.7605563,91.7645027 87.6307251,89.592644 88.5131668,86.298129 C89.3956084,83.003614 87.9855877,79.677335 85.0042452,78.0206476 C84.4002342,77.6851411 84.3099056,77.1372133 84.3099056,76.8409154 C84.3099056,76.5441212 84.4002342,75.9966897 85.0042452,75.6611832 C87.9855877,74.0049921 89.3961047,70.6787131 88.5131668,67.3841981 C87.9309935,65.2103542 86.4733269,63.5268659 84.5714617,62.6469058 L106.077131,16.7599395 C106.776433,15.2715016 106.135199,13.498181 104.645769,12.8003672 L104.645769,12.8003672 Z M82.761414,68.9257413 C82.8636542,69.3059158 82.9147742,70.0101817 82.1132313,70.455373 C79.760219,71.7621609 78.3551614,74.149915 78.3551614,76.841908 C78.3551614,79.5334047 79.760219,81.9211588 82.112735,83.2279467 C82.9142779,83.673138 82.8631578,84.3774039 82.761414,84.7575784 C82.6606628,85.1332862 82.3589055,85.7581422 81.4675302,85.7581422 L81.43527,85.7581422 C78.7546921,85.7095037 76.3336851,87.0783305 74.9876886,89.4095051 C73.6416921,91.7406798 73.6645225,94.5105937 75.0492312,96.8194343 C75.5207271,97.6055915 75.1241743,98.18975 74.8457436,98.4676844 C74.5673129,98.7456188 73.9836507,99.1426679 73.1974934,98.6711721 C70.8886528,97.285967 68.1187389,97.263633 65.7875643,98.6096295 C63.4563897,99.9551297 62.091037,102.365714 62.1357051,105.057707 C62.1505944,105.973898 61.5153158,106.281611 61.1351413,106.383355 C60.7549668,106.485595 60.0507009,106.536219 59.6060059,105.735172 C58.2987217,103.38216 55.9114639,101.977102 53.2194709,101.977102 C50.5274779,101.977102 48.14022,103.38216 46.8329358,105.735172 C46.3882408,106.536715 45.683975,106.486588 45.3038004,106.383355 C44.9236259,106.281611 44.2883473,105.973898 44.3032367,105.057211 C44.3479047,102.365714 42.982552,99.955626 40.6513774,98.6096295 C38.3197065,97.2631367 35.5502889,97.2864633 33.2419446,98.6711721 C32.4562837,99.1431642 31.8716288,98.7461151 31.5931981,98.4676844 C31.3147675,98.1892537 30.918711,97.6055915 31.3902068,96.8194343 C32.7744193,94.5105937 32.7972496,91.7406798 31.4512531,89.4095051 C30.1052566,87.0788268 27.6936795,85.7104963 25.0036718,85.7581422 C24.0765621,85.756157 23.7792715,85.137753 23.6775277,84.7575784 C23.5752876,84.3774039 23.5241675,83.673138 24.3257104,83.2279467 C26.6787227,81.9211588 28.0837803,79.5334047 28.0837803,76.841908 C28.0837803,74.149915 26.6787227,71.7626572 24.3257104,70.455373 C23.5241675,70.0101817 23.5752876,69.3064121 23.6775277,68.9257413 C23.7792715,68.5455667 24.0815252,67.9256738 25.0036718,67.9251775 C27.6847459,67.9693492 30.1052566,66.6044929 31.4512531,64.2738146 C32.7972496,61.9426399 32.7744193,59.172726 31.3897105,56.8633891 C30.9182146,56.0777282 31.3147675,55.4935697 31.5931981,55.215139 C31.8716288,54.9367083 32.4557873,54.5406518 33.2419446,55.0121476 C35.5502889,56.3963601 38.3202028,56.4186941 40.6518737,55.0731939 C42.9830483,53.7271974 44.3479047,51.3171093 44.3032367,48.6256126 C44.2883473,47.7089254 44.9236259,47.4012124 45.3038004,47.2994685 C45.6829823,47.1967321 46.3877445,47.1466046 46.8329358,47.9476512 C48.14022,50.3006635 50.5274779,51.7057211 53.2194709,51.7057211 C55.9114639,51.7057211 58.2987217,50.3006635 59.6060059,47.9476512 C60.0511972,47.1466046 60.7559594,47.1972284 61.1351413,47.2994685 C61.5153158,47.4012124 62.1505944,47.7089254 62.1357051,48.6256126 C62.091037,51.316613 63.4563897,53.7271974 65.787068,55.0731939 C68.1187389,56.4191904 70.8881565,56.3968564 73.1969971,55.0116513 C73.9826581,54.5401555 74.5673129,54.9367083 74.8452473,55.215139 C75.1231816,55.4935697 75.5197344,56.0772319 75.0487349,56.8633891 L75.0487349,56.8638854 C73.6645225,59.1722297 73.6416921,61.9421436 74.9876886,64.2733182 C76.3331888,66.6044929 78.7328544,67.9609119 81.43527,67.9246812 C82.3484829,67.9316295 82.6596702,68.5455667 82.761414,68.9257413 L82.761414,68.9257413 Z M28.3364028,6.9384333 L44.4843903,41.3938593 C44.2441756,41.4340605 44.0034646,41.482699 43.7632499,41.5472195 C40.4687348,42.4301574 38.2929057,45.3147193 38.3494852,48.7248749 C38.3609003,49.4162366 37.931591,49.7681214 37.674998,49.9160222 C37.4179087,50.063923 36.8982706,50.2594697 36.3061711,49.9051034 C33.3799192,48.1506426 29.7945656,48.592856 27.3829886,51.0044331 C26.0459257,52.341496 25.3168442,54.0398736 25.2294934,55.7863934 L7.01833943,16.9291817 L28.3364028,6.9384333 L28.3364028,6.9384333 Z M81.2109372,55.7858971 C81.1235864,54.0398736 80.394505,52.341496 79.0574421,51.0039368 C76.6453687,48.5918634 73.0595189,48.1501463 70.1347558,49.9041107 C69.5426563,50.2594697 69.0230183,50.063923 68.7654327,49.9155259 C68.5083434,49.7671288 68.0795303,49.415244 68.0909455,48.7243786 C68.147525,45.3137267 65.9716958,42.4291648 62.6771808,41.5467232 C62.4364698,41.4822027 62.1962551,41.4335642 61.9560403,41.3933629 L78.1040279,6.93793699 L99.4220912,16.9291817 L81.2109372,55.7858971 L81.2109372,55.7858971 Z" id="Shape"></path>
                    <text id="50-copy" font-family="CircularStd-Bold, Circular Std" font-size="22" font-weight="bold" letter-spacing="0.183333337">
                        <tspan x="40.1116384" y="86.974625">50</tspan>
                    </text>
                </g>
            </g>
        </g>
    </g>
</svg>