<?xml version="1.0" encoding="UTF-8"?>
<svg width="120px" height="120px" viewBox="0 0 120 120" version="1.1" xmlns="http://www.w3.org/2000/svg" xmlns:xlink="http://www.w3.org/1999/xlink">
    <!-- Generator: Sketch 41 (35326) - http://www.bohemiancoding.com/sketch -->
    <title>awards</title>
    <desc>Created with Sketch.</desc>
    <defs></defs>
    <g id="Page-1" stroke="none" stroke-width="1" fill="none" fill-rule="evenodd">
        <g id="awards">
            <g id="Group-2" transform="translate(1.000000, 4.000000)">
                <circle id="Oval-4" fill="#FF2D55" cx="58.6571874" cy="88.920238" r="19.8582188"></circle>
                <text id="50" font-family="CircularStd-Bold, Circular Std" font-size="22" font-weight="bold" letter-spacing="0.183333337" fill="#FFFFFF">
                    <tspan x="46.4122549" y="98.6810197">50</tspan>
                </text>
                <path d="M117.520878,18.6307332 L99.6292761,0.740055407 C99.155308,0.266318316 98.5127256,0 97.8424257,0 L20.4184019,0 C19.748333,0 19.1052886,0.266318316 18.6315515,0.740055407 L0.740180789,18.6307332 C-0.106817705,19.4779626 -0.242864096,20.8033178 0.414731954,21.804841 L37.8404241,78.7964986 C36.3457616,81.8936905 35.5075403,85.3650678 35.5075403,89.0283882 C35.5075403,102.053733 46.1046071,112.6508 59.1297208,112.6508 C72.1548346,112.6508 82.7519014,102.053502 82.7519014,89.0283882 C82.7519014,85.3655297 81.913911,81.8948454 80.4197105,78.7978845 L117.846558,21.804841 C118.503923,20.8033178 118.367876,19.4779626 117.520878,18.6307332 Z M21.4649659,5.05404256 L96.7956307,5.05404256 L109.63319,17.8918327 L91.743205,17.8918327 C91.7254196,17.8918327 91.7078653,17.8913707 91.6900799,17.8918327 L26.5709786,17.8918327 C26.5525003,17.8913707 26.534022,17.8918327 26.5160057,17.8918327 L8.62763772,17.8918327 L21.4649659,5.05404256 Z M87.0568804,22.9454133 L59.1694492,65.4066697 C59.1562834,65.4066697 59.1431176,65.4062077 59.1297208,65.4062077 C59.116786,65.4062077 59.1043132,65.4066697 59.0916094,65.4066697 L31.2037162,22.9454133 L87.0568804,22.9454133 Z M7.21012211,22.9454133 L25.1573896,22.9454133 L53.4924573,66.0873636 C48.4342572,67.3307213 44.0119411,70.2066358 40.8177381,74.1231088 L7.21012211,22.9454133 Z M59.1297208,107.597219 C48.8911328,107.597219 40.5615829,99.2674382 40.5615829,89.0286192 C40.5615829,78.7898002 48.8913638,70.4604812 59.1297208,70.4604812 C69.3683089,70.4604812 77.6980898,78.7902622 77.6980898,89.0288502 C77.6980898,99.2674382 69.3683089,107.597219 59.1297208,107.597219 Z M77.4423965,74.1244946 C74.2486555,70.2077907 69.8261084,67.3316452 64.7681392,66.0880565 L93.1032069,22.9454133 L111.050474,22.9454133 L77.4423965,74.1244946 Z" id="Shape" fill="#FFFFFF"></path>
            </g>
        </g>
    </g>
</svg>