<?xml version="1.0" encoding="UTF-8"?>
<svg width="120px" height="120px" viewBox="0 0 120 120" version="1.1" xmlns="http://www.w3.org/2000/svg" xmlns:xlink="http://www.w3.org/1999/xlink">
    <!-- Generator: Sketch 41 (35326) - http://www.bohemiancoding.com/sketch -->
    <title>awards</title>
    <desc>Created with Sketch.</desc>
    <defs></defs>
    <g id="Page-1" stroke="none" stroke-width="1" fill="none" fill-rule="evenodd">
        <g id="awards">
            <g id="Group-2" transform="translate(4.000000, 4.000000)">
                <path d="M71.9005442,59.0184416 C71.6831851,59.2999217 71.5192963,59.5051087 71.3545381,59.7074701 C71.3141093,59.7568106 71.2743325,59.8070206 71.2336864,59.8561438 C71.0526262,60.0761112 70.8700445,60.2912968 70.6865934,60.5012657 C68.8175221,62.634211 66.8056459,64.2993994 64.6805255,65.4818331 C62.0611305,66.9390088 60.2800897,69.5271042 59.7901622,72.4675387 L51.4996497,72.4675387 C51.0095048,69.5268868 49.228464,66.9390088 46.6090689,65.4818331 C44.5580681,64.340915 42.7057334,62.8157059 41.0322854,60.9931494 L40.6279974,60.5319133 C38.9847622,58.6578428 37.435861,56.3873092 36.0245481,53.7839987 L35.5922207,52.9860733 C28.4852288,39.2539746 26.3355468,19.4066938 25.6873819,8.86412326 L85.6143847,8.86412326 C85.5867801,9.32275105 85.5565672,9.79637663 85.5230939,10.2882604 C85.4817956,10.8903452 85.442671,11.4248313 85.4011554,11.9597522 C85.2655233,13.7023204 85.1090247,15.4040252 84.9305729,17.0855155 L84.8225454,18.1023216 C83.6216361,28.8676853 81.0852722,42.5823952 75.7367158,52.9130406 L75.2643944,53.7837814 C74.2134629,55.7217555 73.0862384,57.4749743 71.9005442,59.0184416 Z" id="Path" fill="#FF2D55"></path>
                <path d="M111.284065,21.230337 C111.173212,11.7849954 106.339579,6.58293904 97.6732527,6.58293904 C94.3189664,6.58293904 91.0868359,7.36369309 88.9738877,8.01511844 C89.1842913,4.15438532 89.1875517,1.77125967 89.1875517,1.65279893 L89.1877691,5.68434189e-14 L22.1018254,5.68434189e-14 L22.1018254,1.65258157 C22.1018254,1.70909495 22.1074768,4.12982374 22.3202714,8.01707467 C20.2075405,7.3652146 16.972367,6.58293904 13.6148203,6.58293904 C4.94871121,6.58293904 0.114861207,11.7847781 0.00400804355,21.230337 C-0.105106247,30.5224405 2.01414541,38.7938253 6.30242396,45.8151778 C10.5126706,52.708723 15.8940483,56.8626736 19.6671857,59.1329899 C25.7104219,62.7698431 31.7501805,63.5332084 35.7530665,63.5332084 C36.739877,63.5332084 37.6906059,63.4866936 38.5798222,63.394968 C38.6387265,63.3888819 38.6932836,63.3819264 38.7508838,63.375623 C40.6862496,65.4598799 42.77268,67.1294154 45.0021328,68.3701014 C46.6455853,69.2845314 47.788677,70.8792954 48.1803582,72.7122851 C45.9643817,73.4019656 44.3509248,75.4723115 44.3509248,77.9121679 C44.3509248,80.4067988 46.0382838,82.513661 48.3307707,83.1548704 L48.3307707,90.0908007 L39.3881808,90.0908007 L39.3881808,97.3290776 L30.5633996,97.3290776 L30.5633996,111.276362 L80.7257602,111.276362 L80.7257602,97.3290776 L71.900979,97.3290776 L71.900979,90.0908007 L62.9583891,90.0908007 L62.9583891,83.1548704 C65.2510933,82.5134436 66.9384523,80.4067988 66.9384523,77.9121679 C66.9384523,75.4720941 65.3249954,73.4019656 63.1090189,72.7122851 C63.5007001,70.8792954 64.6435745,69.2847487 66.2872443,68.3701014 C68.5112631,67.1326758 70.6120392,65.4540112 72.5426232,63.3764925 C73.2266524,63.4523508 74.2523702,63.532991 75.5347891,63.532991 L75.5356586,63.532991 C79.5381098,63.532991 85.577651,62.769191 91.6204526,59.1327725 C95.3933726,56.8622389 100.774968,52.7085057 104.985214,45.8149604 C109.274145,38.7938253 111.393179,30.5222231 111.284065,21.230337 Z M85.8552187,3.30516315 C85.8404382,3.90963893 85.8169634,4.66952649 85.7808818,5.55896011 L25.5152334,5.55896011 C25.4778477,4.66974385 25.4528514,3.90876949 25.4367668,3.30516315 L85.8552187,3.30516315 Z M88.1031469,18.4796571 C90.3423808,17.7343326 93.2445601,16.9827047 95.8443928,16.9827047 C98.0242877,16.9827047 99.5938381,17.5152346 100.509572,18.5655139 C101.562025,19.7727266 101.901323,21.8006874 101.517467,24.5937524 C99.9192247,36.228118 94.8745363,45.3098178 87.312177,50.1654037 C84.6780015,51.8568925 81.84103,52.5557022 79.4635557,52.8039263 C84.4925942,42.2335338 86.9265819,28.9711483 88.1031469,18.4796571 Z M24.8866308,29.9916494 C26.5122598,38.7110115 28.7567104,46.1985993 31.558035,52.2461828 C31.6447613,52.4339811 31.7330091,52.6189537 31.8208222,52.8039263 C29.4442173,52.5550501 26.6089847,51.8564578 23.975896,50.1658384 C16.413754,45.3100351 11.3688483,36.2285527 9.77060647,24.5941872 C9.38696758,21.8009048 9.72604784,19.7727266 10.7787182,18.5659487 C11.6944523,17.5156693 13.26422,16.9833567 15.4438975,16.9833567 C18.0459038,16.9833567 20.9506914,17.7360714 23.1907947,18.4818307 C23.5909529,22.0599969 24.1380459,25.9765913 24.8866308,29.9916494 Z M35.7530665,60.2280453 C32.1692489,60.2280453 26.7646138,59.5466243 21.3717161,56.301235 C15.8562278,52.9821608 3.05486099,42.9240838 3.30917119,21.2692443 C3.39915788,13.6110296 6.77018084,9.88831955 13.6148203,9.88831955 C17.2753656,9.88831955 20.8907003,10.9918519 22.5432819,11.5739397 C22.625661,12.6826887 22.7180386,13.7946981 22.8201974,14.9021429 C20.5737907,14.2422406 17.9270084,13.6775415 15.4438975,13.6775415 C12.2665415,13.6775415 9.85885428,14.591102 8.28734767,16.3930093 C6.57912216,18.3520673 5.97638525,21.2625062 6.4958736,25.0434685 C7.38574194,31.5209884 9.24546678,37.2462282 12.023534,42.0598638 C14.6755329,46.6552709 18.0961138,50.3182072 22.1898559,52.9465139 C26.1883947,55.5141775 30.5131896,56.1616904 33.5981679,56.2236377 C33.6086012,56.2418959 33.6192518,56.2592846 33.629685,56.2773255 C33.7987904,56.573586 33.9696347,56.8648472 34.1422179,57.1524134 C34.1959056,57.2421827 34.250028,57.3312999 34.3041504,57.4201998 C34.4686913,57.6905946 34.6345363,57.9583811 34.8021202,58.2207336 C34.8651544,58.3194146 34.929058,58.4157047 34.9925268,58.5135163 C35.1066404,58.6889252 35.221406,58.8628125 35.3370411,59.0347436 C35.4487637,59.2010233 35.560921,59.3655642 35.6737304,59.5283662 C35.7843662,59.6876904 35.8952194,59.8461452 36.006942,60.0024265 C36.0593255,60.0758939 36.1108396,60.1521869 36.1632232,60.2247849 C36.0301994,60.2269585 35.8934805,60.2280453 35.7530665,60.2280453 Z M77.4208144,100.634675 L77.4208144,107.971199 L33.8689974,107.971199 L33.8689974,100.634675 L39.3883982,100.634675 L71.9011963,100.634675 L77.4208144,100.634675 Z M62.9588238,93.3963986 L68.5958158,93.3963986 L68.5958158,97.3292949 L42.6937787,97.3292949 L42.6937787,93.3963986 L48.3309881,93.3963986 L62.9588238,93.3963986 Z M51.6361512,90.0910181 L51.6361512,83.3567971 L59.6534433,83.3567971 L59.6534433,90.0910181 L51.6361512,90.0910181 L51.6361512,90.0910181 Z M63.6335066,77.9121679 C63.6335066,79.0917759 62.6736486,80.0514166 61.4942579,80.0514166 L49.795554,80.0514166 C48.6159459,80.0514166 47.6563053,79.0917759 47.6563053,77.9121679 C47.6563053,76.7325598 48.6159459,75.7729192 49.795554,75.7729192 L61.4942579,75.7729192 C62.6738659,75.7729192 63.6335066,76.7325598 63.6335066,77.9121679 Z M71.9005442,59.0184416 C71.6831851,59.2999217 71.5192963,59.5051087 71.3545381,59.7074701 C71.3141093,59.7568106 71.2743325,59.8070206 71.2336864,59.8561438 C71.0526262,60.0761112 70.8700445,60.2912968 70.6865934,60.5012657 C68.8175221,62.634211 66.8056459,64.2993994 64.6805255,65.4818331 C62.0611305,66.9390088 60.2800897,69.5271042 59.7901622,72.4675387 L51.4996497,72.4675387 C51.0095048,69.5268868 49.228464,66.9390088 46.6090689,65.4818331 C44.5580681,64.340915 42.7057334,62.8157059 41.0322854,60.9931494 L40.6279974,60.5319133 C38.9847622,58.6578428 37.435861,56.3873092 36.0245481,53.7839987 L35.5922207,52.9860733 C28.4852288,39.2539746 26.3355468,19.4066938 25.6873819,8.86412326 L85.6143847,8.86412326 C85.5867801,9.32275105 85.5565672,9.79637663 85.5230939,10.2882604 C85.4817956,10.8903452 85.442671,11.4248313 85.4011554,11.9597522 C85.2655233,13.7023204 85.1090247,15.4040252 84.9305729,17.0855155 L84.8225454,18.1023216 C83.6216361,28.8676853 81.0852722,42.5823952 75.7367158,52.9130406 L75.2643944,53.7837814 C74.2134629,55.7217555 73.0862384,57.4749743 71.9005442,59.0184416 Z M89.9165743,56.301235 C84.5232418,59.5468417 79.1196935,60.2280453 75.5360933,60.2280453 L75.5352239,60.2280453 C75.3945925,60.2280453 75.2578736,60.2269585 75.1246324,60.2247849 C75.126806,60.2217418 75.1289796,60.2184815 75.1311532,60.2154384 C75.3456867,59.9193953 75.5569598,59.6190049 75.7649725,59.3144848 C75.7904035,59.2773164 75.8153998,59.2392785 75.8408308,59.2021101 C76.0166744,58.943018 76.1899096,58.6804482 76.3611886,58.41527 C76.4053125,58.3472366 76.4494364,58.2789858 76.4931256,58.2105177 C76.6826628,57.912953 76.8702437,57.6134321 77.0541296,57.3086946 C77.0830383,57.2610929 77.1110776,57.2121871 77.1397691,57.1641508 C77.2903989,56.9124489 77.43929,56.658356 77.5862247,56.4018722 C77.6205675,56.3418811 77.655997,56.2844983 77.6905571,56.2240725 C80.7755355,56.1621251 85.1003303,55.5146122 89.0988692,52.9469486 C93.1926113,50.3182072 96.6131921,46.6552709 99.2651911,42.0602986 C102.043041,37.2466629 103.902766,31.5214231 104.792851,25.0439032 C105.311905,21.2627236 104.709386,18.3522846 103.001377,16.393444 C101.430088,14.5913193 99.0221835,13.6777589 95.8448276,13.6777589 C93.3619341,13.6777589 90.714717,14.2420232 88.4685276,14.9021429 C88.5726427,13.7729622 88.6619773,12.6898616 88.7384877,11.6604486 C88.7406613,11.6317572 88.7430522,11.6028485 88.7452258,11.5743744 C90.3982421,10.9920693 94.0133594,9.88875426 97.6736874,9.88875426 C104.518327,9.88875426 107.88935,13.6114643 107.979554,21.2692443 C108.232995,42.9240838 95.4320625,52.9819435 89.9165743,56.301235 Z" id="Shape" fill="#FFFFFF"></path>
                <path d="M34.7158287,35.1893586 L31.493262,35.9244673 C33.0782449,42.8723523 35.1942361,48.7049676 37.7821141,53.2601632 L40.6560367,51.6273613 C38.2277003,47.3529937 36.229083,41.8225077 34.7158287,35.1893586 Z" id="Shape" fill="#FFFFFF"></path>
                <text id="2017" font-family="CircularStd-Bold, Circular Std" font-size="14" font-weight="bold" letter-spacing="0.116666667" fill="#FFFFFF">
                    <tspan x="42.1055292" y="42.7309654">2017</tspan>
                </text>
            </g>
        </g>
    </g>
</svg>