<?xml version="1.0" encoding="UTF-8"?>
<svg width="120px" height="120px" viewBox="0 0 120 120" version="1.1" xmlns="http://www.w3.org/2000/svg" xmlns:xlink="http://www.w3.org/1999/xlink">
    <!-- Generator: Sketch 41 (35326) - http://www.bohemiancoding.com/sketch -->
    <title>awards</title>
    <desc>Created with Sketch.</desc>
    <defs></defs>
    <g id="Page-1" stroke="none" stroke-width="1" fill="none" fill-rule="evenodd">
        <g id="awards">
            <g id="009-chronometer-outlined-tool-symbol-of-sports" transform="translate(14.000000, 3.000000)">
                <g id="Group" transform="translate(0.000000, 0.000000)">
                    <path d="M79.183336,37.7987645 L83.9296829,33.1226413 L86.6984886,35.8504817 L89.4670876,33.1226413 L81.1610839,24.9393238 L78.3922782,27.6671642 L81.1610839,30.3948008 L76.4147371,35.070924 C70.4817001,29.615447 62.9669611,25.7186776 54.2651183,24.1599699 C57.4293495,21.8219083 59.4068907,17.925139 59.4068907,13.6385908 C59.4068907,6.23483094 53.0784282,0 45.5632755,0 C38.0483297,0 31.7196604,6.23483094 31.7196604,13.6387946 C31.7196604,17.9253427 33.6972015,21.822112 36.8614328,24.1601737 C28.5554291,25.7188814 21.0402765,29.6156507 14.711814,35.0711278 L9.96546713,30.3950046 L12.7342729,27.6673679 L9.96588076,24.9393238 L1.65967031,33.1226413 L4.42847607,35.8504817 L7.19707501,33.1224375 L11.9434219,37.7985607 C4.42847607,45.5920994 0.0775546876,56.5030535 0.0775546876,68.1933616 C0.0775546876,93.1326853 20.2496323,113.006311 45.5634824,113.006311 C70.8773324,113.006311 91.04941,93.1328891 91.04941,68.1933616 C91.0492032,56.5030535 86.6984886,45.9818782 79.183336,37.7987645 Z M35.6751563,13.6387946 C35.6751563,8.18331749 40.0260777,3.89697309 45.5632755,3.89697309 C51.1006802,3.89697309 55.4513948,8.18352124 55.4513948,13.6387946 C55.4513948,18.3149178 51.8915312,22.2116871 47.5408167,23.380616 L47.5408167,15.5870774 L51.4963125,15.5870774 L51.4963125,11.690308 L39.6304453,11.690308 L39.6304453,15.5870774 L43.5857344,15.5870774 L43.5857344,23.380616 C39.234813,22.2116871 35.6751563,18.3149178 35.6751563,13.6387946 Z M45.5632755,109.109541 C22.6228058,109.109541 4.03284375,90.7946237 4.03284375,68.1935653 C4.03284375,45.5925069 22.6228058,27.2775891 45.5632755,27.2775891 C68.5037453,27.2775891 87.0937073,45.5925069 87.0937073,68.1935653 C87.0937073,90.7946237 68.5039521,109.109541 45.5632755,109.109541 Z" id="Shape" fill="#FFFFFF"></path>
                    <ellipse id="Oval-5" fill="#FF2D55" cx="45.8946352" cy="68.1934634" rx="33.1461254" ry="32.6557182"></ellipse>
                    <path d="M45.5632755,35.070924 C26.9733135,35.070924 11.9434219,49.8786475 11.9434219,68.1933616 C11.9434219,86.5080756 26.9735203,101.316003 45.5632755,101.316003 C64.1530307,101.316003 79.1831292,86.5082793 79.1831292,68.1935653 C79.1831292,49.8788513 64.1532376,35.070924 45.5632755,35.070924 Z M47.5410235,97.4192335 L47.5410235,87.677412 C47.5410235,86.5084831 46.7499657,85.7291292 45.5634824,85.7291292 C44.376999,85.7291292 43.5859412,86.5084831 43.5859412,87.677412 L43.5859412,97.4192335 C28.9512683,96.6398796 17.0854011,84.9495716 15.8989178,70.1418481 L25.787037,70.1418481 C26.9735203,70.1418481 27.7645781,69.3624942 27.7645781,68.1935653 C27.7645781,67.0246364 26.9735203,66.2452825 25.787037,66.2452825 L15.8989178,66.2452825 C16.6899756,51.8271341 28.5558428,40.1368261 43.5859412,38.9678971 L43.5859412,48.7097186 C43.5859412,49.8786475 44.376999,50.6580014 45.5634824,50.6580014 C46.7499657,50.6580014 47.5410235,49.8786475 47.5410235,48.7097186 L47.5410235,38.9676934 C62.1756964,39.7470473 74.0415636,51.4373553 75.2280469,66.2450788 L65.3399277,66.2450788 C64.1534444,66.2450788 63.3623866,67.0244326 63.3623866,68.1933616 C63.3623866,69.3622905 64.1534444,70.1416443 65.3399277,70.1416443 L75.2280469,70.1416443 C74.0415636,84.5599965 62.1756964,96.2503045 47.5410235,97.4192335 Z" id="Shape" fill="#FFFFFF"></path>
                    <path d="M63.3621797,50.6580014 C62.5711219,49.8786475 61.3846386,49.8786475 60.593374,50.6580014 L48.3320813,62.7378845 C47.5410235,62.7378845 46.3545402,62.3483094 45.5632755,62.3483094 C42.3990443,62.3483094 39.6302385,65.0761498 39.6302385,68.1935653 C39.6302385,68.9729192 40.0258708,70.1418481 40.0258708,70.5316269 L35.6749495,75.2077501 C34.8838917,75.987104 34.8838917,77.1560329 35.6749495,77.9355905 C36.4660073,78.7151481 37.6524906,78.7149444 38.4437552,77.9355905 L42.7944698,73.6492461 C43.5855276,74.0388212 44.3765854,74.0388212 45.16785,74.0388212 C48.3320813,74.0388212 51.100887,71.3109808 51.100887,68.1935653 C51.100887,67.4142114 50.7052547,66.2452825 50.7052547,65.8555037 L62.9667542,53.7754169 C64.1532376,52.606488 64.1532376,51.4373553 63.3621797,50.6580014 Z M45.5632755,70.1418481 C44.3767922,70.1418481 43.5857344,69.3624942 43.5857344,68.1935653 C43.5857344,67.0246364 44.3767922,66.2452825 45.5632755,66.2452825 C46.7497589,66.2452825 47.5408167,67.0246364 47.5408167,68.1935653 C47.5408167,69.3624942 46.7499657,70.1418481 45.5632755,70.1418481 Z" id="Shape" fill="#FFFFFF"></path>
                </g>
            </g>
        </g>
    </g>
</svg>