<?xml version="1.0" encoding="UTF-8"?>
<svg width="20px" height="24px" viewBox="0 0 20 24" version="1.1" xmlns="http://www.w3.org/2000/svg" xmlns:xlink="http://www.w3.org/1999/xlink">
    <!-- Generator: Sketch 41 (35326) - http://www.bohemiancoding.com/sketch -->
    <title>pin</title>
    <desc>Created with Sketch.</desc>
    <defs></defs>
    <g id="Page-1" stroke="none" stroke-width="1" fill="none" fill-rule="evenodd">
        <g id="pin" fill="#484848">
            <path d="M2.928563,19.7143056 L2.928563,9.42857909 L17.071437,9.42857909 L17.071437,19.7143056 L2.928563,19.7143056 Z M6.78571045,7.50000536 C6.78571045,7.68080915 6.64508529,7.82143432 6.4642815,7.82143432 L5.82142359,7.82143432 C5.6406198,7.82143432 5.49999464,7.68080915 5.49999464,7.50000536 L5.49999464,4.60714477 C5.49999464,4.42634099 5.6406198,4.28571582 5.82142359,4.28571582 L6.4642815,4.28571582 C6.64508529,4.28571582 6.78571045,4.42634099 6.78571045,4.60714477 L6.78571045,7.50000536 Z M14.5000054,7.50000536 C14.5000054,7.68080915 14.3593802,7.82143432 14.1785764,7.82143432 L13.5357185,7.82143432 C13.3549147,7.82143432 13.2142895,7.68080915 13.2142895,7.50000536 L13.2142895,4.60714477 C13.2142895,4.42634099 13.3549147,4.28571582 13.5357185,4.28571582 L14.1785764,4.28571582 C14.3593802,4.28571582 14.5000054,4.42634099 14.5000054,4.60714477 L14.5000054,7.50000536 Z M18.3571528,6.85714746 C18.3571528,6.15402162 17.7745628,5.57143164 17.071437,5.57143164 L15.7857212,5.57143164 L15.7857212,4.60714477 C15.7857212,3.72321515 15.062506,3 14.1785764,3 L13.5357185,3 C12.6517889,3 11.9285737,3.72321515 11.9285737,4.60714477 L11.9285737,5.57143164 L8.07142627,5.57143164 L8.07142627,4.60714477 C8.07142627,3.72321515 7.34821112,3 6.4642815,3 L5.82142359,3 C4.93749397,3 4.21427882,3.72321515 4.21427882,4.60714477 L4.21427882,5.57143164 L2.928563,5.57143164 C2.22543716,5.57143164 1.64284718,6.15402162 1.64284718,6.85714746 L1.64284718,19.7143056 C1.64284718,20.4174315 2.22543716,21.0000215 2.928563,21.0000215 L17.071437,21.0000215 C17.7745628,21.0000215 18.3571528,20.4174315 18.3571528,19.7143056 L18.3571528,6.85714746 Z" id=""></path>
        </g>
    </g>
</svg>