<?xml version="1.0" encoding="UTF-8"?>
<svg width="45px" height="66px" viewBox="0 0 45 66" version="1.1" xmlns="http://www.w3.org/2000/svg" xmlns:xlink="http://www.w3.org/1999/xlink">
    <!-- Generator: Sketch 41 (35326) - http://www.bohemiancoding.com/sketch -->
    <title>calendar</title>
    <desc>Created with Sketch.</desc>
    <defs></defs>
    <g id="Page-1" stroke="none" stroke-width="1" fill="none" fill-rule="evenodd">
        <g id="calendar">
            <g id="Group-13" transform="translate(4.000000, 6.000000)">
                <path d="M15.5260125,36.1958166 C14.9588863,35.5326878 14.6593227,34.7388888 14.6593227,33.8988664 L14.6593227,30.3192154 C14.6593227,28.3582742 16.2540319,26.763565 18.2149731,26.763565 C20.1759143,26.763565 21.7706235,28.3582742 21.7706235,30.3192154 L21.7706235,33.8988664 C21.7706235,34.7379999 21.4710599,35.5326878 20.9030448,36.1958166 L20.0443552,37.2002878 L25.2053817,38.9203336 C25.009821,39.1221168 24.8044822,39.3087885 24.5946988,39.4910155 C24.552031,39.5283499 24.5129188,39.5683509 24.4693621,39.6047963 C24.3298028,39.7221328 24.1813544,39.8270245 24.0355728,39.9354718 C23.9164585,40.0243631 23.8026777,40.1185878 23.6791188,40.2021456 C23.6648962,40.2119236 23.6497847,40.2190349 23.6355621,40.228813 C22.0844096,41.2670629 20.219471,41.8750791 18.2149731,41.8750791 C16.2104752,41.8750791 14.3455366,41.2670629 12.7926063,40.2279241 C12.7783837,40.218146 12.7632722,40.2110347 12.7490496,40.2012567 C12.6263796,40.1176989 12.5117099,40.0234742 12.3925956,39.9345829 C12.246814,39.8252467 12.0983656,39.7212439 11.9588063,39.6039074 C11.9152496,39.567462 11.8761374,39.527461 11.8334696,39.4901266 C11.6236862,39.3078995 11.4183474,39.1212279 11.2227867,38.9194447 L16.3838132,37.1993989 L15.5260125,36.1958166 Z" id="Path" fill="#FF2D55"></path>
                <g id="002-id-card" transform="translate(0.436721, 0.096187)" fill="#484848">
                    <g id="Group">
                        <path d="M32.8897659,3.55565037 L22.2228148,3.55565037 L23.8228575,1.42226015 C24.1179765,1.03024969 24.0379743,0.472901499 23.645075,0.178671431 C23.2512867,-0.115558637 22.6948274,-0.0364454163 22.4005973,0.35645395 L20.0005333,3.55565037 L15.6608621,3.55565037 L14.1283767,0.491568664 C13.9088153,0.052445843 13.3763567,-0.12355885 12.935456,0.0942247348 C12.4963332,0.313786145 12.3185507,0.848022613 12.5381121,1.28714543 L13.6732535,3.55565037 L2.66673778,3.55565037 C1.19647635,3.55565037 0,4.75212672 0,6.22238815 L0,50.6680178 C0,52.1382792 1.19647635,53.3347556 2.66673778,53.3347556 L32.8897659,53.3347556 C34.3600274,53.3347556 35.5565037,52.1382792 35.5565037,50.6680178 L35.5565037,6.22238815 C35.5565037,4.75212672 34.3600274,3.55565037 32.8897659,3.55565037 Z M33.7786785,50.6680178 C33.7786785,51.1586975 33.3804457,51.5569304 32.8897659,51.5569304 L2.66673778,51.5569304 C2.17694694,51.5569304 1.77782519,51.1586975 1.77782519,50.6680178 L1.77782519,6.22238815 C1.77782519,5.7317084 2.17694694,5.33347556 2.66673778,5.33347556 L14.5621661,5.33347556 L15.4510787,7.11130074 C14.7043921,7.76376258 14.2226015,8.7104545 14.2226015,9.77803852 C14.2226015,11.7389797 15.8173107,13.3336889 17.7782519,13.3336889 C19.739193,13.3336889 21.3339022,11.7389797 21.3339022,9.77803852 C21.3339022,7.81709734 19.739193,6.22238815 17.7782519,6.22238815 C17.5231339,6.22238815 17.2751273,6.25172226 17.0351209,6.30327919 L16.5497746,5.33347556 L32.8897659,5.33347556 C33.3804457,5.33347556 33.7786785,5.7317084 33.7786785,6.22238815 L33.7786785,50.6680178 Z M16.2955456,8.80023467 L16.9826751,10.1753824 C17.1391237,10.4873908 17.4529098,10.6669511 17.7791408,10.6669511 C17.9124777,10.6669511 18.0484813,10.6367281 18.1755958,10.5736153 C18.6147186,10.3540539 18.7925011,9.81981741 18.5729397,9.38069459 L17.888477,8.0117692 C18.8165018,8.06954852 19.556077,8.83579117 19.556077,9.77803852 C19.556077,10.7585091 18.7587224,11.5558637 17.7782519,11.5558637 C16.7977813,11.5558637 16.0004267,10.7585091 16.0004267,9.77803852 C16.0004267,9.41714001 16.1097629,9.08113105 16.2955456,8.80023467 Z" id="Shape"></path>
                        <path d="M17.7782519,20.4449896 C11.4065264,20.4449896 6.22238815,25.6291279 6.22238815,32.0008533 C6.22238815,34.1662444 6.83218219,36.1867427 7.87220992,37.9210112 L7.80376365,37.9441229 L8.54600567,38.9308159 C8.56556174,38.9565944 8.58778456,38.9779283 8.60734063,39.0037067 C8.83668008,39.3032703 9.07935322,39.590389 9.33624896,39.865952 C9.38247242,39.91662 9.42691804,39.9690658 9.47491932,40.017956 C9.74603767,40.2988524 10.0296008,40.567304 10.3282754,40.8197552 C10.3602763,40.8473115 10.3896104,40.8775345 10.4216112,40.9050908 C10.7265083,41.156653 11.044739,41.3922149 11.3745255,41.6126652 C11.5434189,41.7255571 11.7194236,41.8242264 11.8936505,41.9282292 C12.0634328,42.0295652 12.2314373,42.1309012 12.4056641,42.2233481 C12.6012249,42.326462 12.8012302,42.4197978 13.0030134,42.5113558 C13.1727957,42.5886912 13.342578,42.6633599 13.5168049,42.7326951 C13.718588,42.8126972 13.9203712,42.8882548 14.1265989,42.956701 C14.3212708,43.0215917 14.5186094,43.0775932 14.7168369,43.1327057 C14.908842,43.1851516 15.0990693,43.2393752 15.2946301,43.2811541 C15.539081,43.3353778 15.7879766,43.373601 16.037761,43.4118243 C16.1959874,43.4358249 16.3524361,43.4669369 16.5124403,43.4847151 C16.9284514,43.5291607 17.349796,43.556717 17.7782519,43.556717 C18.2067077,43.556717 18.6280523,43.5291607 19.0440634,43.4838262 C19.2040677,43.466048 19.3605163,43.434936 19.5187427,43.4109354 C19.7685271,43.3727121 20.0174227,43.3344889 20.2618736,43.2802652 C20.4565455,43.2375974 20.6476617,43.1842627 20.8396668,43.1318168 C21.0387832,43.0767042 21.2361218,43.0207027 21.4299048,42.9558121 C21.6361325,42.8873659 21.8388046,42.8118083 22.0396988,42.7318062 C22.2130368,42.662471 22.383708,42.5886912 22.5534903,42.5104669 C22.7552735,42.4189089 22.9552788,42.3255731 23.1508396,42.2224592 C23.3259553,42.1300123 23.4939598,42.0277874 23.6628532,41.9273403 C23.8370801,41.8233375 24.0130848,41.7246682 24.1819782,41.6117763 C24.5117647,41.391326 24.8299954,41.156653 25.1348925,40.9042019 C25.1668933,40.8775345 25.1962274,40.8464225 25.2282283,40.8188663 C25.5269029,40.5664151 25.8095771,40.2979635 26.0815844,40.0170671 C26.1286967,39.9681769 26.1731424,39.9148421 26.2202547,39.865063 C26.4771505,39.5895001 26.7198236,39.3023814 26.9491631,39.0028178 C26.9687191,38.9770394 26.9918309,38.9557055 27.010498,38.929927 L27.7527401,37.943234 L27.6842938,37.9201223 C28.7243215,36.1867427 29.3341156,34.1662444 29.3341156,32.0008533 C29.3341156,25.6291279 24.1499773,20.4449896 17.7782519,20.4449896 Z M15.0892913,36.0996293 C14.522165,35.4365005 14.2226015,34.6427016 14.2226015,33.8026792 L14.2226015,30.2230281 C14.2226015,28.262087 15.8173107,26.6673778 17.7782519,26.6673778 C19.739193,26.6673778 21.3339022,28.262087 21.3339022,30.2230281 L21.3339022,33.8026792 C21.3339022,34.6418126 21.0343387,35.4365005 20.4663235,36.0996293 L19.607634,37.1041005 L24.7686605,38.8241464 C24.5730997,39.0259296 24.3677609,39.2126012 24.1579775,39.3948283 C24.1153097,39.4321626 24.0761976,39.4721637 24.0326409,39.5086091 C23.8930816,39.6259456 23.7446332,39.7308372 23.5988515,39.8392846 C23.4797372,39.9281758 23.3659564,40.0224006 23.2423976,40.1059584 C23.228175,40.1157364 23.2130634,40.1228477 23.1988408,40.1326257 C21.6476884,41.1708756 19.7827497,41.7788919 17.7782519,41.7788919 C15.773754,41.7788919 13.9088153,41.1708756 12.355885,40.1317368 C12.3416624,40.1219588 12.3265509,40.1148475 12.3123283,40.1050694 C12.1896584,40.0215117 12.0749887,39.9272869 11.9558744,39.8383957 C11.8100927,39.7290594 11.6616443,39.6250566 11.522085,39.5077202 C11.4785283,39.4712748 11.4394162,39.4312737 11.3967483,39.3939394 C11.186965,39.2117123 10.9816262,39.0250406 10.7860654,38.8232575 L15.9470919,37.1032116 L15.0892913,36.0996293 Z M25.9562477,37.3449958 L22.5250451,36.2018542 C22.9081664,35.4569455 23.1117274,34.6347013 23.1117274,33.8026792 L23.1117274,30.2230281 C23.1117274,27.2816164 20.7196636,24.8895526 17.7782519,24.8895526 C14.8368401,24.8895526 12.4447763,27.2816164 12.4447763,30.2230281 L12.4447763,33.8026792 C12.4447763,34.6355903 12.6483373,35.4569455 13.0314586,36.2018542 L9.600256,37.3449958 C8.59134021,35.8071771 8.00021333,33.9733504 8.00021333,32.0008533 C8.00021333,26.6095985 12.386997,22.2228148 17.7782519,22.2228148 C23.1695067,22.2228148 27.5562904,26.6095985 27.5562904,32.0008533 C27.5562904,33.9733504 26.9642746,35.8071771 25.9562477,37.3449958 Z" id="Shape"></path>
                        <circle id="Oval" cx="31.2897233" cy="16.8893393" r="0.888912593"></circle>
                        <ellipse id="Oval" cx="14.400384" cy="16.8893393" rx="0.888912593" ry="0.888912593"></ellipse>
                        <ellipse id="Oval" cx="7.6446483" cy="16.8893393" rx="0.888912593" ry="0.888912593"></ellipse>
                        <ellipse id="Oval" cx="4.26678044" cy="16.8893393" rx="0.888912593" ry="0.888912593"></ellipse>
                        <ellipse id="Oval" cx="11.0225161" cy="16.8893393" rx="0.888912593" ry="0.888912593"></ellipse>
                        <ellipse id="Oval" cx="17.7782519" cy="16.8893393" rx="0.888912593" ry="0.888912593"></ellipse>
                        <ellipse id="Oval" cx="27.9118554" cy="16.8893393" rx="0.888912593" ry="0.888912593"></ellipse>
                        <ellipse id="Oval" cx="24.5339876" cy="16.8893393" rx="0.888912593" ry="0.888912593"></ellipse>
                        <ellipse id="Oval" cx="21.1561197" cy="16.8893393" rx="0.888912593" ry="0.888912593"></ellipse>
                        <ellipse id="Oval" cx="4.26678044" cy="48.00128" rx="0.888912593" ry="0.888912593"></ellipse>
                        <ellipse id="Oval" cx="11.0225161" cy="48.00128" rx="0.888912593" ry="0.888912593"></ellipse>
                        <ellipse id="Oval" cx="27.9118554" cy="48.00128" rx="0.888912593" ry="0.888912593"></ellipse>
                        <ellipse id="Oval" cx="24.5339876" cy="48.00128" rx="0.888912593" ry="0.888912593"></ellipse>
                        <ellipse id="Oval" cx="31.2897233" cy="48.00128" rx="0.888912593" ry="0.888912593"></ellipse>
                        <ellipse id="Oval" cx="17.7782519" cy="48.00128" rx="0.888912593" ry="0.888912593"></ellipse>
                        <ellipse id="Oval" cx="14.400384" cy="48.00128" rx="0.888912593" ry="0.888912593"></ellipse>
                        <ellipse id="Oval" cx="21.1561197" cy="48.00128" rx="0.888912593" ry="0.888912593"></ellipse>
                        <ellipse id="Oval" cx="7.6446483" cy="48.00128" rx="0.888912593" ry="0.888912593"></ellipse>
                    </g>
                </g>
            </g>
        </g>
    </g>
</svg>