<?xml version="1.0" encoding="UTF-8"?>
<svg width="35px" height="35px" viewBox="0 0 35 35" version="1.1" xmlns="http://www.w3.org/2000/svg" xmlns:xlink="http://www.w3.org/1999/xlink">
    <!-- Generator: Sketch 41 (35326) - http://www.bohemiancoding.com/sketch -->
    <title>envelop</title>
    <desc>Created with Sketch.</desc>
    <defs></defs>
    <g id="Page-1" stroke="none" stroke-width="1" fill="none" fill-rule="evenodd">
        <g id="envelop" fill="#FFFFFF">
            <g id="002-paper-plane" transform="translate(1.000000, 6.000000)">
                <path d="M31.3805519,0.322766894 C31.2683293,0.184805146 31.0943328,0.120457316 30.920851,0.141048622 C30.8812127,0.143107753 30.8441484,0.149799927 30.8055397,0.161125145 L0.955868357,8.27976215 C0.736570952,8.33947694 0.582136161,8.53612391 0.575958769,8.76314305 C0.57029616,8.99016219 0.714435299,9.1945309 0.930129225,9.26557091 L11.8522725,12.8443398 L10.875215,20.6597698 C10.8494759,20.8656829 10.9498585,21.0669629 11.1295177,21.1699194 C11.209309,21.2157351 11.2978516,21.2383855 11.3858794,21.2383855 C11.4965577,21.2383855 11.6072359,21.2028655 11.6988673,21.1323403 L15.6961545,18.0714427 L19.2002799,23.0777039 C19.297059,23.2161804 19.4545825,23.2975161 19.6218869,23.2975161 C19.6332121,23.2975161 19.6450521,23.2970013 19.6568921,23.2964865 C19.837066,23.2841317 19.9971634,23.1786013 20.0795286,23.0174743 L31.437178,0.88182084 C31.531898,0.700617351 31.5092476,0.481319947 31.3805519,0.322766894 Z M27.8053865,2.04420004 L12.3444047,11.9218493 L2.88424412,8.82234305 L27.8053865,2.04420004 Z M12.0494342,19.5674011 L12.7608638,13.8775086 L15.1056988,17.2271992 L12.0494342,19.5674011 Z M19.5549651,21.7876586 L13.1459213,12.6317346 L29.670444,2.07457222 L19.5549651,21.7876586 Z" id="Shape"></path>
            </g>
        </g>
    </g>
</svg>