<?xml version="1.0" encoding="UTF-8"?>
<svg width="55px" height="31px" viewBox="0 0 55 31" version="1.1" xmlns="http://www.w3.org/2000/svg" xmlns:xlink="http://www.w3.org/1999/xlink">
    <!-- Generator: Sketch 41 (35326) - http://www.bohemiancoding.com/sketch -->
    <title>feedback-social</title>
    <desc>Created with Sketch.</desc>
    <defs></defs>
    <g id="Page-1" stroke="none" stroke-width="1" fill="none" fill-rule="evenodd">
        <g id="feedback-social">
            <g id="Group" transform="translate(1.000000, 3.000000)">
                <circle id="Oval" fill="#4162A2" cx="12.0997786" cy="12.0997786" r="12.0997786"></circle>
                <circle id="Oval-Copy-5" fill="#FF4A60" cx="40.683705" cy="12.0997786" r="12.0997786"></circle>
                <path d="M15.4668389,5.52513999 C15.2584879,5.49427317 14.5408343,5.43253953 13.7074302,5.43253953 C11.963455,5.43253953 10.7673657,6.49744479 10.7673657,8.44977108 L10.7673657,10.1320127 L8.79960602,10.1320127 L8.79960602,12.4161573 L10.7673657,12.4161573 L10.7673657,18.2731362 L13.1286774,18.2731362 L13.1286774,12.4161573 L15.0887204,12.4161573 L15.3896719,10.1320127 L13.1286774,10.1320127 L13.1286774,8.67355552 C13.1286774,8.01763562 13.3061616,7.56235004 14.2553163,7.56235004 L15.4668389,7.56235004 L15.4668389,5.52513999 Z" id="" fill="#FFFFFF"></path>
                <path d="M43.2385842,12.5274079 C43.2385842,12.2496065 43.2096466,12.0354679 43.1691339,11.8213294 L39.1641641,11.8213294 L39.1641641,13.2797866 L41.571776,13.2797866 C41.473388,13.8990521 40.8425474,15.1086456 39.1641641,15.1086456 C37.717282,15.1086456 36.5366261,13.9106272 36.5366261,12.4290199 C36.5366261,10.9474126 37.717282,9.74939415 39.1641641,9.74939415 C39.9917807,9.74939415 40.5415959,10.1024334 40.8541224,10.4033849 L42.0058406,9.29796692 C41.265037,8.60346349 40.3100948,8.18676144 39.1641641,8.18676144 C36.820215,8.18676144 34.9219057,10.0850708 34.9219057,12.4290199 C34.9219057,14.7729689 36.820215,16.6712783 39.1641641,16.6712783 C41.6122887,16.6712783 43.2385842,14.9523823 43.2385842,12.5274079 Z M48.2563715,11.8213294 L47.046778,11.8213294 L47.046778,10.6117359 L45.831397,10.6117359 L45.831397,11.8213294 L44.6218035,11.8213294 L44.6218035,13.0367104 L45.831397,13.0367104 L45.831397,14.2463038 L47.046778,14.2463038 L47.046778,13.0367104 L48.2563715,13.0367104 L48.2563715,11.8213294 Z" id="" fill="#FFFFFF"></path>
            </g>
        </g>
    </g>
</svg>