<?xml version="1.0" encoding="UTF-8"?>
<svg width="55px" height="55px" viewBox="0 0 55 55" version="1.1" xmlns="http://www.w3.org/2000/svg" xmlns:xlink="http://www.w3.org/1999/xlink">
    <!-- Generator: Sketch 41 (35326) - http://www.bohemiancoding.com/sketch -->
    <title>feedback-star</title>
    <desc>Created with Sketch.</desc>
    <defs></defs>
    <g id="Page-1" stroke="none" stroke-width="1" fill="none" fill-rule="evenodd">
        <g id="feedback-star" fill="#FF2D55">
            <g id="002-favorites-copy-2" transform="translate(3.000000, 3.500000)">
                <path d="M44.3017223,18.6428096 C45.1715112,17.7949742 45.4785782,16.5506629 45.1033053,15.3954789 C44.7279385,14.240295 43.7481009,13.4142254 42.5461016,13.2396297 L32.0356445,11.7123626 C31.8293381,11.6824346 31.6509897,11.5528716 31.5586725,11.365798 L26.858285,1.84183964 C26.3208003,0.752609901 25.2323211,0.0759927723 24.0176564,0.0759927723 C22.8029917,0.0759927723 21.7145125,0.752609901 21.1770278,1.84183964 L16.4766403,11.3658918 C16.3842294,11.5528716 16.2059747,11.6824346 15.9995746,11.7124564 L5.48930507,13.2396297 C4.28730582,13.4142254 3.30756196,14.240295 2.93210138,15.3954789 C2.55664079,16.5506629 2.8638017,17.7949742 3.7336844,18.6428096 L11.3390598,26.0562329 C11.4883246,26.2018388 11.5565305,26.4115226 11.5212548,26.6170783 L9.72585522,37.084942 C9.52058092,38.2821565 10.0033696,39.4692387 10.9860218,40.1831955 C11.968674,40.8973399 13.2472289,40.9895632 14.3221983,40.424496 L23.7228795,35.482245 C23.9075138,35.3851432 24.1278929,35.3851432 24.312621,35.482245 L33.713396,40.424496 C34.1809861,40.6702998 34.6869478,40.7917944 35.1904703,40.7917006 C35.8443834,40.7917006 36.4941686,40.5868015 37.0492911,40.1831016 C38.0319433,39.469051 38.5148258,38.2818751 38.3094576,37.0848482 L36.514058,26.6169845 C36.4788762,26.4114288 36.5469882,26.201745 36.696253,26.0561391 L44.3017223,18.6428096 Z M34.0165227,27.0455462 L35.8119223,37.5135975 C35.871966,37.8639148 35.655715,38.0636538 35.5599265,38.1331732 C35.4640443,38.2025987 35.20717,38.3467973 34.8926912,38.1813019 L25.4919162,33.239051 C25.0304243,32.9965308 24.5241811,32.87513 24.0178441,32.87513 C23.511507,32.87513 23.00517,32.9965308 22.5437719,33.2389572 L13.1430907,38.1811143 C12.8284243,38.3465158 12.5716438,38.2025048 12.4758554,38.1329855 C12.380067,38.0634662 12.1637221,37.8637272 12.2238596,37.5134099 L14.0192592,27.0455462 C14.1955437,26.0177674 13.8550773,24.9696301 13.1081903,24.2416944 L5.5028149,16.8282711 C5.24828602,16.580028 5.30589042,16.2913493 5.34257335,16.1787674 C5.37906864,16.0660917 5.50225199,15.7986159 5.85397656,15.7475788 L16.3641523,14.2203117 C17.396059,14.0703902 18.2878014,13.4226691 18.7493871,12.487395 L23.4497746,2.96334285 C23.6071078,2.6446423 23.8994454,2.610211 24.0179379,2.610211 C24.1362427,2.610211 24.4285803,2.64454848 24.5860073,2.96334285 L24.5860073,2.96343667 L29.2863948,12.4874889 C29.7478867,13.4227629 30.6395353,14.070484 31.6714421,14.2204055 L42.1818054,15.7476726 C42.53353,15.7987097 42.6566195,16.0661855 42.6932086,16.1788612 C42.7297977,16.2915369 42.7874959,16.5803095 42.5328732,16.8283649 L34.9274978,24.2417882 C34.1807046,24.9696301 33.8402383,26.0177674 34.0165227,27.0455462 Z" id="Shape"></path>
                <path d="M38.8203918,1.84118291 C38.2541049,1.42988376 37.4618099,1.55541256 37.0505107,2.1215118 L35.7054386,3.97273327 C35.2941395,4.53883251 35.4195745,5.33131516 35.9857675,5.74261431 C36.2108375,5.90595187 36.4713707,5.98466537 36.7295585,5.98466537 C37.1214373,5.98466537 37.5077808,5.80350235 37.7556486,5.46237924 L39.1007206,3.61115778 C39.5120198,3.04496471 39.3865848,2.25248206 38.8203918,1.84118291 Z" id="Shape"></path>
                <path d="M12.3239637,3.96522781 L10.9788916,2.11400634 C10.5676863,1.54809474 9.77529743,1.42256593 9.20901055,1.83367745 C8.64291131,2.2449766 8.51738251,3.03745926 8.92868166,3.6035585 L10.2737537,5.45477996 C10.5217153,5.79618453 10.9080588,5.97725373 11.3000314,5.97725373 C11.558313,5.97725373 11.8189401,5.89854023 12.0437286,5.73510886 C12.6098278,5.32390352 12.7353566,4.53142087 12.3239637,3.96522781 Z" id="Shape"></path>
                <path d="M4.6488813,28.5047013 C4.43263027,27.8392485 3.71782911,27.4749523 3.05218872,27.6912033 L0.875887065,28.3984052 C0.21024667,28.6146562 -0.153861909,29.329645 0.0623891279,29.9950978 C0.23632814,30.5307061 0.733095708,30.8710787 1.26720293,30.8710787 C1.39695356,30.8710787 1.52895582,30.8509078 1.65908171,30.8085957 L3.83538337,30.1013939 C4.50092994,29.8851428 4.86513234,29.1703417 4.6488813,28.5047013 Z" id="Shape"></path>
                <path d="M24.0179379,42.5734027 C23.3181476,42.5734027 22.7508288,43.1407216 22.7508288,43.8405118 L22.7508288,46.1289263 C22.7508288,46.8287165 23.3181476,47.3960354 24.0179379,47.3960354 C24.7177281,47.3960354 25.285047,46.8287165 25.285047,46.1289263 L25.285047,43.8405118 C25.285047,43.1406278 24.7178219,42.5734027 24.0179379,42.5734027 Z" id="Shape"></path>
                <path d="M47.1590505,28.4001878 L44.9827489,27.6929859 C44.3173899,27.4769225 43.6023073,27.8409372 43.3860563,28.5065776 C43.1698052,29.172218 43.5339138,29.8870192 44.1995542,30.1032702 L46.3758559,30.8104721 C46.5059818,30.8526903 46.6378902,30.8727674 46.7676408,30.8727674 C47.3018419,30.8727674 47.7986094,30.532301 47.9725485,29.9967865 C48.1887995,29.3312399 47.8245971,28.6164388 47.1590505,28.4001878 Z" id="Shape"></path>
            </g>
        </g>
    </g>
</svg>