<?xml version="1.0" encoding="UTF-8"?>
<svg width="75px" height="91px" viewBox="0 0 75 91" version="1.1" xmlns="http://www.w3.org/2000/svg" xmlns:xlink="http://www.w3.org/1999/xlink">
    <!-- Generator: Sketch 41 (35326) - http://www.bohemiancoding.com/sketch -->
    <title>feedback</title>
    <desc>Created with Sketch.</desc>
    <defs></defs>
    <g id="Page-1" stroke="none" stroke-width="1" fill="none" fill-rule="evenodd">
        <g id="feedback" fill="#FFFFFF">
            <g id="Group-3" transform="translate(4.000000, 4.000000)">
                <g id="Group" transform="translate(0.000000, -0.000000)">
                    <path d="M50.7894574,46.3509723 C53.5817996,42.6688815 55.0576953,38.2739481 55.0576953,33.6411004 C55.0576953,27.9608545 52.8299044,22.6360401 48.7846436,18.6474683 C44.7401026,14.6597964 39.3794751,12.5063312 33.6985093,12.5883953 C28.1931897,12.6663203 23.0064087,14.8753948 19.0936024,18.8087173 C15.180976,22.7418597 12.9987163,27.9403384 12.948686,33.4461979 C12.9058542,38.1663288 14.3903883,42.6402671 17.2417591,46.3846259 C21.8706475,52.4631351 24.4200365,59.908841 24.4200365,67.3502277 L24.4200365,75.4925794 C24.4200365,79.1043037 27.3583305,82.0425978 30.9700549,82.0425978 L37.0626014,82.0425978 C40.6743257,82.0425978 43.6126198,79.1041238 43.6126198,75.4925794 L43.6126198,67.3507676 C43.6127997,59.8271367 46.0765252,52.5653554 50.7894574,46.3509723 L50.7894574,46.3509723 Z M19.3894654,44.7492808 C16.904504,41.4861494 15.6107332,37.5861205 15.647986,33.4708532 C15.7377887,23.5844574 23.8522458,15.4275285 33.736662,15.2876954 C38.6952469,15.2211083 43.3635477,17.0936476 46.8892487,20.570038 C50.4160294,24.0471483 52.3582153,28.6893541 52.3582153,33.6412804 C52.3582153,37.6800624 51.072003,41.5109846 48.6385117,44.7199465 C43.6727282,51.2679853 40.9989832,58.9071539 40.8895643,66.8430854 L27.1157372,66.8430854 C27.002899,58.9841791 24.2692255,51.1571266 19.3894654,44.7492808 L19.3894654,44.7492808 Z M27.1195165,74.5778156 L27.1195165,73.485066 L40.9133197,75.0653417 L40.9133197,75.4925794 C40.9133197,75.717536 40.8899242,75.9367338 40.8528513,76.1510725 L27.1195165,74.5778156 Z M27.1195165,70.7679494 L27.1195165,69.5425654 L40.9133197,69.5425654 L40.9133197,72.348225 L27.1195165,70.7679494 L27.1195165,70.7679494 Z M30.9700549,79.3432977 C29.5200741,79.3432977 28.2558176,78.537053 27.5991241,77.3498216 L39.218946,78.6810252 C38.6032846,79.0987248 37.8611076,79.3431177 37.0627813,79.3431177 L30.9700549,79.3431177 L30.9700549,79.3432977 Z" id="Shape"></path>
                    <path d="M28.5988316,56.1734804 C28.7384847,56.1734804 28.8806573,56.1515247 29.0206703,56.1056335 C29.7288339,55.8727583 30.1141397,55.1098853 29.8812646,54.4019016 C28.3853927,49.8529178 26.1559821,45.6147341 23.2549409,41.8054079 C22.7755132,41.1757091 22.350615,40.5049783 21.9923041,39.8115719 C21.65001,39.1492995 20.8356668,38.8901494 20.1733944,39.2324434 C19.5113019,39.5747375 19.2519719,40.3890807 19.5942659,41.0513531 C20.0243831,41.8831529 20.5333251,42.687058 21.1074145,43.4409328 C23.8259709,47.0107253 25.9151885,50.9822003 27.3169385,55.2450393 C27.5037425,55.8131898 28.0315808,56.1734804 28.5988316,56.1734804 Z" id="Shape"></path>
                    <path d="M34.0028307,20.1449599 C41.4447573,20.1449599 47.4991512,26.1995337 47.4991512,33.6414603 C47.4991512,34.0645588 47.4797149,34.4908967 47.4413823,34.9085963 C47.3733554,35.6509533 47.9197302,36.3078267 48.6620872,36.3760336 C48.7040191,36.3798129 48.7455911,36.3817925 48.7869831,36.3817925 C49.4767903,36.3817925 50.0652769,35.8557538 50.1295245,35.1553287 C50.1752357,34.6559249 50.1986312,34.146623 50.1986312,33.6414603 C50.1986312,24.7110404 42.9332506,17.4454798 34.0028307,17.4454798 C33.2574143,17.4454798 32.6530907,18.0498034 32.6530907,18.7952199 C32.6530907,19.5406363 33.2574143,20.1449599 34.0028307,20.1449599 L34.0028307,20.1449599 Z" id="Shape"></path>
                    <path d="M34.0028307,10.2580242 C34.7482471,10.2580242 35.3525707,9.6537006 35.3525707,8.90828417 L35.3525707,1.34974003 C35.3525707,0.604323601 34.7482471,1.13686838e-13 34.0028307,1.13686838e-13 C33.2574143,1.13686838e-13 32.6530907,0.604323601 32.6530907,1.34974003 L32.6530907,8.90828417 C32.6530907,9.6537006 33.2574143,10.2580242 34.0028307,10.2580242 Z" id="Shape"></path>
                    <path d="M20.3477808,12.9251105 C20.5979326,13.3582871 21.0514453,13.6003404 21.5179154,13.6003404 C21.7468313,13.6003404 21.9789866,13.5420317 22.1915257,13.4192953 C22.8370614,13.0465871 23.0584187,12.2210861 22.6857105,11.5755504 L18.9082381,5.03201078 C18.5353499,4.38629516 17.7100289,4.16511776 17.0644932,4.53782597 C16.4189575,4.91053418 16.1976002,5.73603518 16.5703084,6.38157085 L20.3477808,12.9251105 Z" id="Shape"></path>
                    <path d="M62.8474949,48.9712676 L56.3039553,45.1937952 C55.6582397,44.820907 54.8327387,45.0422644 54.4602104,45.68798 C54.0875022,46.3335157 54.3086796,47.1590167 54.9543952,47.5317249 L61.4979349,51.3091973 C61.7104739,51.4319337 61.9424493,51.4902425 62.1715451,51.4902425 C62.6380153,51.4902425 63.0917079,51.2480091 63.3416798,50.8150125 C63.714388,50.1694769 63.4930306,49.3439759 62.8474949,48.9712676 L62.8474949,48.9712676 Z" id="Shape"></path>
                    <path d="M5.15798652,18.7822623 L11.7015262,22.5597348 C11.9140652,22.6824711 12.1460406,22.7407799 12.3751364,22.7407799 C12.8416066,22.7407799 13.2952992,22.4985466 13.545271,22.06555 C13.9179793,21.4200143 13.6968019,20.5945133 13.0510862,20.2218051 L6.50754658,16.4443327 C5.86201092,16.0714445 5.03650992,16.2928018 4.6638017,16.9385175 C4.29109349,17.5840531 4.51227089,18.4093742 5.15798652,18.7822623 L5.15798652,18.7822623 Z" id="Shape"></path>
                    <path d="M66.5295857,32.526935 L58.9710416,32.526935 C58.2256252,32.526935 57.6213016,33.1312586 57.6213016,33.876675 C57.6213016,34.6220914 58.2256252,35.226415 58.9710416,35.226415 L66.5295857,35.226415 C67.2750022,35.226415 67.8793258,34.6220914 67.8793258,33.876675 C67.8793258,33.1312586 67.2751821,32.526935 66.5295857,32.526935 Z" id="Shape"></path>
                    <path d="M10.3839999,33.876675 C10.3839999,33.1312586 9.77967634,32.526935 9.03425991,32.526935 L1.47571576,32.526935 C0.730299337,32.526935 0.125975736,33.1312586 0.125975736,33.876675 C0.125975736,34.6220914 0.730299337,35.226415 1.47571576,35.226415 L9.03425991,35.226415 C9.7798563,35.226415 10.3839999,34.6220914 10.3839999,33.876675 Z" id="Shape"></path>
                    <path d="M55.630345,22.7407799 C55.8592609,22.7407799 56.0914162,22.6824711 56.3039553,22.5597348 L62.8474949,18.7822623 C63.4930306,18.4095541 63.714388,17.5840531 63.3416798,16.9385175 C62.9689715,16.2929818 62.1432906,16.0716244 61.4979349,16.4443327 L54.9543952,20.2218051 C54.3088596,20.5945133 54.0875022,21.4200143 54.4602104,22.06555 C54.7101823,22.4985466 55.1640548,22.7407799 55.630345,22.7407799 Z" id="Shape"></path>
                    <path d="M11.7015262,45.1937952 L5.15798652,48.9712676 C4.51245086,49.3439759 4.29109349,50.1694769 4.6638017,50.8150125 C4.91377356,51.2480091 5.36746617,51.4902425 5.83393633,51.4902425 C6.06285223,51.4902425 6.29500752,51.4319337 6.50754658,51.3091973 L13.0510862,47.5317249 C13.6966219,47.1590167 13.9179793,46.3335157 13.545271,45.68798 C13.1727428,45.0422644 12.3467019,44.821087 11.7015262,45.1937952 L11.7015262,45.1937952 Z" id="Shape"></path>
                    <path d="M45.8139558,13.4192953 C46.0264948,13.5420317 46.2584702,13.6003404 46.487566,13.6003404 C46.9540362,13.6003404 47.4077288,13.3581071 47.6577006,12.9251105 L51.4351731,6.38157085 C51.8078813,5.73603518 51.5865239,4.91053418 50.9409883,4.53782597 C50.2956326,4.16511776 49.4699516,4.38629516 49.0972434,5.03201078 L45.319771,11.5755504 C44.9470627,12.2210861 45.1684201,13.0465871 45.8139558,13.4192953 L45.8139558,13.4192953 Z" id="Shape"></path>
                </g>
            </g>
        </g>
    </g>
</svg>