<?xml version="1.0" encoding="UTF-8"?>
<svg width="75px" height="91px" viewBox="0 0 75 91" version="1.1" xmlns="http://www.w3.org/2000/svg" xmlns:xlink="http://www.w3.org/1999/xlink">
    <!-- Generator: Sketch 41 (35326) - http://www.bohemiancoding.com/sketch -->
    <title>feedback</title>
    <desc>Created with Sketch.</desc>
    <defs></defs>
    <g id="Page-1" stroke="none" stroke-width="1" fill="none" fill-rule="evenodd">
        <g id="feedback" fill="#FFFFFF">
            <path d="M72.5487855,18.6897297 L51.5866726,9.70594695 C50.9728276,9.44246945 50.2510368,9.62214511 49.828799,10.1461523 L43.8395637,17.6325911 C43.5550305,17.9859064 43.4472251,18.4471675 43.5460467,18.8903207 C43.6388323,19.3125585 43.9143818,19.6599782 44.2887528,19.8666052 L25.4767118,26.9218225 C23.8985139,27.5147521 22.5479987,28.637725 21.6826077,30.0811662 L15.4658301,40.4424155 C14.1422662,42.6494782 14.0374086,45.3415248 15.1902806,47.6413732 L15.6275382,48.5157479 L9.07232457,48.5157479 C8.24581656,48.5157479 7.57498066,49.1865838 7.57498066,50.0130919 L7.57498066,78.4617839 L3.0830893,78.4617839 C2.25658129,78.4617839 1.58574539,79.1326198 1.58574539,79.9591278 C1.58574539,80.7856359 2.25658129,81.4564718 3.0830893,81.4564718 L53.9912382,81.4564718 C54.8177462,81.4564718 55.4885821,80.7856359 55.4885821,79.9591278 C55.4885821,79.1326198 54.8177462,78.4617839 53.9912382,78.4617839 L49.4993468,78.4617839 L49.4993468,57.499671 C49.4993468,57.3858297 49.4573757,57.2870081 49.4364603,57.1822908 C52.2454365,55.2806767 55.4555948,52.3460679 58.2555872,47.8122055 C63.0140442,40.1160515 65.6881233,33.9203296 66.787233,31.1322687 L66.954977,31.2160706 C67.5957734,31.536539 68.2816291,31.6951589 68.9673444,31.6951589 C69.7848686,31.6951589 70.599445,31.4705643 71.3240432,31.0184274 C72.6596791,30.1948672 73.4561475,28.7664457 73.4561475,27.1973719 L73.4561475,20.0642484 C73.4561475,19.4652828 73.099744,18.9262558 72.5487855,18.6897297 Z M46.5047994,78.4617839 L10.5696685,78.4617839 L10.5696685,51.5104358 L18.077163,51.5104358 C18.1130982,51.5104358 18.1490333,51.5133836 18.1879162,51.5104358 L30.058441,51.5104358 C28.7079258,52.3309078 27.0488738,53.3640428 24.9496164,54.6996786 C23.3534509,55.7148461 22.2605176,57.2899559 21.8711268,59.1406151 C21.4787881,60.9912743 21.8412276,62.8808165 22.8982258,64.4619623 C24.2368094,66.4772774 26.4438722,67.5732989 28.7017494,67.5732989 C29.9235439,67.5732989 31.1633059,67.2498827 32.2862788,66.582135 L42.5756578,60.4102763 C43.1656396,60.2665357 44.6120287,59.8503339 46.5045186,58.9070367 L46.5045186,78.4617839 L46.5047994,78.4617839 Z M26.626636,44.7337158 C28.9175006,43.7515357 31.9809705,41.9727467 33.5351649,40.1609704 C34.730008,40.8617054 36.6105664,41.7630315 38.9613697,42.2242926 C37.2903861,44.2935104 35.6133665,46.8089696 34.9036477,48.5908468 C34.7808225,48.5578594 34.6610856,48.5160287 34.5263288,48.5160287 L28.3755258,48.5160287 C28.0580053,47.0275282 27.3244233,45.7129481 26.626636,44.7337158 Z M55.7161245,46.2369553 C49.8108314,55.7896641 41.8031928,57.5176386 41.725427,57.532518 C41.5576829,57.5684531 41.393027,57.6313396 41.2463387,57.7182296 L30.7532805,64.0129135 C28.9266248,65.1118828 26.5728737,64.5818396 25.3870144,62.8030506 C24.7880487,61.9017246 24.5814217,60.8236706 24.8030685,59.7665321 C25.0276631,58.7124817 25.6504919,57.8110153 26.5609421,57.2331054 C34.6074636,52.1094014 36.0597482,51.5463709 36.0298491,51.5133836 C36.8593049,51.5133836 37.5241048,50.9144179 37.5241048,50.0879099 C37.6768291,49.1506487 40.4049513,44.7665627 43.0790304,42.0923433 C43.5073041,41.6640695 43.6360249,41.0203253 43.4024465,40.4602426 C43.171816,39.9003003 42.6238052,39.534913 42.018944,39.534913 C37.3593086,39.534913 34.0054098,36.8966287 33.9724225,36.8696774 C33.5232333,36.5132739 32.9213199,36.3456702 32.4002605,36.5972161 C31.8792011,36.8458142 31.5618209,37.2770358 31.5618209,37.8519979 C31.0317777,39.1366788 25.2851046,42.3858603 24.0453426,42.5265127 C23.4284094,42.5265127 22.8803986,42.9008837 22.655804,43.4758458 C22.4312095,44.0508079 22.580986,44.7036763 23.0331229,45.1228259 C23.0510905,45.1407934 24.6203047,46.6321014 25.261101,48.5157479 L18.9784891,48.5157479 L17.8734838,46.2997014 C17.1817326,44.9191467 17.2416712,43.305154 18.0381397,41.9814497 L24.2549174,31.6202004 C24.7759768,30.7517213 25.5845172,30.0810258 26.5307622,29.7246223 L47.9182011,21.7050521 L64.0979937,29.7934044 C63.1068298,32.3240237 60.4625095,38.5558211 55.7161245,46.2369553 Z M70.4614597,27.2032675 C70.4614597,27.9579053 69.9644039,28.3442079 69.7517409,28.4760169 C69.5390779,28.6078258 68.967204,28.8773393 68.2963681,28.5418511 L47.3342552,18.0608649 L51.4548637,12.9131574 L70.4616001,21.0585005 L70.4616001,27.2032675 L70.4614597,27.2032675 Z" id="Shape"></path>
        </g>
    </g>
</svg>