<?xml version="1.0" encoding="UTF-8"?>
<svg width="24px" height="24px" viewBox="0 0 24 24" version="1.1" xmlns="http://www.w3.org/2000/svg" xmlns:xlink="http://www.w3.org/1999/xlink">
    <!-- Generator: Sketch 41 (35326) - http://www.bohemiancoding.com/sketch -->
    <title>greeting</title>
    <desc>Created with Sketch.</desc>
    <defs></defs>
    <g id="Page-1" stroke="none" stroke-width="1" fill="none" fill-rule="evenodd">
        <g id="greeting" fill="#999999">
            <g id="Group" transform="translate(0.974455, 1.000000)">
                <path d="M18.9595984,3.29671103 C16.8607671,1.19787975 14.0747906,0.0432888237 11.1065103,0.0432888237 C8.13822997,0.0432888237 5.35225348,1.19787975 3.2534222,3.29671103 C1.15459093,5.39554231 0,8.18151879 0,11.1497991 C0,14.1180794 1.15459093,16.9040559 3.2534222,19.0028872 C5.35225348,21.1017185 8.13822997,22.2563094 11.1065103,22.2563094 C14.0747906,22.2563094 16.8607671,21.1017185 18.9595984,19.0028872 C21.0584296,16.9040559 22.2130206,14.1180794 22.2130206,11.1497991 C22.2130206,8.18151879 21.0584296,5.39554231 18.9595984,3.29671103 Z M18.066777,18.1100659 C16.2063431,19.9704998 13.7335552,20.9942059 11.1065103,20.9942059 C8.47946534,20.9942059 6.00667749,19.9704998 4.14624353,18.1100659 C0.308514174,14.2723365 0.308514174,8.0272617 4.14624353,4.18953235 C6.00667749,2.32909839 8.47946534,1.30539226 11.1065103,1.30539226 C13.7335552,1.30539226 16.2063431,2.32909839 18.066777,4.18953235 C21.9045064,8.0272617 21.9045064,14.2723365 18.066777,18.1100659 Z" id="Shape"></path>
                <path d="M16.000667,6.25564243 C15.7529207,6.0078962 15.3555919,6.0078962 15.1078456,6.25564243 L11.1065103,10.2569778 L7.10517493,6.25564243 C6.8574287,6.0078962 6.46009984,6.0078962 6.2123536,6.25564243 C5.96460737,6.50338866 5.96460737,6.90071752 6.2123536,7.14846375 L10.213689,11.1497991 L6.2123536,15.1511345 C5.96460737,15.3988807 5.96460737,15.7962096 6.2123536,16.0439558 C6.33388949,16.1654917 6.49749549,16.2309341 6.65642704,16.2309341 C6.81535858,16.2309341 6.97896458,16.1701661 7.10050047,16.0439558 L11.1018358,12.0426204 L15.1031712,16.0439558 C15.2247071,16.1654917 15.3883131,16.2309341 15.5472446,16.2309341 C15.7108506,16.2309341 15.8697822,16.1701661 15.991318,16.0439558 C16.2390643,15.7962096 16.2390643,15.3988807 15.991318,15.1511345 L11.9993316,11.1497991 L16.000667,7.14846375 C16.2484132,6.90071752 16.2484132,6.50338866 16.000667,6.25564243 Z" id="Shape"></path>
            </g>
        </g>
    </g>
</svg>