<?xml version="1.0" encoding="UTF-8"?>
<svg width="122px" height="82px" viewBox="0 0 122 82" version="1.1" xmlns="http://www.w3.org/2000/svg" xmlns:xlink="http://www.w3.org/1999/xlink">
    <!-- Generator: Sketch 41 (35326) - http://www.bohemiancoding.com/sketch -->
    <title>hello</title>
    <desc>Created with Sketch.</desc>
    <defs></defs>
    <g id="Page-1" stroke="none" stroke-width="1" fill="none" fill-rule="evenodd">
        <g id="hello">
            <g id="Group-15" transform="translate(3.000000, 2.000000)">
                <path d="M39.4029633,23.8728625 C34.6673155,19.9831015 26.2927203,21.3736123 21.6479387,16.6454172 C23.5111256,15.2924568 25.7962527,14.484407 28.2702782,14.484407 C33.8506663,14.4846937 38.4874219,18.5507408 39.4029633,23.8728625 Z" id="Path" fill="#5AC8FA"></path>
                <g id="002-english-receptionist" transform="translate(0.000000, 0.182871)" fill="#484848">
                    <g id="Group">
                        <path d="M12.4916649,25.6087874 C12.4916649,34.3087236 19.5700553,41.387114 28.2699916,41.387114 C36.9707878,41.387114 44.0488915,34.3087236 44.0488915,25.6087874 C44.0488915,16.9085645 36.9705011,9.83046075 28.2699916,9.83046075 C19.5700553,9.8301741 12.4916649,16.9085645 12.4916649,25.6087874 Z M28.2702782,36.9154654 C22.0360548,36.9154654 16.9633135,31.8435841 16.9633135,25.6087874 C16.9633135,23.4652625 17.5747255,21.4662063 18.6132372,19.7566606 C21.1517577,22.3364579 24.6502494,23.3612107 28.1776922,24.1107851 C32.6106438,25.0526978 37.3382656,25.520501 38.3062628,30.741724 C38.3091293,30.7554829 38.3134289,30.7658021 38.316582,30.7787011 C36.4350499,34.4176484 32.641888,36.9154654 28.2702782,36.9154654 Z M39.4029633,23.6899915 C34.6673155,19.8002305 26.2927203,21.1907413 21.6479387,16.4625462 C23.5111256,15.1095859 25.7962527,14.301536 28.2702782,14.301536 C33.8506663,14.3018227 38.4874219,18.3678698 39.4029633,23.6899915 Z" id="Shape"></path>
                        <path d="M54.8296478,9.40536749 L54.8296478,10.3696384 L47.4244831,20.9313283 L54.8296478,20.0748356 L54.8296478,33.821142 C54.8296478,38.8867172 58.9518772,43.0072267 64.0174524,43.0072267 L106.097242,43.0072267 C111.161097,43.0072267 115.281894,38.8867172 115.281894,33.821142 L115.281894,9.40393427 C115.281894,4.33921898 111.161097,0.217849546 106.097242,0.217849546 L64.0174524,0.217849546 C58.9518772,0.219282766 54.8296478,4.3406522 54.8296478,9.40536749 Z" id="Shape"></path>
                        <path d="M2.23582428,76.6176852 L11.0879686,76.6176852 L45.4531611,76.6176852 L84.9266389,76.6176852 C86.163795,76.6176852 87.1624632,75.6178705 87.1624632,74.3818609 C87.1624632,73.1475713 86.1640816,72.1460366 84.9266389,72.1460366 L53.3757185,72.1460366 C53.8592872,71.2072771 54.1327457,70.1693387 54.1327457,69.0777978 L51.3528708,50.0652653 C51.2405063,45.9894723 47.3908755,42.7042438 42.6732863,42.7042438 L32.7089627,42.7042438 L28.4448445,47.1056646 L28.3866557,46.9414175 L28.2613922,47.2962829 L28.2212621,47.3372731 L23.4426176,42.7042438 L13.8678434,42.7042438 C9.15025421,42.7042438 5.29890355,45.9894723 5.18825892,50.0652653 L2.43045566,68.7515968 L2.40723748,69.0777978 C2.40723748,70.1722051 2.68212921,71.2072771 3.16569787,72.1460366 L2.23582428,72.1460366 C0.999814757,72.1460366 0,73.1475713 0,74.3818609 C0,75.6178705 1.00153462,76.6176852 2.23582428,76.6176852 Z M29.6834338,63.9657862 L28.3863691,64.8102398 L27.089591,63.9660729 L28.3863691,60.3127933 L29.6834338,63.9657862 Z M6.88347236,69.2116606 L9.63296294,50.5717655 L9.6567544,50.2455645 C9.6567544,48.5818819 11.5841496,47.1758924 13.8678434,47.1758924 L21.6304534,47.1758924 L26.5945566,51.9909407 L21.6989613,65.7897029 L28.3866557,70.1492736 L35.0749234,65.7897029 L30.11426,51.8117881 L34.601674,47.1773256 L42.6712798,47.1773256 C44.9535404,47.1773256 46.8823688,48.5833151 46.8823688,50.2455645 L49.6582307,69.2148137 C49.556472,70.8188743 47.6697803,72.1491897 45.4517279,72.1491897 L11.0879686,72.1491897 C8.86876966,72.1460366 6.98465774,70.8174411 6.88347236,69.2116606 Z" id="Shape"></path>
                    </g>
                </g>
                <rect id="Rectangle-2" fill="#FFFFFF" x="59.1816783" y="4.0017194" width="52.0223522" height="35.3485213" rx="7"></rect>
                <text id="HELLO" font-family="Montserrat-Bold, Montserrat" font-size="10" font-weight="bold" letter-spacing="1.875" fill="#484848">
                    <tspan x="64.0261639" y="24.4109801">HELL</tspan>
                    <tspan x="97.3861639" y="24.4109801" letter-spacing="1.7045455">O</tspan>
                </text>
            </g>
        </g>
    </g>
</svg>