<?xml version="1.0" encoding="UTF-8"?>
<svg width="160px" height="160px" viewBox="0 0 160 160" version="1.1" xmlns="http://www.w3.org/2000/svg" xmlns:xlink="http://www.w3.org/1999/xlink">
    <!-- Generator: Sketch 41 (35326) - http://www.bohemiancoding.com/sketch -->
    <title>home-icon1</title>
    <desc>Created with Sketch.</desc>
    <defs></defs>
    <g id="Page-1" stroke="none" stroke-width="1" fill="none" fill-rule="evenodd">
        <g id="home-icon1">
            <g id="003-briefcase" transform="translate(16.491291, 27.000000)">
                <path d="M116.21732,16.0129918 L89.8044394,16.0129918 L89.8044394,10.7302174 C89.8044394,4.90341693 85.0661865,0.164916457 79.2391384,0.164916457 L47.543483,0.164916457 C41.7166825,0.164916457 36.978182,4.90316931 36.978182,10.7302174 L36.978182,16.0127441 L10.565301,16.0127441 C4.73825285,16.0129918 0,20.7512446 0,26.5780451 L0,95.2518825 C0,101.078683 4.73825285,105.817184 10.565301,105.817184 L116.217568,105.817184 C122.044369,105.817184 126.782869,101.078931 126.782869,95.2518825 L126.782869,26.5780451 C126.782621,20.7512446 122.044369,16.0129918 116.21732,16.0129918 Z M42.2609563,10.7302174 C42.2609563,7.81817911 44.6314447,5.44769076 47.543483,5.44769076 L79.2391384,5.44769076 C82.1511767,5.44769076 84.5216651,7.81817911 84.5216651,10.7302174 L84.5216651,16.0127441 L42.2609563,16.0127441 L42.2609563,10.7302174 Z M121.500095,95.2521301 C121.500095,98.1641685 119.129606,100.534657 116.217568,100.534657 L10.565301,100.534657 C7.65326266,100.534657 5.28277431,98.1641685 5.28277431,95.2521301 L5.28277431,56.8045573 C6.84304247,57.7143217 8.63236126,58.2739481 10.565301,58.2739481 L52.8262573,58.2739481 L52.8262573,66.1978619 C52.8262573,67.6578431 54.0076634,68.8392491 55.4676445,68.8392491 L71.3154722,68.8392491 C72.7754533,68.8392491 73.9568593,67.6578431 73.9568593,66.1978619 L73.9568593,58.2739481 L116.217816,58.2739481 C118.150755,58.2739481 119.940322,57.7145693 121.500342,56.8045573 L121.500342,95.2521301 L121.500095,95.2521301 Z M58.108784,63.5564748 L58.108784,52.9911738 L68.674085,52.9911738 L68.674085,63.5564748 L58.108784,63.5564748 L58.108784,63.5564748 Z M121.500095,47.7086471 C121.500095,50.6206854 119.129606,52.9911738 116.217568,52.9911738 L73.9566117,52.9911738 L73.9566117,50.3497866 C73.9566117,48.8898055 72.7752057,47.7083995 71.3152246,47.7083995 L55.4673969,47.7083995 C54.0074157,47.7083995 52.8260097,48.8898055 52.8260097,50.3497866 L52.8260097,52.9911738 L10.565301,52.9911738 C7.65326266,52.9911738 5.28277431,50.6206854 5.28277431,47.7086471 L5.28277431,26.5782928 C5.28277431,23.6662544 7.65326266,21.2957661 10.565301,21.2957661 L116.217568,21.2957661 C119.129606,21.2957661 121.500095,23.6662544 121.500095,26.5782928 L121.500095,47.7086471 L121.500095,47.7086471 Z" id="Shape" fill="#484848"></path>
                <path d="M121.500095,95.2521301 C121.500095,98.1641685 119.129606,100.534657 116.217568,100.534657 L10.565301,100.534657 C7.65326266,100.534657 5.28277431,98.1641685 5.28277431,95.2521301 L5.28277431,56.8045573 C6.84304247,57.7143217 8.63236126,58.2739481 10.565301,58.2739481 L52.8262573,58.2739481 L52.8262573,66.1978619 C52.8262573,67.6578431 54.0076634,68.8392491 55.4676445,68.8392491 L71.3154722,68.8392491 C72.7754533,68.8392491 73.9568593,67.6578431 73.9568593,66.1978619 L73.9568593,58.2739481 L116.217816,58.2739481 C118.150755,58.2739481 119.940322,57.7145693 121.500342,56.8045573 L121.500342,95.2521301 L121.500095,95.2521301 Z" id="Path" fill-opacity="0.2" fill="#484848"></path>
                <polygon id="Path" fill="#FF2D55" points="58.108784 63.5564748 58.108784 52.9911738 68.674085 52.9911738 68.674085 63.5564748 58.108784 63.5564748"></polygon>
            </g>
        </g>
    </g>
</svg>