<?xml version="1.0" encoding="UTF-8"?>
<svg width="160px" height="160px" viewBox="0 0 160 160" version="1.1" xmlns="http://www.w3.org/2000/svg" xmlns:xlink="http://www.w3.org/1999/xlink">
    <!-- Generator: Sketch 41 (35326) - http://www.bohemiancoding.com/sketch -->
    <title>home-icon1</title>
    <desc>Created with Sketch.</desc>
    <defs></defs>
    <g id="Page-1" stroke="none" stroke-width="1" fill="none" fill-rule="evenodd">
        <g id="home-icon1">
            <g id="001-avatar" transform="translate(28.573322, 20.090571)">
                <g id="Group" transform="translate(0.000000, 0.000000)">
                    <path d="M50.5105166,64.5205519 L50.907261,64.5205519 L51.0560401,64.5205519 L51.3040054,64.5205519 C58.5693865,64.3965693 64.4461624,61.8425275 68.7855538,56.9576125 C78.3322151,46.1959217 76.7452376,27.7473088 76.571662,25.9867557 C75.9517489,12.7702092 69.7030252,6.44709589 64.5453485,3.49630969 C60.7018875,1.28941918 56.2137169,0.0991860906 51.2048193,0 L51.0312436,0 L50.9320575,0 L50.7832784,0 C48.0308644,0 42.6252224,0.446337408 37.4427492,3.3971236 C32.2354794,6.3479098 25.8875697,12.6710231 25.2676566,25.9867557 C25.0940809,27.7473088 23.5071035,46.1959217 33.0537647,56.9576125 C37.3683596,61.8425275 43.2451355,64.3965693 50.5105166,64.5205519 Z M31.8883281,26.6066688 C31.8883281,26.5322792 31.9131247,26.4578897 31.9131247,26.4082966 C32.7314099,8.62918988 45.3528399,6.71985764 50.7584819,6.71985764 L51.0560401,6.71985764 C57.7511013,6.86863678 69.1327052,9.59625427 69.9013974,26.4082966 C69.9013974,26.4826862 69.9013974,26.5570758 69.9261939,26.6066688 C69.9509904,26.7802445 71.686747,43.6418799 63.8014528,52.519035 C60.6770909,56.0401412 56.5112751,57.7758978 51.0312436,57.8254908 L50.907261,57.8254908 L50.7832784,57.8254908 C45.3280434,57.7758978 41.1374311,56.0401412 38.0378658,52.519035 C30.1773681,43.6914729 31.8635316,26.7554479 31.8883281,26.6066688 Z" id="Shape" fill="#484848"></path>
                    <path d="M31.8883281,26.6066688 C31.8883281,26.5322792 31.9131247,26.4578897 31.9131247,26.4082966 C32.7314099,8.62918988 45.3528399,6.71985764 50.7584819,6.71985764 L51.0560401,6.71985764 C57.7511013,6.86863678 69.1327052,9.59625427 69.9013974,26.4082966 C69.9013974,26.4826862 69.9013974,26.5570758 69.9261939,26.6066688 C69.9509904,26.7802445 71.686747,43.6418799 63.8014528,52.519035 C60.6770909,56.0401412 56.5112751,57.7758978 51.0312436,57.8254908 L50.907261,57.8254908 L50.7832784,57.8254908 C45.3280434,57.7758978 41.1374311,56.0401412 38.0378658,52.519035 C30.1773681,43.6914729 31.8635316,26.7554479 31.8883281,26.6066688 Z" id="Path" fill-opacity="0.4" fill="#5AC8FA"></path>
                    <path d="M101.864115,95.1194609 L101.864115,95.0450713 C101.864115,94.8466991 101.839319,94.648327 101.839319,94.4251583 C101.690539,89.5154468 101.368185,78.0346568 90.6064938,74.3647714 C90.5321042,74.3399749 90.4329181,74.3151784 90.3585285,74.2903819 C79.1752968,71.4387818 69.8766008,64.9916859 69.7774147,64.9172963 C68.2648269,63.8510458 66.181919,64.2229937 65.1156685,65.7355816 C64.049418,67.2481694 64.4213659,69.3310773 65.9339537,70.3973278 C66.3554946,70.6948861 76.2245106,77.5635229 88.5731789,80.7374778 C94.3507687,82.7955891 94.9954783,88.9699233 95.1690539,94.6235304 C95.1690539,94.8466991 95.1690539,95.0450713 95.1938505,95.2434435 C95.218647,97.4751306 95.0698679,100.921847 94.6731235,102.905569 C90.6560868,105.186849 74.9102949,113.072143 50.9568541,113.072143 C27.1025993,113.072143 11.2576213,105.162053 7.21578809,102.880772 C6.81904373,100.897051 6.64546807,97.450334 6.69506112,95.218647 C6.69506112,95.0202748 6.71985764,94.8219026 6.71985764,94.5987339 C6.8934333,88.9451268 7.53814289,82.7707926 13.3157327,80.7126812 C25.6644009,77.5387263 35.533417,70.645293 35.9549578,70.3725313 C37.4675457,69.3062808 37.8394936,67.2233729 36.7732431,65.710785 C35.7069926,64.1981972 33.6240847,63.8262493 32.1114968,64.8924998 C32.0123107,64.9668894 22.7632078,71.4139852 11.530383,74.2655853 C11.4311969,74.2903819 11.3568074,74.3151784 11.2824178,74.3399749 C0.520726976,78.0346568 0.198372181,89.5154468 0.0495930453,94.4003617 C0.0495930453,94.6235304 0.0495930453,94.8219026 0.0247965227,95.0202748 L0.0247965227,95.0946644 C-1.078998e-15,96.3840836 -0.0247965227,103.004755 1.28941918,106.327489 C1.5373844,106.972199 1.98372181,107.517722 2.57883836,107.88967 C3.32273404,108.385601 21.1514338,119.742408 50.9816506,119.742408 C80.8118673,119.742408 98.6405671,108.360804 99.3844628,107.88967 C99.9547828,107.517722 100.425917,106.972199 100.673882,106.327489 C101.913708,103.029552 101.888912,96.4088801 101.864115,95.1194609 Z" id="Shape" fill="#484848"></path>
                </g>
            </g>
        </g>
    </g>
</svg>