<?xml version="1.0" encoding="UTF-8"?>
<svg width="160px" height="160px" viewBox="0 0 160 160" version="1.1" xmlns="http://www.w3.org/2000/svg" xmlns:xlink="http://www.w3.org/1999/xlink">
    <!-- Generator: Sketch 41 (35326) - http://www.bohemiancoding.com/sketch -->
    <title>home-icon1</title>
    <desc>Created with Sketch.</desc>
    <defs></defs>
    <g id="Page-1" stroke="none" stroke-width="1" fill="none" fill-rule="evenodd">
        <g id="home-icon1">
            <g id="002-happiness" transform="translate(24.000000, 24.000000)">
                <path d="M55.7628968,105.497291 C42.1023096,105.497291 29.711099,99.9601112 20.7139354,91.0138131 C17.1209478,87.4411716 14.0709022,83.3237043 11.6960489,78.7985594 C8.07894724,71.907604 6.02850275,64.0705504 6.02850275,55.7628968 C6.02850275,28.3392378 28.3392378,6.02850275 55.7628968,6.02850275 C68.7705219,6.02850275 80.6255725,11.0502455 89.4972679,19.2542842 C94.0970155,23.5073929 97.895349,28.6150418 100.634173,34.3240339 C103.750155,40.8193689 105.497291,48.0908735 105.497291,55.7628968 C105.497291,83.1865558 83.1865558,105.497291 55.7628968,105.497291 Z" id="Path" fill-opacity="0.4" fill="#5AC8FA"></path>
                <g id="Group" fill="#484848">
                    <path d="M55.7628968,0 C25.0152721,0 0,25.0152721 0,55.7628968 C0,86.5105215 25.0152721,111.525794 55.7628968,111.525794 C86.5105215,111.525794 111.525794,86.5105215 111.525794,55.7628968 C111.525794,25.0152721 86.5108983,0 55.7628968,0 Z M55.7628968,105.497291 C42.1023096,105.497291 29.711099,99.9601112 20.7139354,91.0138131 C17.1209478,87.4411716 14.0709022,83.3237043 11.6960489,78.7985594 C8.07894724,71.907604 6.02850275,64.0705504 6.02850275,55.7628968 C6.02850275,28.3392378 28.3392378,6.02850275 55.7628968,6.02850275 C68.7705219,6.02850275 80.6255725,11.0502455 89.4972679,19.2542842 C94.0970155,23.5073929 97.895349,28.6150418 100.634173,34.3240339 C103.750155,40.8193689 105.497291,48.0908735 105.497291,55.7628968 C105.497291,83.1865558 83.1865558,105.497291 55.7628968,105.497291 Z" id="Shape"></path>
                    <circle id="Oval" cx="37.5522972" cy="43.3291099" r="6.02850275"></circle>
                    <ellipse id="Oval" cx="74.8536579" cy="43.3291099" rx="6.02850275" ry="6.02850275"></ellipse>
                    <path d="M55.6562677,86.6578431 C67.3191598,86.6578431 78.4963807,80.6933932 84.8960131,70.7904471 L79.8324476,67.5184772 C73.9557878,76.6120968 63.2065906,81.6869658 52.4430757,80.4450942 C44.0551677,79.4778963 36.2983686,74.6452978 31.6929693,67.5184772 L26.6297805,70.7904471 C32.2023778,79.414597 41.5940315,85.2622447 51.7520586,86.4340349 C53.0560991,86.5843707 54.3582557,86.6578431 55.6562677,86.6578431 Z" id="Shape"></path>
                </g>
            </g>
        </g>
    </g>
</svg>