<?xml version="1.0" encoding="UTF-8"?>
<svg width="66px" height="66px" viewBox="0 0 66 66" version="1.1" xmlns="http://www.w3.org/2000/svg" xmlns:xlink="http://www.w3.org/1999/xlink">
    <!-- Generator: Sketch 41 (35326) - http://www.bohemiancoding.com/sketch -->
    <title>image-ss-vendor</title>
    <desc>Created with Sketch.</desc>
    <defs></defs>
    <g id="Page-1" stroke="none" stroke-width="1" fill="none" fill-rule="evenodd">
        <g id="image-ss-vendor">
            <g id="Group-15" transform="translate(3.613879, 2.363406)">
                <g id="next-copy" transform="translate(33.906354, 40.017985) scale(-1, 1) translate(-33.906354, -40.017985) translate(9.906354, 19.017985)">
                    <path d="M26.6784489,33.4376718 L26.6784489,25.7931086 C26.6784489,25.4407344 26.5414144,25.1079365 26.2869219,24.8632322 C26.0422176,24.6185278 25.6996316,24.4717052 25.3570455,24.4717052 C20.0322793,24.4717052 15.9506111,24.6185278 11.986401,26.4684926 C8.56054044,28.0639648 5.59472399,30.7752887 2.66806023,35.033144 C2.7855183,31.1472393 3.29450331,26.5076452 5.41853687,22.5825878 C8.78566842,16.3573097 15.3045917,13.2740352 25.3570455,13.1859416 C26.0813703,13.1761535 26.6686607,12.5888631 26.6686607,11.8645383 L26.6686607,4.2101869 L44.3558895,18.804353 L26.6784489,33.4376718 Z" id="Path" fill="#FFFFFF"></path>
                    <path d="M47.2825533,17.7765948 L26.1890402,0.392799387 C25.7975133,0.0697896743 25.2493756,0.0012724625 24.7893315,0.216612271 C24.3292873,0.431952079 24.0356421,0.901784389 24.0356421,1.41076939 L24.0356421,10.5724994 C13.7972131,10.94445 6.75951659,14.5562859 3.09873984,21.3199135 C-0.0530518983,27.1536647 -0.0236873789,34.0641149 0.0056771404,38.6351917 L0.0056771404,39.6923144 C0.0056771404,40.289393 0.406992238,40.8179543 0.994282624,40.9745651 C1.10195253,41.0039296 1.21941061,41.0137178 1.32708051,41.0137178 C1.79691282,41.0137178 2.23738061,40.7690135 2.47229676,40.348122 C9.61766313,27.7507432 15.5003552,27.1438765 24.025854,27.114512 L24.025854,36.2468775 C24.025854,36.7558625 24.3194991,37.2256948 24.7893315,37.4410346 C25.2591638,37.6563744 25.7975133,37.5878572 26.1988284,37.2648475 L47.2825533,19.822323 C47.5859866,19.5678305 47.7621737,19.1958799 47.7621737,18.804353 C47.7621737,18.4128261 47.5859866,18.0310873 47.2825533,17.7765948 Z M26.6784489,33.4376718 L26.6784489,25.7931086 C26.6784489,25.4407344 26.5414144,25.1079365 26.2869219,24.8632322 C26.0422176,24.6185278 25.6996316,24.4717052 25.3570455,24.4717052 C20.0322793,24.4717052 15.9506111,24.6185278 11.986401,26.4684926 C8.56054044,28.0639648 5.59472399,30.7752887 2.66806023,35.033144 C2.7855183,31.1472393 3.29450331,26.5076452 5.41853687,22.5825878 C8.78566842,16.3573097 15.3045917,13.2740352 25.3570455,13.1859416 C26.0813703,13.1761535 26.6686607,12.5888631 26.6686607,11.8645383 L26.6686607,4.2101869 L44.3558895,18.804353 L26.6784489,33.4376718 Z" id="Shape" fill="#484848"></path>
                </g>
                <g id="Group-14" transform="translate(-0.000000, 0.000000)">
                    <path d="M26.906317,33.9173186 L26.906317,26.2727554 C26.906317,25.9203812 26.7692826,25.5875833 26.5147901,25.342879 C26.2700857,25.0981747 25.9274997,24.9513521 25.5849136,24.9513521 C20.2601474,24.9513521 16.1784793,25.0981747 12.2142691,26.9481394 C8.78840856,28.5436116 5.82259211,31.2549355 2.89592835,35.5127908 C3.01338643,31.6268861 3.52237143,26.9872921 5.64640499,23.0622347 C9.01353654,16.8369566 15.5324598,13.753682 25.5849136,13.6655885 C26.3092384,13.6558003 26.8965288,13.0685099 26.8965288,12.3441851 L26.8965288,4.68983373 L44.5837576,19.2839998 L26.906317,33.9173186 Z" id="Path" fill="#5AC8FA"></path>
                    <g id="next" transform="translate(0.227868, 0.479647)" fill="#484848">
                        <path d="M47.2825533,17.7765948 L26.1890402,0.392799387 C25.7975133,0.0697896743 25.2493756,0.0012724625 24.7893315,0.216612271 C24.3292873,0.431952079 24.0356421,0.901784389 24.0356421,1.41076939 L24.0356421,10.5724994 C13.7972131,10.94445 6.75951659,14.5562859 3.09873984,21.3199135 C-0.0530518983,27.1536647 -0.0236873789,34.0641149 0.0056771404,38.6351917 L0.0056771404,39.6923144 C0.0056771404,40.289393 0.406992238,40.8179543 0.994282624,40.9745651 C1.10195253,41.0039296 1.21941061,41.0137178 1.32708051,41.0137178 C1.79691282,41.0137178 2.23738061,40.7690135 2.47229676,40.348122 C9.61766313,27.7507432 15.5003552,27.1438765 24.025854,27.114512 L24.025854,36.2468775 C24.025854,36.7558625 24.3194991,37.2256948 24.7893315,37.4410346 C25.2591638,37.6563744 25.7975133,37.5878572 26.1988284,37.2648475 L47.2825533,19.822323 C47.5859866,19.5678305 47.7621737,19.1958799 47.7621737,18.804353 C47.7621737,18.4128261 47.5859866,18.0310873 47.2825533,17.7765948 Z M26.6784489,33.4376718 L26.6784489,25.7931086 C26.6784489,25.4407344 26.5414144,25.1079365 26.2869219,24.8632322 C26.0422176,24.6185278 25.6996316,24.4717052 25.3570455,24.4717052 C20.0322793,24.4717052 15.9506111,24.6185278 11.986401,26.4684926 C8.56054044,28.0639648 5.59472399,30.7752887 2.66806023,35.033144 C2.7855183,31.1472393 3.29450331,26.5076452 5.41853687,22.5825878 C8.78566842,16.3573097 15.3045917,13.2740352 25.3570455,13.1859416 C26.0813703,13.1761535 26.6686607,12.5888631 26.6686607,11.8645383 L26.6686607,4.2101869 L44.3558895,18.804353 L26.6784489,33.4376718 Z" id="Shape"></path>
                    </g>
                </g>
            </g>
        </g>
    </g>
</svg>