<?xml version="1.0" encoding="UTF-8"?>
<svg width="66px" height="66px" viewBox="0 0 66 66" version="1.1" xmlns="http://www.w3.org/2000/svg" xmlns:xlink="http://www.w3.org/1999/xlink">
    <!-- Generator: Sketch 41 (35326) - http://www.bohemiancoding.com/sketch -->
    <title>image-ss-vendor</title>
    <desc>Created with Sketch.</desc>
    <defs></defs>
    <g id="Page-1" stroke="none" stroke-width="1" fill="none" fill-rule="evenodd">
        <g id="image-ss-vendor">
            <g id="Group-3" transform="translate(2.000000, 2.000000)">
                <g id="007-explore-tool" transform="translate(0.000000, 0.624891)" fill="#484848">
                    <g id="Group">
                        <path d="M30.7052363,0 C13.7744092,0 0,13.7742085 0,30.7049353 C0,47.6359632 13.7744092,61.4104727 30.7052363,61.4104727 C47.6360635,61.4104727 61.4104727,47.6359632 61.4104727,30.7049353 C61.4104727,13.7742085 47.6362642,0 30.7052363,0 Z M30.7052363,57.8640179 C15.7299113,57.8640179 3.5464548,45.680461 3.5464548,30.7049353 C3.5464548,15.7298109 15.7299113,3.5464548 30.7052363,3.5464548 C45.6805614,3.5464548 57.8640179,15.7298109 57.8640179,30.7050356 C57.8640179,45.6805614 45.6805614,57.8640179 30.7052363,57.8640179 Z" id="Shape"></path>
                        <path d="M47.6101748,14.5231754 C47.1462849,13.6603181 46.0713006,13.3373111 45.208644,13.8010003 L25.2505414,24.5325807 C24.9441914,24.6973454 24.6930306,24.9484059 24.5283663,25.2548562 L13.8011006,45.2085436 C13.4216,45.914463 13.5694065,46.7627705 14.108454,47.3018179 C14.2279636,47.4215282 14.3667393,47.5257855 14.5235768,47.6098737 C15.056704,47.8965563 15.6711097,47.8818057 16.1720265,47.625427 L16.1723276,47.6258284 L16.1798534,47.6218147 C16.1870781,47.6181019 16.1942025,47.6140882 16.201327,47.6102751 L36.1692632,36.8865215 C36.4757135,36.7219575 36.726774,36.470897 36.8917394,36.1643464 L47.5760578,16.2600281 C47.599438,16.2197902 47.6217143,16.1791509 47.6417831,16.1374079 L47.6562326,16.1106161 L47.6544264,16.110014 C47.8815047,15.6206367 47.8852174,15.034829 47.6101748,14.5231754 Z M19.7078449,41.7113577 L26.5245077,29.0318009 L32.3863982,34.8938921 L19.7078449,41.7113577 Z M34.895598,32.3874016 L29.0334065,26.5252101 L41.7119598,19.7078449 L34.895598,32.3874016 Z" id="Shape"></path>
                    </g>
                </g>
                <g id="Group-2" transform="translate(28.469787, 8.347927)" fill="#5AC8FA">
                    <circle id="Oval" cx="2.23537894" cy="2.29208018" r="2.22479188"></circle>
                    <ellipse id="Oval-Copy" cx="2.23537894" cy="46.4505192" rx="2.22479188" ry="2.22479188"></ellipse>
                </g>
                <g id="Group-2-Copy" transform="translate(30.243582, 32.932881) rotate(-270.000000) translate(-30.243582, -32.932881) translate(27.743582, 8.432881)" fill="#5AC8FA">
                    <ellipse id="Oval" cx="2.23537894" cy="2.29208018" rx="2.22479188" ry="2.22479188"></ellipse>
                    <ellipse id="Oval-Copy" cx="2.23537894" cy="46.4505192" rx="2.22479188" ry="2.22479188"></ellipse>
                </g>
            </g>
        </g>
    </g>
</svg>