<?xml version="1.0" encoding="UTF-8"?>
<svg width="66px" height="66px" viewBox="0 0 66 66" version="1.1" xmlns="http://www.w3.org/2000/svg" xmlns:xlink="http://www.w3.org/1999/xlink">
    <!-- Generator: Sketch 41 (35326) - http://www.bohemiancoding.com/sketch -->
    <title>image-ss-vendor</title>
    <desc>Created with Sketch.</desc>
    <defs></defs>
    <g id="Page-1" stroke="none" stroke-width="1" fill="none" fill-rule="evenodd">
        <g id="image-ss-vendor">
            <g id="Group-20" transform="translate(2.000000, 5.000000)">
                <path d="M58.1929022,37.9806382 L46.9973289,49.7194937 L35.7555656,37.9608425 C35.4982213,37.6925006 35.2760695,37.4065626 35.0803119,37.1074274 C35.0143262,37.0084489 34.9659367,36.9028718 34.9087491,36.8016937 C34.7899749,36.597138 34.6777992,36.3925824 34.5854192,36.1792286 C34.5304311,36.0538558 34.4908397,35.9218844 34.4468492,35.7943121 C34.378664,35.5985545 34.3170774,35.4005974 34.2708874,35.2004408 C34.2378945,35.0596713 34.2158993,34.9189018 34.1939041,34.7781323 C34.1653103,34.5845743 34.1455145,34.3888167 34.1367165,34.1952587 C34.1301179,34.0500901 34.1257188,33.9027221 34.1323174,33.7575535 C34.138916,33.566195 34.1587117,33.3748365 34.185106,33.183478 C34.2049017,33.0383094 34.2224979,32.8931409 34.2532912,32.7479724 C34.2950821,32.5544143 34.3566688,32.3652553 34.420455,32.1782958 C34.4644454,32.0441249 34.4996378,31.9077545 34.5546259,31.7779826 C34.6470058,31.5558308 34.7679796,31.3446765 34.8911529,31.1335223 C34.941742,31.0455414 34.9791339,30.9509619 35.0363215,30.8651805 C35.2364781,30.5638458 35.4652285,30.2757082 35.7313708,30.0073664 C36.7167572,29.0153814 38.1398488,28.4677001 39.7345031,28.4677001 C41.2411765,28.4677001 42.5960829,28.9515952 43.555075,29.8270055 L46.9269441,32.9041385 L50.3494023,29.9017893 C52.6061131,27.9288169 56.237526,28.0739855 58.2060993,29.9765731 C60.3946249,32.1870939 60.3902259,35.6997326 58.1929022,37.9806382 Z" id="Path" fill="#FF2D55"></path>
                <g id="005-user" transform="translate(0.000000, 0.138538)" fill="#484848">
                    <path d="M19.5077153,0.0512517173 C12.4733563,0.0512517173 6.77008467,5.71760272 6.77008467,12.705325 C6.77008467,19.6930473 12.4733563,25.3593983 19.5077153,25.3593983 C26.5420742,25.3593983 32.2453458,19.6930473 32.2453458,12.705325 C32.2453458,5.71760272 26.5420742,0.0512517173 19.5077153,0.0512517173 Z M19.5077153,21.4749553 C14.6283575,21.4749553 10.6564708,17.5419326 10.6564708,12.7072682 C10.6564708,7.87260383 14.6264143,3.93958106 19.5077153,3.93958106 C24.3870731,3.93958106 28.3589597,7.87260383 28.3589597,12.7072682 C28.3589597,17.5419326 24.3890163,21.4749553 19.5077153,21.4749553 Z" id="Shape"></path>
                    <path d="M59.5782996,28.2819607 C57.9265855,26.6807696 55.7094022,25.7985599 53.3387067,25.7985599 C51.1059778,25.7985599 49.034534,26.5758372 47.3458992,28.0526639 L46.9319991,28.416041 L46.5239285,28.0448911 C44.9596581,26.6127578 42.8318617,25.8238214 40.5272347,25.8238214 C38.0729819,25.8238214 35.8383098,26.7157471 34.229346,28.3363701 C33.8329346,28.738611 33.4909326,29.1719431 33.1858513,29.6227639 C30.3371303,28.3013926 27.5136707,28.24504 27.5136707,28.24504 L11.5017598,28.24504 C11.5017598,28.24504 0,28.3732908 0,38.9053972 L0,51.7693353 L39.0134873,51.7693353 L39.0134873,45.8192782 L46.9456014,54.1167126 L59.6385386,40.80584 C63.0488424,37.2653423 63.0352401,31.7758218 59.5782996,28.2819607 Z M35.1290444,47.8829492 L35.1290444,47.8829492 L3.88832934,47.8829492 L3.88832934,38.9053972 C3.88832934,32.6347132 10.2872641,32.1625172 11.503703,32.1314262 L27.4786932,32.1314262 C27.9450596,32.1411421 29.952378,32.2499609 31.7945251,33.2137847 C31.3883977,35.8681864 32.1734477,38.6741572 34.2079709,40.7902945 L35.1290444,41.7541183 L35.1290444,47.8829492 L35.1290444,47.8829492 Z M56.834511,38.1145176 L46.9436583,48.4853391 L37.0119985,38.0970289 C36.7846449,37.8599593 36.5883824,37.6073442 36.4154382,37.34307 C36.3571424,37.2556263 36.3143921,37.162353 36.2638691,37.0729661 C36.1589367,36.8922492 36.0598339,36.7115322 35.9782197,36.5230425 C35.9296399,36.4122805 35.8946624,36.2956889 35.8557986,36.1829837 C35.7955596,36.0100395 35.7411502,35.8351522 35.7003431,35.6583216 C35.6711952,35.5339572 35.6517633,35.4095929 35.6323314,35.2852285 C35.6070699,35.1142275 35.5895811,34.9412833 35.5818084,34.7702823 C35.5759788,34.6420316 35.5720924,34.5118377 35.577922,34.3835869 C35.5837515,34.2145291 35.6012403,34.0454713 35.6245586,33.8764135 C35.6420473,33.7481628 35.6575929,33.619912 35.6847976,33.4916613 C35.7217183,33.3206603 35.7761277,33.1535457 35.8324803,32.9883743 C35.8713441,32.8698395 35.9024352,32.7493616 35.951015,32.6347132 C36.0326291,32.4384507 36.1395048,32.2519041 36.2483236,32.0653576 C36.293017,31.9876299 36.3260513,31.9040726 36.3765743,31.828288 C36.5534049,31.5620706 36.755497,31.3075123 36.9906233,31.0704427 C37.8611738,30.1940627 39.1184197,29.7102076 40.5272347,29.7102076 C41.858322,29.7102076 43.0553289,30.1377101 43.9025611,30.9111009 L46.8814761,33.629628 L49.9050845,30.9771695 C51.8988006,29.2341253 55.1070123,29.362376 56.8461701,31.043238 C58.7796473,32.9961471 58.7757609,36.0994264 56.834511,38.1145176 Z" id="Shape"></path>
                </g>
            </g>
        </g>
    </g>
</svg>