<?xml version="1.0" encoding="UTF-8"?>
<svg width="130px" height="130px" viewBox="0 0 130 130" version="1.1" xmlns="http://www.w3.org/2000/svg" xmlns:xlink="http://www.w3.org/1999/xlink">
    <!-- Generator: Sketch 41 (35326) - http://www.bohemiancoding.com/sketch -->
    <title>money-back</title>
    <desc>Created with Sketch.</desc>
    <defs></defs>
    <g id="Page-1" stroke="none" stroke-width="1" fill="none" fill-rule="evenodd">
        <g id="money-back">
            <g id="Group" transform="translate(13.500000, 12.443827)">
                <g id="Group-3">
                    <path d="M98.9773851,54.0035836 C98.0991039,52.80398 98.0776824,51.154525 98.9559636,49.9334999 L100.77679,47.3414993 C102.212031,45.3064575 102.726146,42.7358783 102.147766,40.2938281 C101.569386,37.8517779 99.9841953,35.7738931 97.7777815,34.595711 L94.9929874,33.0962065 C93.6648548,32.3892973 92.9579456,30.9326357 93.193582,29.4545527 L93.7076978,26.3270148 C94.1147062,23.8635431 93.4506399,21.3358069 91.8868709,19.3864511 C90.3016805,17.4370952 87.9667377,16.2589131 85.4818446,16.1518056 L82.3114636,16.0446982 C80.8119591,15.9804337 79.5266695,14.9736235 79.1196612,13.5383835 L78.24138,10.4965315 C77.1703053,6.79061325 73.721445,4.19861261 69.8441548,4.19861261 C68.6659726,4.19861261 67.4877905,4.43424903 66.3952944,4.90552187 L63.4819714,6.14796846 C62.1324173,6.72634877 60.4829624,6.36218339 59.5189952,5.26968725 L57.3982674,2.91332303 C55.7488124,1.07107464 53.3710267,0 50.907555,0 C48.3798189,0 45.9806117,1.09249614 44.3097352,2.99900901 L42.2532719,5.4196377 C41.2893047,6.53355533 39.6612713,6.9191422 38.2902957,6.36218339 L35.3555512,5.16257979 C34.2844765,4.73414993 33.1705589,4.49851351 32.0352198,4.49851351 C28.1150866,4.49851351 24.6448047,7.13335713 23.6165731,10.9249614 L22.7811349,13.9668134 C22.395548,15.4020534 21.1102584,16.430285 19.6321754,16.515971 L16.483216,16.7087645 C13.9769013,16.8587149 11.6633801,18.0583185 10.1210326,20.0290959 C8.57868507,21.9998732 7.95746178,24.5276094 8.40731313,26.991081 L8.98569344,30.0971975 C9.26417285,31.5752805 8.55726358,33.0533635 7.25055251,33.7816943 L4.48717993,35.3240418 C2.30218766,36.5450669 0.738418674,38.6443732 0.202881352,41.0864234 C-0.332655971,43.5284736 0.202881352,46.0990527 1.68096436,48.112673 L3.54463424,50.6618307 C4.42291545,51.8614343 4.44433694,53.5108892 3.56605574,54.7319143 L1.74522884,57.323915 C0.309988816,59.3589568 -0.204127013,61.929536 0.374253295,64.3715861 C0.952633603,66.8136363 2.53782408,68.8700997 4.74423785,70.0697033 L7.52903192,71.5692078 C8.85716448,72.276117 9.56407375,73.7327785 9.32843732,75.2108616 L8.7929,78.3383995 C8.38589164,80.8018712 9.04995792,83.3296074 10.6137269,85.2789632 C12.1989174,87.2283191 14.5338601,88.4065012 17.0187533,88.5136086 L20.1891342,88.6421376 C21.6886387,88.7064021 22.9739283,89.7132122 23.3809367,91.1484523 L24.2592179,94.1903043 C25.3302925,97.8962225 28.7791529,100.488223 32.6564431,100.488223 L32.6564431,100.488223 C33.8346252,100.488223 35.0128073,100.252587 36.1053034,99.7813139 L39.0186265,98.5388673 C40.3681805,97.960487 42.0176355,98.3246524 42.9816027,99.4171485 L45.1023305,101.773513 C46.7517854,103.615761 49.1295711,104.665414 51.5930428,104.665414 C54.120779,104.665414 56.5199862,103.572918 58.1908626,101.666405 L60.2473259,99.2457766 C61.2112931,98.1318589 62.8393266,97.7462721 64.2103021,98.3032309 L67.1450466,99.5028345 C68.2161213,99.9312644 69.3300389,100.166901 70.465378,100.166901 C74.3855112,100.166901 77.8557931,97.5320571 78.8840248,93.7404529 L79.719463,90.6986009 C80.1050498,89.2633609 81.3903394,88.2351292 82.8684224,88.1494433 L86.0173819,87.9780713 C88.5236966,87.8281209 90.8372178,86.6285173 92.3795653,84.6577399 C93.9219128,82.6869626 94.5431361,80.1592264 94.0932847,77.6957547 L93.5149044,74.5896383 C93.236425,73.1115552 93.9433343,71.6334722 95.2500453,70.926563 L98.0134179,69.3842155 C100.19841,68.1631904 101.762179,66.0638841 102.297716,63.6218339 C102.833254,61.1797837 102.297716,58.6092046 100.819633,56.5955842 L98.9773851,54.0035836 Z M97.1994012,62.4650733 C96.9851862,63.450462 96.363963,64.2644787 95.4856817,64.757173 L92.7223092,66.2995205 C89.4448207,68.1203474 87.6882583,71.8262657 88.3737461,75.5107625 L88.9521264,78.6168789 C89.1449198,79.6022676 88.8878619,80.6090778 88.2666386,81.401673 C87.6454153,82.1942682 86.7457126,82.6655411 85.7389025,82.7298056 L82.589943,82.9011775 C78.8411818,83.1153924 75.6708008,85.6859716 74.6639907,89.3062039 L73.8285524,92.3480559 C73.4215441,93.8689819 72.029147,94.918635 70.465378,94.918635 C70.0155267,94.918635 69.5656753,94.832949 69.1372455,94.6615771 L66.202501,93.4619735 C65.1314263,93.0335436 64.0175087,92.7979072 62.8821696,92.7979072 C60.3544334,92.7979072 57.9552262,93.8904034 56.2843497,95.7969162 L54.2064649,98.1747019 C53.5423987,98.9458757 52.599853,99.3743055 51.5716213,99.3743055 C50.5648111,99.3743055 49.643687,98.9672972 48.9796207,98.2175449 L46.8588929,95.8611807 C45.2094379,94.0189323 42.8316522,92.9478577 40.346759,92.9478577 C39.1471554,92.9478577 37.9903948,93.1834941 36.8978987,93.6547669 L33.9845756,94.8972135 C33.5347243,95.090007 33.0848729,95.1756929 32.6136001,95.1756929 C31.0712526,95.1756929 29.7002771,94.1474613 29.2718472,92.6693783 L28.393566,89.6275263 C27.3439128,86.0287155 24.1306889,83.5009793 20.3819277,83.3296074 L17.2115467,83.2010784 C16.2047365,83.1582354 15.2836123,82.7083841 14.6623891,81.9157888 C14.0197443,81.1231936 13.7626864,80.1378049 13.9340583,79.1524162 L14.4695956,76.0248783 C15.0908189,72.31896 13.2914135,68.6558847 9.97108211,66.8779008 L7.18628804,65.3783963 C6.28658533,64.9071235 5.66536204,64.0931067 5.45114711,63.1077181 C5.21551069,62.1223294 5.40830412,61.1155192 5.98668443,60.3015025 L7.80751133,57.7095019 C9.97108211,54.6462284 9.94966062,50.5547232 7.72182536,47.5128712 L5.85815548,44.9637136 C5.25835367,44.1496969 5.04413875,43.1428867 5.27977517,42.157498 C5.4939901,41.1721093 6.11521339,40.3580926 6.9934946,39.8653983 L9.75686718,38.3230508 C13.0343556,36.5022239 14.790918,32.7963056 14.1054302,29.1118088 L13.5484714,26.0485354 C13.355678,25.0417252 13.6127359,24.0563365 14.2339592,23.2637413 C14.8551825,22.471146 15.7548852,21.9998732 16.7616954,21.9356087 L19.9106548,21.7428153 C23.6594161,21.5286004 26.829797,18.9580212 27.8366072,15.3377889 L28.6720454,12.2745154 C29.0790538,10.7750109 30.4714508,9.70393628 32.0352198,9.70393628 C32.4850711,9.70393628 32.9349225,9.78962225 33.3633524,9.9609942 L36.2980969,11.1605978 C37.3691715,11.5890277 38.4830892,11.8246641 39.6184283,11.8246641 C42.1461644,11.8246641 44.5453716,10.7321679 46.2162481,8.82565507 L48.2941329,6.44786936 C48.9581992,5.67669562 49.9007449,5.24826576 50.9289765,5.24826576 C51.9357867,5.24826576 52.8569109,5.65527412 53.5209772,6.40502638 L55.641705,8.76139059 C57.2911599,10.603639 59.6689456,11.6747136 62.1538388,11.6747136 C63.3534424,11.6747136 64.510203,11.4390772 65.6026992,10.9678044 L68.5160222,9.72535777 C68.9658735,9.53256434 69.4157249,9.44687837 69.8869977,9.44687837 C71.4293452,9.44687837 72.8003208,10.47511 73.2287506,11.953193 L74.1070318,14.995045 C75.156685,18.5938558 78.3699089,21.121592 82.1186702,21.2929639 L85.2890511,21.4214929 C86.2958613,21.4643359 87.2169855,21.9141872 87.8382088,22.7067825 C88.4808536,23.4993777 88.7379115,24.4847664 88.5665395,25.4701551 L88.0524237,28.597693 C87.4312004,32.3036113 89.2306058,35.9666866 92.5509372,37.7446705 L95.3357313,39.244175 C96.235434,39.7154478 96.8566573,40.5294646 97.0922937,41.5148532 C97.3279301,42.5002419 97.1351367,43.5070521 96.5567564,44.3210688 L94.7359295,46.9130694 C92.5723587,49.9763429 92.5937802,54.0678481 94.8216155,57.1097001 L96.6852853,59.6588577 C97.1994012,60.4728744 97.4136161,61.4582631 97.1994012,62.4650733 Z" id="Shape" fill="#DDDDDD"></path>
                    <g id="Group-2" transform="translate(5.000000, 29.332707)">
                        <text id="30-days" font-family="CircularStd-Bold, Circular Std" font-size="20" font-weight="bold" fill="#484848">
                            <tspan x="11.6720554" y="29.1450239">30 days</tspan>
                        </text>
                        <text id="Money-Back" font-family="CircularStd-Book, Circular Std" font-size="10" font-weight="300" letter-spacing="1.11111116" fill="#484848">
                            <tspan x="13.8164996" y="10.1270239">Money-Back</tspan>
                        </text>
                        <text id="Guaranteed" font-family="CircularStd-Book, Circular Std" font-size="10" font-weight="300" letter-spacing="1.11111116" fill="#FF2D55">
                            <tspan x="15.4314996" y="42.1450239">Guaranteed</tspan>
                        </text>
                    </g>
                </g>
            </g>
        </g>
    </g>
</svg>