<?xml version="1.0" encoding="UTF-8"?>
<svg width="136px" height="136px" viewBox="0 0 136 136" version="1.1" xmlns="http://www.w3.org/2000/svg" xmlns:xlink="http://www.w3.org/1999/xlink">
    <!-- Generator: Sketch 41 (35326) - http://www.bohemiancoding.com/sketch -->
    <title>open</title>
    <desc>Created with Sketch.</desc>
    <defs></defs>
    <g id="Page-1" stroke="none" stroke-width="1" fill="none" fill-rule="evenodd">
        <g id="open">
            <ellipse id="Oval-2" stroke="#484848" stroke-width="8" fill-opacity="0.5" fill="#5AC8FA" cx="68" cy="68" rx="54.8825768" ry="56.0055402"></ellipse>
            <g id="group" transform="translate(47.906113, 46.127203)">
                <g id="Group"></g>
            </g>
            <path d="M96.4446195,93.6373182 L41.8194805,93.6373182 L41.8194805,67.275567 L49.6979541,67.275567 C49.7139324,67.275869 49.7299106,67.275869 49.7460369,67.275567 L85.6902042,67.275567 C85.7063304,67.27602 85.7229004,67.27602 85.7393226,67.275567 L96.4444715,67.275567 L96.4444715,93.6373182 L96.4446195,93.6373182 Z" id="Path" fill="#FFFFFF"></path>
            <path d="M51.936836,72.5101435 L48.5444113,72.5101435 C46.7069096,72.5101435 45.2119052,74.0355866 45.2119052,75.9108368 L45.2119052,85.0018975 C45.2119052,86.8771477 46.7067617,88.4025908 48.5444113,88.4025908 L51.936836,88.4025908 C53.7744857,88.4025908 55.2694901,86.8771477 55.2694901,85.0018975 L55.2694901,75.9108368 C55.2694901,74.0357375 53.7744857,72.5101435 51.936836,72.5101435 L51.936836,72.5101435 Z M52.3105501,85.0018975 C52.3105501,85.2085812 52.1393755,85.3831073 51.936836,85.3831073 L48.5444113,85.3831073 C48.3418719,85.3831073 48.1708452,85.2085812 48.1708452,85.0018975 L48.1708452,75.9108368 C48.1708452,75.7041531 48.3418719,75.529627 48.5444113,75.529627 L51.936836,75.529627 C52.1393755,75.529627 52.3105501,75.7041531 52.3105501,75.9108368 L52.3105501,85.0018975 L52.3105501,85.0018975 Z M85.5142952,73.2795079 L89.84426,81.1315236 L89.84426,74.0200362 C89.84426,73.1863568 90.5067667,72.5102945 91.32373,72.5102945 C92.1406933,72.5102945 92.8032,73.1863568 92.8032,74.0200362 L92.8032,86.893151 C92.8032,87.5796305 92.3494465,88.1796019 91.6987756,88.3536751 C91.5739084,88.3870404 91.4480055,88.4030437 91.3235821,88.4030437 C90.798814,88.4030437 90.3009724,88.1169476 90.0343719,87.6335283 L85.7044071,79.7815126 L85.7044071,86.893 C85.7044071,87.7266794 85.0419004,88.4027417 84.2249371,88.4027417 C83.4079738,88.4027417 82.7454671,87.7266794 82.7454671,86.893 L82.7454671,74.0198853 C82.7454671,73.3334057 83.1992205,72.7334343 83.8498914,72.5593611 C84.50145,72.3855898 85.1845213,72.6814992 85.5142952,73.2795079 Z M97.9240895,64.2560836 L86.5358692,64.2560836 L69.0784192,35.5879 C68.8091557,35.1458476 68.3357253,34.8763587 67.825604,34.8749999 L67.8217574,34.8749999 C67.3131156,34.8749999 66.8399811,35.1417713 66.5692381,35.5814081 L48.9059938,64.2560836 L40.3400105,64.2560836 C39.5228992,64.2560836 38.8605405,64.9321459 38.8605405,65.7658253 L38.8605405,95.146909 C38.8605405,95.9805884 39.5228992,96.6566507 40.3400105,96.6566507 L97.9240895,96.6566507 C98.7410528,96.6566507 99.4035595,95.9805884 99.4035595,95.146909 L99.4035595,65.7658253 C99.4035595,64.9321459 98.7410528,64.2560836 97.9240895,64.2560836 L97.9240895,64.2560836 Z M67.814508,39.2333223 L83.0521612,64.2560836 L52.4007978,64.2560836 L67.814508,39.2333223 Z M96.4446195,93.6373182 L41.8194805,93.6373182 L41.8194805,67.275567 L49.6979541,67.275567 C49.7139324,67.275869 49.7299106,67.275869 49.7460369,67.275567 L85.6902042,67.275567 C85.7063304,67.27602 85.7229004,67.27602 85.7393226,67.275567 L96.4444715,67.275567 L96.4444715,93.6373182 L96.4446195,93.6373182 Z M64.2908543,72.5101435 L59.202957,72.5101435 C58.3858457,72.5101435 57.723487,73.1862059 57.723487,74.0198853 L57.7233391,86.893 C57.7233391,87.7266794 58.3856978,88.4027417 59.2028091,88.4027417 C60.0197724,88.4027417 60.682279,87.7266794 60.682279,86.893 L60.682279,83.7388476 L62.7520576,83.7388476 C65.5250282,83.7388476 67.780924,81.4367934 67.780924,78.6072355 L67.780924,76.0714733 C67.781072,74.1077522 66.2153489,72.5101435 64.2908543,72.5101435 L64.2908543,72.5101435 Z M64.822132,78.6072355 C64.822132,79.7718502 63.8936166,80.7193641 62.7522055,80.7193641 L60.682427,80.7193641 L60.682427,75.529627 L64.2908543,75.529627 C64.5787592,75.529627 64.821984,75.7778285 64.821984,76.0714733 L64.821984,78.6072355 L64.822132,78.6072355 Z M73.1937129,75.529627 L73.1937129,78.9467764 L75.2652668,78.9467764 C76.0822301,78.9467764 76.7447368,79.6228387 76.7447368,80.4565181 C76.7447368,81.2901975 76.0822301,81.9662598 75.2652668,81.9662598 L73.1937129,81.9662598 L73.1937129,85.3832583 L78.8128879,85.3832583 C79.6298512,85.3832583 80.2923579,86.0593206 80.2923579,86.893 C80.2923579,87.7266794 79.6298512,88.4027417 78.8128879,88.4027417 L71.7142429,88.4027417 C70.8972796,88.4027417 70.2347729,87.7266794 70.2347729,86.893 L70.2347729,74.0198853 C70.2347729,73.1862059 70.8972796,72.5101435 71.7142429,72.5101435 L78.8128879,72.5101435 C79.6298512,72.5101435 80.2923579,73.1862059 80.2923579,74.0198853 C80.2923579,74.8535646 79.6298512,75.529627 78.8128879,75.529627 L73.1937129,75.529627 Z" id="Shape" fill="#484848"></path>
        </g>
    </g>
</svg>