<?xml version="1.0" encoding="UTF-8"?>
<svg width="24px" height="24px" viewBox="0 0 24 24" version="1.1" xmlns="http://www.w3.org/2000/svg" xmlns:xlink="http://www.w3.org/1999/xlink">
    <!-- Generator: Sketch 41 (35326) - http://www.bohemiancoding.com/sketch -->
    <title>pin</title>
    <desc>Created with Sketch.</desc>
    <defs></defs>
    <g id="Page-1" stroke="none" stroke-width="1" fill="none" fill-rule="evenodd">
        <g id="pin" fill="#484848">
            <path d="M15.2857265,8.85715103 C15.2857265,10.7455461 13.7455461,12.2857265 11.857151,12.2857265 C9.96875592,12.2857265 8.42857552,10.7455461 8.42857552,8.85715103 C8.42857552,6.96875592 9.96875592,5.42857552 11.857151,5.42857552 C13.7455461,5.42857552 15.2857265,6.96875592 15.2857265,8.85715103 Z M18.7143021,8.85715103 C18.7143021,5.06696794 15.6473341,2 11.857151,2 C8.06696794,2 5,5.06696794 5,8.85715103 C5,9.67411629 5.09375011,10.5178673 5.44196481,11.2544753 L10.3303635,21.6205591 C10.598221,22.2098455 11.2142931,22.5714531 11.857151,22.5714531 C12.5000089,22.5714531 13.1160811,22.2098455 13.3973314,21.6205591 L18.2723373,11.2544753 C18.620552,10.5178673 18.7143021,9.67411629 18.7143021,8.85715103 Z" id="ï"></path>
        </g>
    </g>
</svg>