<?xml version="1.0" encoding="UTF-8"?>
<svg width="63px" height="60px" viewBox="0 0 63 60" version="1.1" xmlns="http://www.w3.org/2000/svg" xmlns:xlink="http://www.w3.org/1999/xlink">
    <!-- Generator: Sketch 41 (35326) - http://www.bohemiancoding.com/sketch -->
    <title>promokit01</title>
    <desc>Created with Sketch.</desc>
    <defs></defs>
    <g id="Page-1" stroke="none" stroke-width="1" fill="none" fill-rule="evenodd">
        <g id="promokit01">
            <g id="Group-17" transform="translate(2.000000, 1.000000)">
                <path d="M33.1828099,32.9461813 C32.4903514,33.4944785 31.6327584,33.7980124 30.726305,33.7980124 C28.5371497,33.7981277 26.7561635,32.0171415 26.7561635,29.8281014 C26.7561635,27.6389461 28.5371497,25.8579598 30.726305,25.8579598 C31.6327584,25.8579598 32.4902362,26.1616091 33.1828099,26.709791 C32.6969712,27.6441317 32.4207483,28.7040807 32.4207483,29.8278709 C32.4207483,30.9517764 32.6970864,32.0117253 33.1828099,32.9461813 Z" id="Path" fill="#F2F2F2"></path>
                <path d="M39.2048596,33.7975515 C37.0161653,33.7975515 35.2355247,32.0167957 35.2355247,29.8279861 C35.2355247,27.6392918 37.0162805,25.8586513 39.2048596,25.8586513 C41.393554,25.8586513 43.1741945,27.639407 43.1741945,29.8279861 C43.1741945,32.016911 41.393554,33.7975515 39.2048596,33.7975515 Z" id="Path" fill="#5AC8FA"></path>
                <g id="001-credit-card" transform="translate(0.000000, 0.426214)" fill="#484848">
                    <path d="M54.0756049,13.4254441 L48.0717626,13.4254441 L48.0717626,4.95069229 C48.0717626,2.23467389 45.8620951,0.0250064064 43.1460767,0.0250064064 L4.92568588,0.0250064064 C2.20966748,0.0251216433 0,2.23478912 0,4.95080753 L0,27.0516309 C0,29.7676493 2.20966748,31.9773167 4.92568588,31.9773167 L10.9297586,31.9773167 L10.9297586,40.4525295 C10.9297586,43.1685479 13.1394261,45.3782154 15.8554445,45.3782154 L54.0756049,45.3782154 C56.7916233,45.3782154 59.0012908,43.1685479 59.0012908,40.4525295 L59.0012908,18.35113 C59.0012908,15.6351116 56.7916233,13.4254441 54.0756049,13.4254441 Z M2.81466119,4.95080753 C2.81466119,3.78679964 3.761678,2.83978283 4.92568588,2.83978283 L43.1460767,2.83978283 C44.3100846,2.83978283 45.2571014,3.78679964 45.2571014,4.95080753 L45.2571014,6.91571184 L2.81466119,6.91571184 L2.81466119,4.95080753 Z M10.9297586,18.35113 L10.9297586,29.1625403 L4.92568588,29.1625403 C3.761678,29.1625403 2.81466119,28.2155235 2.81466119,27.0515156 L2.81466119,16.2488633 L11.4021147,16.2488633 C11.0996178,16.8868147 10.9297586,17.5995549 10.9297586,18.35113 Z M2.81466119,13.4342021 L2.81466119,9.73048826 L45.2571014,9.73048826 L45.2571014,13.4254441 L15.8554445,13.4254441 C15.7602588,13.4254441 15.6659951,13.428786 15.5721922,13.4342021 L2.81466119,13.4342021 Z M54.0756049,42.5635542 L15.8554445,42.5635542 C14.6914366,42.5635542 13.7444198,41.6165374 13.7444198,40.4525295 L13.7444198,18.35113 C13.7444198,17.2452015 14.5997081,16.3369043 15.6831654,16.2488633 L46.6640287,16.2488633 C46.7160005,16.2488633 46.7670505,16.2456367 46.817409,16.2401053 L54.0754896,16.2401053 C55.2394975,16.2401053 56.1865143,17.1871221 56.1865143,18.35113 L56.1865143,40.4525295 L56.1866296,40.4525295 C56.1866296,41.6165374 55.2396128,42.5635542 54.0756049,42.5635542 Z" id="Shape"></path>
                    <path d="M39.2048596,22.6177761 C37.6039887,22.6177761 36.1319526,23.1763293 34.9704799,24.1070977 C33.779737,23.1478658 32.2959468,22.6169694 30.7264202,22.6169694 C26.9852544,22.6169694 23.9416175,25.6606063 23.9416175,29.4017721 C23.9416175,33.142938 26.9852544,36.1865748 30.7264202,36.1865748 C32.296062,36.1865748 33.779737,35.6556785 34.9704799,34.696677 C36.1319526,35.6274454 37.6039887,36.1861139 39.2048596,36.1861139 C42.9456797,36.1861139 45.9889709,33.1427075 45.9889709,29.4018874 C45.9889709,25.6610672 42.9456797,22.6177761 39.2048596,22.6177761 Z M33.1828099,32.5199673 C32.4903514,33.0682644 31.6327584,33.3717984 30.726305,33.3717984 C28.5371497,33.3719137 26.7561635,31.5909274 26.7561635,29.4018874 C26.7561635,27.212732 28.5371497,25.4317458 30.726305,25.4317458 C31.6327584,25.4317458 32.4902362,25.735395 33.1828099,26.283577 C32.6969712,27.2179177 32.4207483,28.2778667 32.4207483,29.4016569 C32.4207483,30.5255623 32.6970864,31.5855113 33.1828099,32.5199673 Z M39.2048596,33.3713375 C37.0161653,33.3713375 35.2355247,31.5905817 35.2355247,29.4017721 C35.2355247,27.2130778 37.0162805,25.4324372 39.2048596,25.4324372 C41.393554,25.4324372 43.1741945,27.213193 43.1741945,29.4017721 C43.1741945,31.590697 41.393554,33.3713375 39.2048596,33.3713375 Z" id="Shape"></path>
                </g>
            </g>
        </g>
    </g>
</svg>