<?xml version="1.0" encoding="UTF-8"?>
<svg width="63px" height="60px" viewBox="0 0 63 60" version="1.1" xmlns="http://www.w3.org/2000/svg" xmlns:xlink="http://www.w3.org/1999/xlink">
    <!-- Generator: Sketch 41 (35326) - http://www.bohemiancoding.com/sketch -->
    <title>promokit01</title>
    <desc>Created with Sketch.</desc>
    <defs></defs>
    <g id="Page-1" stroke="none" stroke-width="1" fill="none" fill-rule="evenodd">
        <g id="promokit01">
            <g id="Group-3" transform="translate(1.000000, 1.000000)">
                <path d="M51.7869308,36.2101564 L43.826102,36.2101564 L43.826102,36.2100375 L38.1590351,30.5429706 L42.3703472,26.3315397 L51.4781163,35.4381201 C51.5717829,35.5317867 51.6761475,35.6080989 51.7868119,35.6682452 L51.7868119,36.2101564 L51.7869308,36.2101564 Z" id="Path" fill="#DDDDDD"></path>
                <polygon id="Path" fill="#5AC8FA" points="9.07258473 36.2100375 9.07258473 34.0591529 23.4746563 19.6585077 40.0260672 36.2100375 9.07258473 36.2100375"></polygon>
                <g id="004-image" transform="translate(0.000000, 0.029769)" fill="#484848">
                    <path d="M58.172663,0.101749503 L2.68685252,0.101749503 C1.20530369,0.101749503 0,1.30705319 0,2.78860202 L0,47.6106843 C0,49.0922331 1.20530369,50.2975368 2.68685252,50.2975368 L58.172663,50.2975368 C59.6542119,50.2975368 60.8595155,49.0922331 60.8595155,47.6106843 L60.8595155,2.78860202 C60.8595155,1.30705319 59.6542119,0.101749503 58.172663,0.101749503 Z M58.172663,47.6106843 L2.68697138,47.6124673 C2.68697138,47.6124673 2.68685252,47.611873 2.68685252,47.6106843 L2.68685252,2.78860202 L58.172663,2.78860202 L58.172663,47.6106843 Z" id="Shape"></path>
                    <path d="M53.1302382,6.48771945 L7.72915847,6.48771945 C6.98731426,6.48771945 6.38573222,7.0893015 6.38573222,7.83114571 L6.38573222,37.5239328 C6.38573222,38.265777 6.98731426,38.8672402 7.72915847,38.8672402 L53.1301193,38.8672402 C53.8719636,38.8672402 54.4735456,38.2656581 54.4735456,37.5238139 L54.4735456,7.83114571 C54.4736645,7.0893015 53.8720824,6.48771945 53.1302382,6.48771945 Z M9.07258473,9.17457197 L51.7866931,9.17457197 L51.7866931,31.9177254 L43.3200884,23.4520717 C42.7956506,22.9276338 41.9450438,22.9276338 41.4202493,23.4520717 L36.2589582,28.6133627 L24.4246353,16.7790398 C23.9000785,16.2548396 23.0494717,16.2546019 22.5247961,16.7790398 L9.0727036,30.2299436 L9.0727036,9.17457197 L9.07258473,9.17457197 Z M9.07258473,36.1802688 L9.07258473,34.0293842 L23.4746563,19.628739 L40.0260672,36.1802688 L9.07258473,36.1802688 L9.07258473,36.1802688 Z M51.7869308,36.1803877 L43.826102,36.1803877 L43.826102,36.1802688 L38.1590351,30.5132019 L42.3703472,26.3017709 L51.4781163,35.4083514 C51.5717829,35.502018 51.6761475,35.5783302 51.7868119,35.6384765 L51.7868119,36.1803877 L51.7869308,36.1803877 Z" id="Shape"></path>
                    <path d="M36.1763462,11.7236585 C33.3758576,11.7236585 31.0973106,14.0020866 31.0973106,16.8026941 C31.0973106,19.6033016 33.3757387,21.8817298 36.1763462,21.8817298 C38.9769537,21.8817298 41.2553818,19.6033016 41.2553818,16.8026941 C41.2553818,14.0020866 38.9768349,11.7236585 36.1763462,11.7236585 Z M36.1763462,19.1948772 C34.8571687,19.1948772 33.7841631,18.1218717 33.7841631,16.8026941 C33.7841631,15.4836355 34.8572875,14.4106299 36.1763462,14.4106299 C37.495286,14.4106299 38.5684105,15.4836355 38.5684105,16.8026941 C38.5684105,18.1218717 37.4954049,19.1948772 36.1763462,19.1948772 Z" id="Shape"></path>
                </g>
            </g>
        </g>
    </g>
</svg>