<?xml version="1.0" encoding="UTF-8"?>
<svg width="63px" height="35px" viewBox="0 0 63 35" version="1.1" xmlns="http://www.w3.org/2000/svg" xmlns:xlink="http://www.w3.org/1999/xlink">
    <!-- Generator: Sketch 41 (35326) - http://www.bohemiancoding.com/sketch -->
    <title>promokit01</title>
    <desc>Created with Sketch.</desc>
    <defs></defs>
    <g id="Page-1" stroke="none" stroke-width="1" fill="none" fill-rule="evenodd">
        <g id="promokit01">
            <g id="006-eye" transform="translate(2.000000, 1.000000)">
                <path d="M3.94942549,16.1267097 C5.23001052,17.43248 7.6468649,19.728605 10.8379335,21.9994113 C15.2127105,25.1123923 21.9932816,28.8236903 29.452123,28.8236903 C36.9109645,28.8236903 43.6916688,25.1123923 48.0663125,21.9994113 C51.2569814,19.7290047 53.673969,17.4326133 54.9548206,16.1267097 C53.6743688,14.8209394 51.2573812,12.5248145 48.0663125,10.2540081 C43.6916688,7.1408939 36.9109645,3.42972918 29.452123,3.42972918 C21.9932816,3.42972918 15.2127105,7.1408939 10.8379335,10.2540081 C7.64726467,12.5244147 5.23027703,14.8205396 3.94942549,16.1267097 Z" id="Path" fill="#F2F2F2"></path>
                <g id="Group" transform="translate(-0.000000, 0.000000)">
                    <path d="M29.452123,32.1550769 C22.8282603,32.1550769 15.6993594,29.5645906 8.83616993,24.6634546 C3.70556799,20.9997288 0.538885103,17.3699832 0.406562426,17.2170059 C-0.135520809,16.591105 -0.135520809,15.6620479 0.406562426,15.0360137 C0.538885103,14.883303 3.70543473,11.2532908 8.83616993,7.58956505 C15.6994927,2.68882879 22.8283936,0.0980760227 29.452123,0.0980760227 C36.0759857,0.0980760227 43.2050199,2.68869553 50.0680761,7.58956505 C55.1986781,11.2532908 58.365361,14.8831697 58.4976836,15.0360137 C59.0397669,15.6619146 59.0397669,16.5909718 58.4976836,17.2170059 C58.365361,17.3697167 55.1988113,20.9997288 50.0680761,24.6634546 C43.2050199,29.5644574 36.076119,32.1550769 29.452123,32.1550769 Z M3.94942549,16.1267097 C5.23001052,17.43248 7.6468649,19.728605 10.8379335,21.9994113 C15.2127105,25.1123923 21.9932816,28.8236903 29.452123,28.8236903 C36.9109645,28.8236903 43.6916688,25.1123923 48.0663125,21.9994113 C51.2569814,19.7290047 53.673969,17.4326133 54.9548206,16.1267097 C53.6743688,14.8209394 51.2573812,12.5248145 48.0663125,10.2540081 C43.6916688,7.1408939 36.9109645,3.42972918 29.452123,3.42972918 C21.9932816,3.42972918 15.2127105,7.1408939 10.8379335,10.2540081 C7.64726467,12.5244147 5.23027703,14.8205396 3.94942549,16.1267097 Z" id="Shape" fill="#484848"></path>
                    <path d="M29.452123,26.4540083 C23.757584,26.4540083 19.1248244,21.8211155 19.1248244,16.1267097 C19.1248244,10.4323039 23.757584,5.79941112 29.452123,5.79941112 C31.9565262,5.79941112 34.3724478,6.70741387 36.254548,8.356317 C36.9465437,8.96249611 37.016103,10.0148145 36.4099239,10.7068102 C35.8037448,11.3988058 34.7512931,11.4682319 34.0594308,10.862186 C32.7849755,9.74563848 31.1485984,9.13079776 29.4519898,9.13079776 C25.5943773,9.13079776 22.4560778,12.2692305 22.4560778,16.1267097 C22.4560778,19.9841889 25.5943773,23.1226217 29.4519898,23.1226217 C33.3097355,23.1226217 36.4479017,19.9841889 36.4479017,16.1267097 C36.4479017,15.2068472 37.1937326,14.4610164 38.113595,14.4610164 C39.0334575,14.4610164 39.7792884,15.2068472 39.7792884,16.1267097 C39.7795549,21.8211155 35.1466621,26.4540083 29.452123,26.4540083 Z" id="Shape" fill="#484848"></path>
                    <path d="M29.452123,19.4580964 C27.6151964,19.4580964 26.1207364,17.9636363 26.1207364,16.1267097 C26.1207364,14.2897831 27.6151964,12.7953231 29.452123,12.7953231 C31.2891829,12.7953231 32.7835097,14.2897831 32.7835097,16.1267097 C32.7835097,17.9636363 31.2891829,19.4580964 29.452123,19.4580964 Z" id="Shape" fill="#5AC8FA"></path>
                </g>
            </g>
        </g>
    </g>
</svg>