<?xml version="1.0" encoding="UTF-8"?>
<svg width="63px" height="60px" viewBox="0 0 63 60" version="1.1" xmlns="http://www.w3.org/2000/svg" xmlns:xlink="http://www.w3.org/1999/xlink">
    <!-- Generator: Sketch 41 (35326) - http://www.bohemiancoding.com/sketch -->
    <title>promokit01</title>
    <desc>Created with Sketch.</desc>
    <defs></defs>
    <g id="Page-1" stroke="none" stroke-width="1" fill="none" fill-rule="evenodd">
        <g id="promokit01">
            <g id="Group-13" transform="translate(12.000000, 0.576660)">
                <path d="M16.3088291,38.0207981 C15.7131085,37.3242345 15.3984411,36.4904125 15.3984411,35.6080364 L15.3984411,31.8479006 C15.3984411,29.7880893 17.073555,28.1129754 19.1333662,28.1129754 C21.1931774,28.1129754 22.8682914,29.7880893 22.8682914,31.8479006 L22.8682914,35.6080364 C22.8682914,36.4894788 22.5536239,37.3242345 21.9569696,38.0207981 L21.0549852,39.0759144 L26.476229,40.8826844 C26.2708081,41.0946414 26.0551162,41.290725 25.8347556,41.4821399 C25.7899365,41.5213566 25.7488524,41.5633745 25.7030995,41.6016575 C25.5565037,41.72491 25.4005706,41.8350903 25.2474387,41.9490056 C25.1223187,42.0423787 25.0028011,42.1413542 24.8730124,42.2291249 C24.8580727,42.239396 24.8421993,42.2468658 24.8272596,42.2571369 C23.1978985,43.347735 21.2389303,43.9864072 19.1333662,43.9864072 C17.0278022,43.9864072 15.068834,43.347735 13.4376054,42.2562031 C13.4226657,42.2459321 13.4067923,42.2384623 13.3918526,42.2281912 C13.2629977,42.1404205 13.1425463,42.041445 13.0174263,41.9480718 C12.8642944,41.8332229 12.7083613,41.7239763 12.5617655,41.6007238 C12.5160126,41.5624408 12.4749285,41.5204229 12.4301094,41.4812062 C12.2097488,41.2897913 11.9940569,41.0937077 11.788636,40.8817507 L17.2098798,39.0749807 L16.3088291,38.0207981 Z" id="Path" fill="#FF2D55"></path>
                <g id="002-id-card" transform="translate(0.458741, 0.101037)" fill="#484848">
                    <g id="Group">
                        <path d="M34.5480574,3.73492513 L23.343282,3.73492513 L25.0239983,1.49397005 C25.3339971,1.08219456 25.2499613,0.496745042 24.8372521,0.187679988 C24.4236091,-0.121385067 23.8390933,-0.0382829825 23.5300283,0.374426244 L21.0089538,3.73492513 L16.4504777,3.73492513 L14.840725,0.516353399 C14.6100934,0.0550901456 14.0507883,-0.129788648 13.5876576,0.0989755158 C13.1263944,0.329607142 12.9396481,0.890779642 13.1702797,1.3520429 L14.3626546,3.73492513 L2.80119384,3.73492513 C1.2568023,3.73492513 0,4.99172743 0,6.53611897 L0,53.222683 C0,54.7670746 1.2568023,56.0238769 2.80119384,56.0238769 L34.5480574,56.0238769 C36.092449,56.0238769 37.3492513,54.7670746 37.3492513,53.222683 L37.3492513,6.53611897 C37.3492513,4.99172743 36.092449,3.73492513 34.5480574,3.73492513 Z M35.4817887,53.222683 C35.4817887,53.7381027 35.0634771,54.1564143 34.5480574,54.1564143 L2.80119384,54.1564143 C2.28670791,54.1564143 1.86746256,53.7381027 1.86746256,53.222683 L1.86746256,6.53611897 C1.86746256,6.0206993 2.28670791,5.60238769 2.80119384,5.60238769 L15.2963859,5.60238769 L16.2301171,7.46985025 C15.4457829,8.15520901 14.9397005,9.14963283 14.9397005,10.2710441 C14.9397005,12.3308553 16.6148144,14.0059692 18.6746256,14.0059692 C20.7344368,14.0059692 22.4095508,12.3308553 22.4095508,10.2710441 C22.4095508,8.21123289 20.7344368,6.53611897 18.6746256,6.53611897 C18.4066448,6.53611897 18.1461337,6.5669321 17.8940263,6.62108852 L17.384209,5.60238769 L34.5480574,5.60238769 C35.0634771,5.60238769 35.4817887,6.0206993 35.4817887,6.53611897 L35.4817887,53.222683 Z M17.1171619,9.24393969 L17.8389361,10.688422 C18.0032728,11.0161617 18.33288,11.2047754 18.6755594,11.2047754 C18.8156191,11.2047754 18.9584799,11.1730285 19.0920035,11.1067336 C19.5532668,10.876102 19.740013,10.3149295 19.5093814,9.85366621 L18.7904083,8.41572004 C19.7652238,8.47641257 20.5420882,9.28128894 20.5420882,10.2710441 C20.5420882,11.3009497 19.7045312,12.1385067 18.6746256,12.1385067 C17.64472,12.1385067 16.8071631,11.3009497 16.8071631,10.2710441 C16.8071631,9.8919492 16.922012,9.53899877 17.1171619,9.24393969 Z" id="Shape" stroke="#484848"></path>
                        <path d="M18.6746256,21.4758195 C11.9816398,21.4758195 6.53611897,26.9213403 6.53611897,33.6143261 C6.53611897,35.8888955 7.17665863,38.0112667 8.26912423,39.8329765 L8.19722692,39.8572535 L8.97689254,40.8936952 C8.99743463,40.9207734 9.02077791,40.943183 9.04132,40.9702612 C9.28222267,41.2849286 9.53713131,41.5865238 9.80697965,41.8759805 C9.85553368,41.9292032 9.90222024,41.9842933 9.95264173,42.0356486 C10.2374298,42.3307076 10.53529,42.6126945 10.8490238,42.8778742 C10.8826381,42.9068198 10.9134512,42.9385667 10.9470655,42.9675124 C11.2673354,43.2317583 11.6016112,43.4791971 11.9480255,43.7107625 C12.1254344,43.8293463 12.3103132,43.9329905 12.4933245,44.0422371 C12.6716672,44.1486824 12.8481424,44.2551278 13.0311538,44.3522359 C13.2365746,44.4605487 13.4466642,44.5585905 13.6586212,44.6547648 C13.8369639,44.7359994 14.0153065,44.8144329 14.1983179,44.8872639 C14.4102749,44.9712997 14.6222319,45.0506669 14.8388575,45.1225642 C15.0433447,45.1907266 15.250633,45.2495516 15.4588551,45.307443 C15.6605411,45.3625331 15.8603595,45.4194907 16.0657804,45.4633761 C16.3225565,45.5203337 16.5840013,45.5604841 16.8463798,45.6006346 C17.0125839,45.6258453 17.1769207,45.6585259 17.3449923,45.6772006 C17.7819785,45.7238871 18.2245672,45.7528328 18.6746256,45.7528328 C19.1246841,45.7528328 19.5672727,45.7238871 20.004259,45.6762668 C20.1723306,45.6575922 20.3366673,45.6249116 20.5028715,45.5997009 C20.76525,45.5595504 21.0266947,45.5194 21.2834708,45.4624424 C21.487958,45.4176233 21.6887102,45.3615994 21.8903962,45.3065092 C22.099552,45.2486179 22.3068403,45.1897928 22.5103937,45.1216304 C22.7270194,45.0497331 22.9399101,44.970366 23.1509334,44.8863302 C23.333011,44.8134991 23.5122874,44.7359994 23.6906301,44.6538311 C23.9025871,44.5576567 24.1126766,44.459615 24.3180975,44.3513021 C24.5020426,44.2541941 24.6785178,44.146815 24.8559267,44.0413034 C25.038938,43.9320568 25.2238168,43.8284126 25.4012258,43.7098287 C25.7476401,43.4782634 26.0819159,43.2317583 26.4021857,42.9665786 C26.4358,42.9385667 26.4666132,42.9058861 26.5002275,42.8769404 C26.8139612,42.6117608 27.1108878,42.3297739 27.3966095,42.0347148 C27.4460973,41.9833596 27.4927838,41.9273357 27.5422716,41.8750468 C27.8121199,41.5855901 28.0670286,41.2839949 28.3079313,40.9693274 C28.3284733,40.9422492 28.3527504,40.9198397 28.3723587,40.8927615 L29.1520243,39.8563197 L29.080127,39.8320427 C30.1725926,38.0112667 30.8131323,35.8888955 30.8131323,33.6143261 C30.8131323,26.9213403 25.3676115,21.4758195 18.6746256,21.4758195 Z M15.8500885,37.9197611 C15.2543679,37.2231975 14.9397005,36.3893755 14.9397005,35.5069994 L14.9397005,31.7468636 C14.9397005,29.6870524 16.6148144,28.0119384 18.6746256,28.0119384 C20.7344368,28.0119384 22.4095508,29.6870524 22.4095508,31.7468636 L22.4095508,35.5069994 C22.4095508,36.3884418 22.0948833,37.2231975 21.498229,37.9197611 L20.5962446,38.9748774 L26.0174884,40.7816474 C25.8120675,40.9936044 25.5963756,41.189688 25.376015,41.3811029 C25.3311959,41.4203196 25.2901118,41.4623376 25.2443589,41.5006205 C25.0977631,41.6238731 24.94183,41.7340534 24.7886981,41.8479686 C24.6635781,41.9413417 24.5440605,42.0403172 24.4142718,42.128088 C24.3993321,42.138359 24.3834587,42.1458288 24.368519,42.1560999 C22.7391579,43.246698 20.7801897,43.8853702 18.6746256,43.8853702 C16.5690616,43.8853702 14.6100934,43.246698 12.9788648,42.1551662 C12.9639251,42.1448951 12.9480517,42.1374253 12.933112,42.1271542 C12.8042571,42.0393835 12.6838057,41.940408 12.5586857,41.8470348 C12.4055538,41.7321859 12.2496207,41.6229393 12.1030249,41.4996868 C12.057272,41.4614038 12.0161879,41.4193859 11.9713688,41.3801692 C11.7510082,41.1887543 11.5353163,40.9926707 11.3298954,40.7807137 L16.7511392,38.9739437 L15.8500885,37.9197611 Z M27.2649534,39.2279186 L23.6607507,38.0271402 C24.0631889,37.2446734 24.2770133,36.3809719 24.2770133,35.5069994 L24.2770133,31.7468636 C24.2770133,28.6571468 21.7643424,26.1444759 18.6746256,26.1444759 C15.5849088,26.1444759 13.0722379,28.6571468 13.0722379,31.7468636 L13.0722379,35.5069994 C13.0722379,36.3819056 13.2860624,37.2446734 13.6885006,38.0271402 L10.0842978,39.2279186 C9.02451283,37.6125635 8.40358153,35.6862758 8.40358153,33.6143261 C8.40358153,27.9512459 13.0115454,23.343282 18.6746256,23.343282 C24.3377058,23.343282 28.9456697,27.9512459 28.9456697,33.6143261 C28.9456697,35.6862758 28.3238047,37.6125635 27.2649534,39.2279186 Z" id="Shape"></path>
                        <ellipse id="Oval" cx="32.8673411" cy="17.7408943" rx="0.933731281" ry="0.933731281"></ellipse>
                        <circle id="Oval" cx="15.1264468" cy="17.7408943" r="0.933731281"></circle>
                        <ellipse id="Oval" cx="8.03008902" cy="17.7408943" rx="0.933731281" ry="0.933731281"></ellipse>
                        <ellipse id="Oval" cx="4.48191015" cy="17.7408943" rx="0.933731281" ry="0.933731281"></ellipse>
                        <ellipse id="Oval" cx="11.5782679" cy="17.7408943" rx="0.933731281" ry="0.933731281"></ellipse>
                        <ellipse id="Oval" cx="18.6746256" cy="17.7408943" rx="0.933731281" ry="0.933731281"></ellipse>
                        <ellipse id="Oval" cx="29.3191622" cy="17.7408943" rx="0.933731281" ry="0.933731281"></ellipse>
                        <ellipse id="Oval" cx="25.7709834" cy="17.7408943" rx="0.933731281" ry="0.933731281"></ellipse>
                        <ellipse id="Oval" cx="22.2228045" cy="17.7408943" rx="0.933731281" ry="0.933731281"></ellipse>
                        <ellipse id="Oval" cx="4.48191015" cy="50.4214892" rx="0.933731281" ry="0.933731281"></ellipse>
                        <ellipse id="Oval" cx="11.5782679" cy="50.4214892" rx="0.933731281" ry="0.933731281"></ellipse>
                        <ellipse id="Oval" cx="29.3191622" cy="50.4214892" rx="0.933731281" ry="0.933731281"></ellipse>
                        <ellipse id="Oval" cx="25.7709834" cy="50.4214892" rx="0.933731281" ry="0.933731281"></ellipse>
                        <ellipse id="Oval" cx="32.8673411" cy="50.4214892" rx="0.933731281" ry="0.933731281"></ellipse>
                        <ellipse id="Oval" cx="18.6746256" cy="50.4214892" rx="0.933731281" ry="0.933731281"></ellipse>
                        <ellipse id="Oval" cx="15.1264468" cy="50.4214892" rx="0.933731281" ry="0.933731281"></ellipse>
                        <ellipse id="Oval" cx="22.2228045" cy="50.4214892" rx="0.933731281" ry="0.933731281"></ellipse>
                        <ellipse id="Oval" cx="8.03008902" cy="50.4214892" rx="0.933731281" ry="0.933731281"></ellipse>
                    </g>
                </g>
            </g>
            <path d="M29.5759025,9.92163683 L30.2976767,11.3661191 C30.4620134,11.6938588 30.7916206,11.8824725 31.1343,11.8824725 C31.2743597,11.8824725 31.4172205,11.8507257 31.5507441,11.7844307 C32.0120074,11.5537991 32.1987536,10.9926266 31.968122,10.5313634 L31.2491489,9.09341718 C32.2239644,9.15410971 33.0008288,9.95898608 33.0008288,10.9487412 C33.0008288,11.9786468 32.1632718,12.8162038 31.1333662,12.8162038 C30.1034606,12.8162038 29.2659037,11.9786468 29.2659037,10.9487412 C29.2659037,10.5696463 29.3807526,10.2166959 29.5759025,9.92163683 Z" id="Path" fill="#FFFFFF"></path>
        </g>
    </g>
</svg>