<?xml version="1.0" encoding="UTF-8"?>
<svg width="40px" height="40px" viewBox="0 0 40 40" version="1.1" xmlns="http://www.w3.org/2000/svg" xmlns:xlink="http://www.w3.org/1999/xlink">
    <!-- Generator: Sketch 41 (35326) - http://www.bohemiancoding.com/sketch -->
    <title>question</title>
    <desc>Created with Sketch.</desc>
    <defs></defs>
    <g id="Page-1" stroke="none" stroke-width="1" fill="none" fill-rule="evenodd">
        <g id="question">
            <circle id="Oval-2" fill="#F2F2F2" cx="20" cy="17.4192106" r="16.8724751"></circle>
            <path d="M20.9581155,19.9319298 L20.9581155,19.8234638 C20.9581155,19.0822801 21.3015909,18.5218729 21.9343087,18.0699316 L22.6754925,17.5456797 C23.7420739,16.7864183 24.46518,15.7740698 24.46518,14.3459353 C24.46518,12.5200925 23.0008902,10.7484826 20.1988542,10.7484826 C17.5233617,10.7484826 16.0590719,12.6285584 16.0590719,14.5809448 C16.0590719,14.8521096 16.0771495,15.141352 16.1494602,15.3944391 L18.4272443,15.4848274 C18.3730113,15.3221285 18.3549337,15.1232744 18.3549337,14.9063425 C18.3549337,13.893994 18.9153409,12.8635679 20.1988542,12.8635679 C21.4100568,12.8635679 22.0066194,13.6589846 22.0066194,14.4905565 C22.0066194,15.0328861 21.7716099,15.5209827 21.2292803,15.918691 L20.361553,16.5694865 C19.3311269,17.3468255 18.9334185,18.2326305 18.9334185,19.190746 C18.9334185,19.4619108 18.9695738,19.6969203 19.0057291,19.9319298 L20.9581155,19.9319298 Z M18.5899432,22.5531893 C18.5899432,23.348606 19.222661,23.9813238 20.0180777,23.9813238 C20.8134943,23.9813238 21.4642898,23.348606 21.4642898,22.5531893 C21.4642898,21.7577726 20.8134943,21.1069771 20.0180777,21.1069771 C19.222661,21.1069771 18.5899432,21.7577726 18.5899432,22.5531893 Z" id="?" fill="#484848"></path>
        </g>
    </g>
</svg>