<?xml version="1.0" encoding="UTF-8"?>
<svg width="80px" height="50px" viewBox="0 0 80 50" version="1.1" xmlns="http://www.w3.org/2000/svg" xmlns:xlink="http://www.w3.org/1999/xlink">
    <!-- Generator: Sketch 41 (35326) - http://www.bohemiancoding.com/sketch -->
    <title>quotes</title>
    <desc>Created with Sketch.</desc>
    <defs></defs>
    <g id="Page-1" stroke="none" stroke-width="1" fill="none" fill-rule="evenodd">
        <g id="quotes" fill="#FF2D55">
            <path d="M34.0095583,34.9415841 C34.0095583,28.5177913 30.0329247,24.3882102 23.1502896,24.3882102 C21.7737625,24.3882102 20.7031304,24.6941051 19.9383932,25.1529474 C20.2442881,18.1173649 26.6680808,13.375994 32.4800838,12.4583093 L32.4800838,3.12851502 C22.8443947,4.0461997 8.7732295,10.9288348 8.7732295,31.4237928 C8.7732295,39.5300075 13.9734427,46.1067477 22.0796574,46.1067477 C29.2681875,46.1067477 34.0095583,40.9065345 34.0095583,34.9415841 Z M45.6845468,14.2936787 C45.6845468,20.7174715 49.9670753,25.3058949 56.8497104,25.3058949 C58.2262375,25.3058949 59.2968696,25 60.0616068,24.5411577 C59.7557119,31.5767402 53.3319192,36.624006 47.5199162,37.5416907 L47.5199162,46.871485 C57.1556053,45.9538003 71.2267705,38.4593754 71.2267705,17.9644174 C71.2267705,9.8582027 66.0265573,3.12851502 57.9203426,3.12851502 C50.7318125,3.12851502 45.6845468,8.32872823 45.6845468,14.2936787 Z" id="‘’"></path>
        </g>
    </g>
</svg>