<?xml version="1.0" encoding="UTF-8"?>
<svg width="140px" height="100px" viewBox="0 0 140 100" version="1.1" xmlns="http://www.w3.org/2000/svg" xmlns:xlink="http://www.w3.org/1999/xlink">
    <!-- Generator: Sketch 41 (35326) - http://www.bohemiancoding.com/sketch -->
    <title>quotes</title>
    <desc>Created with Sketch.</desc>
    <defs></defs>
    <g id="Page-1" stroke="none" stroke-width="1" fill="none" fill-rule="evenodd">
        <g id="quotes" fill="#FF2D55">
            <path d="M57.3908642,71.304847 C57.3908642,57.7144452 48.9777583,48.9777583 34.4166135,48.9777583 C31.5043846,48.9777583 29.2393176,49.6249203 27.6214126,50.5956633 C28.2685746,35.7109375 41.8589764,25.6799267 54.1550542,23.7384407 L54.1550542,4 C33.7694515,5.94148597 4,20.5026307 4,63.8624841 C4,81.0122768 15.0017538,94.9262596 32.1515466,94.9262596 C47.3598533,94.9262596 57.3908642,83.9245058 57.3908642,71.304847 Z M82.0908801,27.6214126 C82.0908801,41.2118144 91.1511479,50.9192443 105.712293,50.9192443 C108.624522,50.9192443 110.889589,50.2720823 112.507494,49.3013393 C111.860332,64.1860651 98.2699298,74.8642379 85.973852,76.8057239 L85.973852,96.5441646 C106.359455,94.6026786 136.128906,78.7472099 136.128906,35.3873565 C136.128906,18.2375638 125.127152,4 107.97736,4 C92.7690529,4 82.0908801,15.0017538 82.0908801,27.6214126 Z" id="‘’"></path>
        </g>
    </g>
</svg>