<?xml version="1.0" encoding="UTF-8"?>
<svg width="35px" height="35px" viewBox="0 0 35 35" version="1.1" xmlns="http://www.w3.org/2000/svg" xmlns:xlink="http://www.w3.org/1999/xlink">
    <!-- Generator: Sketch 41 (35326) - http://www.bohemiancoding.com/sketch -->
    <title>reviews-stats</title>
    <desc>Created with Sketch.</desc>
    <defs></defs>
    <g id="Page-1" stroke="none" stroke-width="1" fill="none" fill-rule="evenodd">
        <g id="reviews-stats" fill="#FFFFFF">
            <g id="Group-18" transform="translate(2.000000, 2.000000)">
                <g id="004-worldwide" transform="translate(0.410515, 0.100590)">
                    <g id="Group">
                        <path d="M29.161621,9.33684313 C26.8093156,3.66416809 21.3266344,0 15.1925456,0 C13.2111807,0 11.266005,0.38903513 9.42034997,1.14901073 C1.72107332,4.34271774 -1.9521421,13.1910051 1.23251758,20.8902818 C3.47625507,26.3005843 8.56990108,29.8833264 14.3692387,30.1999829 L16.0158525,30.1999829 C17.7167503,30.1095096 19.3814588,29.7295218 20.9737886,29.0690668 C24.701288,27.5219737 27.6054805,24.6177812 29.1525737,20.8902818 C30.6996669,17.1718297 30.6996669,13.0643425 29.161621,9.33684313 Z M27.840711,19.7503184 L23.6608452,19.7503184 C24.0227384,18.1941778 24.2217796,16.601848 24.2217796,15.0818968 C24.2217796,13.5348036 24.0589277,11.9696158 23.7422712,10.4677592 L27.840711,10.4677592 C28.9535325,13.489567 28.9535325,16.7375579 27.840711,19.7503184 Z M2.55342756,19.7503184 C1.41346415,16.6470847 1.49489011,13.3719517 2.56247488,10.4677592 L6.805672,10.4677592 C6.49806283,11.9696158 6.32616359,13.5348036 6.32616359,15.0818968 C6.32616359,16.601848 6.52520482,18.1941778 6.88709796,19.7503184 L2.55342756,19.7503184 L2.55342756,19.7503184 Z M7.96373007,15.0909441 C7.96373007,13.4986143 8.14467664,11.9424738 8.47038047,10.4768065 L14.3782861,10.4768065 L14.3782861,19.7593657 L8.58799574,19.7593657 C8.18991328,18.1941778 7.96373007,16.5928007 7.96373007,15.0909441 Z M16.0158525,1.78232374 C18.3500633,2.27992681 20.4761855,5.09364601 21.6432909,8.83924006 L16.0158525,8.83924006 L16.0158525,1.78232374 L16.0158525,1.78232374 Z M14.3782861,1.81851305 L14.3782861,8.83924006 L8.90465224,8.83924006 C10.0446156,5.16602464 12.0983592,2.40658941 14.3782861,1.81851305 Z M14.3782861,21.3969322 L14.3782861,28.3543279 C12.1978799,27.7119676 10.2346096,24.8168224 9.06750416,21.3969322 L14.3782861,21.3969322 L14.3782861,21.3969322 Z M16.0158525,28.3905172 L16.0158525,21.3969322 L21.4713917,21.3969322 C20.2861916,24.889201 18.25959,27.8386302 16.0158525,28.3905172 Z M16.0158525,19.7503184 L16.0158525,10.4768065 L22.0775627,10.4768065 C22.4032665,11.9334264 22.5842131,13.4986143 22.5842131,15.0909441 C22.5842131,16.5928007 22.3580299,18.2032252 21.9689948,19.7593657 L16.0158525,19.7593657 L16.0158525,19.7503184 L16.0158525,19.7503184 Z M27.1078774,8.83019273 L23.3441887,8.83019273 C22.9370589,7.40976214 22.4032665,6.07980483 21.7428115,4.88555745 C21.2452085,3.98987192 20.7023688,3.22084899 20.1233397,2.560394 C23.0908635,3.72749939 25.5879262,5.93504757 27.1078774,8.83019273 Z M10.0446156,2.66896194 C10.1893729,2.60563064 10.3341302,2.55134667 10.4879348,2.4970627 C9.89081106,3.16656502 9.32082936,3.96272993 8.81417896,4.89460478 C8.15372397,6.07980483 7.61993158,7.41880947 7.21280179,8.83924006 L3.2953085,8.83924006 C4.70669177,6.14313613 7.02280789,3.91749329 10.0446156,2.66896194 Z M3.28626117,21.3969322 L7.33946439,21.3969322 C8.14467664,23.9392315 9.37511333,26.2734423 10.8860172,27.8838668 C7.64707357,26.78914 4.91478032,24.4911186 3.28626117,21.3969322 Z M20.3495229,27.558163 C20.1504817,27.6395889 19.9514405,27.7210149 19.7433519,27.7933935 C21.2090192,26.182969 22.4123139,23.8939949 23.1994315,21.3969322 L27.1078774,21.3969322 C25.6512575,24.1744621 23.2899047,26.3458209 20.3495229,27.558163 Z" id="Shape"></path>
                    </g>
                </g>
            </g>
        </g>
    </g>
</svg>