<?xml version="1.0" encoding="UTF-8"?>
<svg width="32px" height="32px" viewBox="0 0 32 32" version="1.1" xmlns="http://www.w3.org/2000/svg" xmlns:xlink="http://www.w3.org/1999/xlink">
    <!-- Generator: Sketch 41 (35326) - http://www.bohemiancoding.com/sketch -->
    <title>reviews-dashboard</title>
    <desc>Created with Sketch.</desc>
    <defs></defs>
    <g id="Page-1" stroke="none" stroke-width="1" fill="none" fill-rule="evenodd">
        <g id="reviews-dashboard" fill="#FFFFFF">
            <g id="001-user-review" transform="translate(2.000000, 4.000000)">
                <g id="Group">
                    <g id="Group-17" transform="translate(0.159972, 0.000000)">
                        <path d="M27.7004551,7.43796537 C27.6710965,7.34839672 27.6073321,7.2741827 27.5232371,7.23160205 L26.8889347,6.91057664 C26.8047686,6.86799599 26.7072383,6.86053193 26.6176696,6.88996163 C26.528101,6.91932024 26.453887,6.98308459 26.4113063,7.0671796 L25.1860641,9.48830546 C24.2846907,5.35037609 21.2572704,1.96340164 17.1508322,0.640131489 C15.9491906,0.252853715 14.7080251,0.0565135518 13.4617413,0.0565135518 C11.585207,0.0565135518 9.69936047,0.514664296 8.00807692,1.38156085 C5.15922522,2.84174308 3.04952812,5.32386093 2.06754296,8.37082995 C2.03861087,8.46054077 2.04650144,8.55807107 2.08950861,8.64195282 C2.13251577,8.72583457 2.20708523,8.7891724 2.29679605,8.8181045 L2.97332369,9.03612596 C3.16006721,9.09647817 3.3603882,8.99368748 3.42059824,8.80687287 C4.28614416,6.12137733 6.14561773,3.93369864 8.6565255,2.64675355 C10.1688139,1.87162932 11.7858124,1.47859356 13.4624522,1.47859356 C14.5607344,1.47859356 15.6548936,1.65175961 16.7146471,1.99332894 C20.4592564,3.20008876 23.1844891,6.35411364 23.8712532,10.1732924 L21.1459494,8.79407735 C20.9707929,8.70550391 20.7569655,8.77559493 20.668321,8.9507514 L20.3472956,9.58505382 C20.3047149,9.66914883 20.297322,9.76675022 20.3267517,9.85631887 C20.3561103,9.94588752 20.4198746,10.0201015 20.5039696,10.0626822 L24.9514795,12.3133433 C25.002946,12.3393608 25.0577534,12.3517298 25.1117079,12.3517298 C25.2414403,12.3517298 25.366552,12.2804304 25.4291079,12.1567403 L27.6798401,7.70937259 C27.7224207,7.62513541 27.7298137,7.52753402 27.7004551,7.43796537 Z" id="Shape"></path>
                        <path d="M25.4925168,15.5589983 L24.8159892,15.3409768 C24.6291035,15.2804825 24.4288536,15.3833442 24.3686435,15.5702299 C23.5030976,18.2557255 21.6436241,20.4434042 19.1327874,21.7303492 C17.6203568,22.5054735 16.0033583,22.8985092 14.3266474,22.8985092 C13.2284363,22.8985092 12.1342771,22.7253432 11.0745236,22.383845 C7.3299143,21.1770851 4.60468155,18.0231313 3.91791749,14.2038815 L6.64322133,15.5830965 C6.81844888,15.6717411 7.03227626,15.601579 7.1208497,15.4264225 L7.44187511,14.7921201 C7.48445576,14.7080251 7.49184873,14.6104237 7.46241903,14.520855 C7.43306042,14.4312864 7.36929607,14.3570724 7.28520106,14.3144917 L2.83776225,12.0638306 C2.6625347,11.9751861 2.44877841,12.0453482 2.36013388,12.2205047 L0.10933062,16.6678724 C0.0667499687,16.7519674 0.059357001,16.8495688 0.0887866996,16.9391374 C0.118145312,17.0287061 0.181909659,17.1029201 0.266004668,17.1455008 L0.900307086,17.4665262 C0.95056505,17.491904 1.00558579,17.5048416 1.06081979,17.5048416 C1.09806897,17.5048416 1.13546033,17.4990126 1.17157214,17.4871412 C1.26114078,17.4577826 1.33535481,17.3940182 1.37793546,17.3099232 L2.60317769,14.8887973 C3.50455107,19.0267267 6.53204247,22.4137012 10.6384096,23.7369713 C11.8399801,24.1242491 13.0811456,24.3205893 14.3274294,24.3205893 C16.2039637,24.3205893 18.0898813,23.8624385 19.7811649,22.9955419 C22.6300166,21.5354308 24.7397137,19.0532419 25.7216988,16.0062729 C25.7506309,15.916562 25.7427403,15.8190317 25.6997332,15.73515 C25.6567971,15.6512682 25.5822276,15.5879304 25.4925168,15.5589983 Z" id="Shape"></path>
                    </g>
                </g>
            </g>
        </g>
    </g>
</svg>