<?xml version="1.0" encoding="UTF-8"?>
<svg width="112px" height="112px" viewBox="0 0 112 112" version="1.1" xmlns="http://www.w3.org/2000/svg" xmlns:xlink="http://www.w3.org/1999/xlink">
    <!-- Generator: Sketch 41 (35326) - http://www.bohemiancoding.com/sketch -->
    <title>reviews-image</title>
    <desc>Created with Sketch.</desc>
    <defs></defs>
    <g id="Page-1" stroke="none" stroke-width="1" fill="none" fill-rule="evenodd">
        <g id="reviews-image" fill="#FFFFFF">
            <g id="Group" transform="translate(12.000000, 5.000000)">
                <path d="M44.1944252,50.4152642 C58.0780463,50.4152642 69.373161,39.1201495 69.373161,25.2361882 C69.373161,11.3525671 58.0780463,0.0574523802 44.1944252,0.0574523802 C30.3108042,0.0574523802 19.0156894,11.3525671 19.0156894,25.2361882 C19.0156894,39.1201495 30.3108042,50.4152642 44.1944252,50.4152642 Z M44.1944252,5.16097431 C55.2639643,5.16097431 64.2696391,14.1666491 64.2696391,25.2361882 C64.2696391,36.3057273 55.2639643,45.3117423 44.1944252,45.3117423 C33.1248862,45.3117423 24.1192114,36.3057273 24.1192114,25.2361882 C24.1192114,14.1666491 33.1248862,5.16097431 44.1944252,5.16097431 Z" id="Shape"></path>
                <path d="M44.1944252,60.6223081 C64.5445488,60.6223081 81.2534796,76.5078707 82.5705285,96.5303482 L23.5966107,96.5303482 C22.1873582,96.5303482 21.0448497,97.6725164 21.0448497,99.0821091 C21.0448497,100.491702 22.1873582,101.63387 23.5966107,101.63387 L85.2063275,101.63387 C86.61558,101.63387 87.7580884,100.491702 87.7580884,99.0821091 C87.7580884,75.0611923 68.2156823,55.5187862 44.1944252,55.5187862 C20.1731682,55.5187862 0.630762012,75.0611923 0.630762012,99.0821091 C0.630762012,100.491702 1.77327046,101.63387 3.18252298,101.63387 L13.3895668,101.63387 C14.7988194,101.63387 15.9413278,100.491702 15.9413278,99.0821091 C15.9413278,97.6725164 14.7988194,96.5303482 13.3895668,96.5303482 L5.8179817,96.5303482 C7.13537083,76.5078707 23.8446419,60.6223081 44.1944252,60.6223081 L44.1944252,60.6223081 Z" id="Shape"></path>
                <path d="M44.1944252,36.8058724 C47.5392735,36.8058724 50.7214895,35.3523894 52.9248501,32.8179804 C53.849268,31.7544064 53.7369905,30.1427142 52.6734166,29.217956 C51.6095024,28.2931978 49.9978101,28.4058155 49.0733922,29.4693895 C47.8400411,30.8885088 46.0612936,31.7023505 44.1944252,31.7023505 C42.3275569,31.7023505 40.5491496,30.8885088 39.3154583,29.4693895 C38.3907001,28.4058155 36.7790079,28.2935381 35.7154339,29.217956 C34.6518599,30.1427142 34.5392422,31.7544064 35.4640004,32.8179804 C37.6673609,35.3520491 40.849577,36.8058724 44.1944252,36.8058724 L44.1944252,36.8058724 Z" id="Shape"></path>
            </g>
        </g>
    </g>
</svg>