<?xml version="1.0" encoding="UTF-8"?>
<svg width="21px" height="21px" viewBox="0 0 21 21" version="1.1" xmlns="http://www.w3.org/2000/svg" xmlns:xlink="http://www.w3.org/1999/xlink">
    <!-- Generator: Sketch 41 (35326) - http://www.bohemiancoding.com/sketch -->
    <title>reviews-star</title>
    <desc>Created with Sketch.</desc>
    <defs></defs>
    <g id="Page-1" stroke="none" stroke-width="1" fill="none" fill-rule="evenodd">
        <g id="reviews-star" fill="#FFFFFF">
            <g id="star" transform="translate(2.000000, 2.000000)">
                <path d="M3.4512871,16.3736619 C3.38799158,16.3736619 3.32469607,16.3540922 3.27149115,16.3152588 C3.17731232,16.2467651 3.13022291,16.1308762 3.15009831,16.0162104 L4.09525012,10.506749 L0.092344175,6.60536049 C0.00917326241,6.52402423 -0.0207927281,6.40263139 0.0149829953,6.29224647 C0.0510644941,6.18155577 0.146772199,6.10083106 0.26204953,6.08401341 L5.79352677,5.28012985 L8.26755564,0.267553487 C8.31892591,0.162978296 8.42533575,0.0969308062 8.54153041,0.0969308062 L8.54153041,0.0969308062 C8.65803084,0.0969308062 8.76444069,0.162978296 8.81550518,0.267553487 L11.2892283,5.28012985 L16.8210113,6.08401341 C16.9362886,6.10083106 17.0316905,6.18124999 17.0680778,6.29224647 C17.1038535,6.40263139 17.0741933,6.52433 16.9907166,6.60536049 L12.9878107,10.5073605 L13.9326567,16.0165162 C13.9522264,16.131182 13.9051369,16.2470708 13.8112639,16.3155645 C13.7170851,16.3846698 13.5920229,16.3935373 13.4889766,16.3388035 L8.54153041,13.7378778 L3.59347266,16.3388035 C3.54882945,16.3620424 3.49990539,16.3736619 3.4512871,16.3736619 Z M0.962886778,6.59985653 L4.63708415,10.181404 C4.70894137,10.2514265 4.74196512,10.352944 4.72484169,10.4520152 L3.85735685,15.508929 L8.39934484,13.1214346 C8.48832549,13.0743451 8.59442956,13.0743451 8.68402175,13.1214346 L13.2253982,15.508929 L12.3582191,10.4520152 C12.3410957,10.352944 12.3741194,10.2517323 12.4459767,10.181404 L16.120174,6.59985653 L11.0427733,5.86202046 C10.9430905,5.84764901 10.8571676,5.78496505 10.8125244,5.69476131 L8.54153041,1.09406443 L6.27053641,5.69506708 C6.2258932,5.78527083 6.13997031,5.84795479 6.04028752,5.86232623 L0.962886778,6.59985653 Z" id="Shape"></path>
            </g>
        </g>
    </g>
</svg>