<?xml version="1.0" encoding="UTF-8"?>
<svg width="35px" height="35px" viewBox="0 0 35 35" version="1.1" xmlns="http://www.w3.org/2000/svg" xmlns:xlink="http://www.w3.org/1999/xlink">
    <!-- Generator: Sketch 41 (35326) - http://www.bohemiancoding.com/sketch -->
    <title>reviews-awards</title>
    <desc>Created with Sketch.</desc>
    <defs></defs>
    <g id="Page-1" stroke="none" stroke-width="1" fill="none" fill-rule="evenodd">
        <g id="reviews-awards" fill="#FFFFFF">
            <g id="001-medal-1" transform="translate(5.000000, 2.000000)">
                <g id="Group">
                    <path d="M13.1902823,3.29255473 C13.1902823,2.92900631 12.895505,2.63404378 12.5317714,2.63404378 C8.33389526,2.63404378 4.66476635,5.46798055 3.60924744,9.52565993 C3.51763497,9.87766419 3.72876344,10.2371382 4.08070597,10.3286889 C4.13632783,10.343258 4.19201142,10.3500487 4.24689247,10.3500487 C4.5394474,10.3500487 4.80662986,10.1536745 4.88373497,9.85723041 C5.788439,6.3797222 8.933389,3.95100394 12.5317714,3.95100394 C12.895505,3.95106568 13.1902823,3.65628835 13.1902823,3.29255473 Z" id="Shape"></path>
                    <path d="M4.00884821,10.8116916 C3.64739873,10.7952088 3.33799057,11.077269 3.3220016,11.4406322 C3.31595172,11.5770632 3.31292678,11.7159018 3.31292678,11.8529501 C3.31292678,12.216622 3.60776584,12.511461 3.97143772,12.511461 C4.33510961,12.511461 4.62994867,12.216622 4.62994867,11.8529501 C4.62994867,11.7351626 4.63260321,11.6158936 4.63772709,11.4986 C4.65371605,11.1353602 4.37214969,10.8278041 4.00884821,10.8116916 Z" id="Shape"></path>
                    <path d="M20.9828367,13.3770261 C20.6303386,13.2851049 20.271235,13.4964803 20.1798077,13.8484846 C19.2752889,17.326178 16.1303389,19.754958 12.5318331,19.754958 C12.1682229,19.754958 11.8733221,20.0496736 11.8733221,20.4134689 C11.8733221,20.7770173 12.1682229,21.0719799 12.5318331,21.0719799 C16.7298327,21.0719799 20.3989616,18.2379196 21.4542953,14.1801168 C21.5459077,13.8280508 21.3347793,13.4684533 20.9828367,13.3770261 Z" id="Shape"></path>
                    <path d="M14.9659222,16.0743466 C15.0208649,16.0322444 15.0483981,15.9476696 15.0483981,15.8208073 L15.0483981,15.0095677 C15.0483981,14.78992 14.9258571,14.6800344 14.6807135,14.6800344 L13.7426117,14.6800344 L13.7426117,8.44291657 C13.7426117,7.85953526 13.4593785,7.56809154 12.8932826,7.56809154 L12.7917927,7.56809154 L12.7917927,7.56815327 C12.462136,7.56815327 12.0944514,7.65248119 11.6888008,7.82169264 L10.2055307,8.41754411 C10.0788536,8.47668478 10.0152681,8.55706176 10.0152681,8.65842812 C10.0152681,8.74306471 10.1125601,9.05568301 10.3069588,9.59652996 C10.3493079,9.71487302 10.4254253,9.77382849 10.5352491,9.77382849 C10.6282197,9.77382849 10.7253265,9.75290084 10.8268163,9.71055168 L12.0309894,9.25421786 L12.0309894,14.6800344 L10.8268163,14.6800344 C10.5816727,14.6800344 10.4591318,14.7898583 10.4591318,15.0095677 L10.4591318,15.7955583 C10.4591318,16.0238487 10.5816727,16.1379321 10.8268163,16.1379321 L14.6932454,16.1379321 C14.8201077,16.1378704 14.9110411,16.1166958 14.9659222,16.0743466 Z" id="Shape"></path>
                    <path d="M24.9549535,26.4053197 L21.2091516,19.9176874 C23.1781407,17.8005997 24.3847214,14.9651196 24.3847214,11.8527032 C24.3847214,5.31716568 19.0675558,0 12.5319566,0 C5.9962956,0 0.679191659,5.31716568 0.679191659,11.8527032 C0.679191659,14.9651196 1.88558717,17.8004763 3.85457626,19.9175639 L0.108836111,26.4053197 C-0.024322988,26.6360794 -0.00543254554,26.9241278 0.156679552,27.1354415 C0.31879165,27.3467552 0.592270931,27.4392319 0.849452575,27.370646 L5.97042928,25.9986196 L7.34257916,31.1194111 C7.41153545,31.376778 7.62883727,31.5672257 7.89293306,31.6017965 C7.92170086,31.6056857 7.95028346,31.6074759 7.97880432,31.6074759 C8.21197165,31.6074759 8.43056987,31.4834534 8.54909814,31.2776957 L12.5280056,24.3726834 L16.514815,31.2781896 C16.6334667,31.4835769 16.8518797,31.6074142 17.0848618,31.6074142 C17.1134444,31.6074142 17.1421505,31.6055005 17.1710418,31.6017347 C17.4350758,31.5670405 17.6521925,31.376531 17.7211487,31.1193494 L19.0932986,25.9985579 L24.2142753,27.3705843 C24.47121,27.4394171 24.7448745,27.3466934 24.9071101,27.1353798 C25.0692222,26.9241278 25.0881126,26.6360794 24.9549535,26.4053197 Z M8.20271163,29.241232 L7.07206309,25.0217491 C6.97798128,24.6704857 6.616717,24.4618883 6.26563874,24.556217 L2.04418046,25.687236 L4.83286659,20.8570239 C6.64153385,22.4057933 8.92036324,23.419889 11.4226678,23.6533033 L8.20271163,29.241232 Z M1.99615182,11.8527032 C1.99615182,6.04327478 6.72252817,1.31696016 12.5319566,1.31696016 C18.3414467,1.31696016 23.0676996,6.04327478 23.0676996,11.8527032 C23.0676996,17.662255 18.3414467,22.3885696 12.5319566,22.3885696 C6.72246644,22.3885696 1.99615182,17.662255 1.99615182,11.8527032 Z M18.7981509,24.5561553 C18.4466405,24.4621352 18.0858701,24.6704857 17.9916648,25.0216874 L16.8605224,29.2429605 L13.6336521,23.6537354 C16.1388581,23.421741 18.4202803,22.4070897 20.2307996,20.8569005 L23.0195474,25.6870508 L18.7981509,24.5561553 Z" id="Shape"></path>
                </g>
            </g>
        </g>
    </g>
</svg>