<?xml version="1.0" encoding="UTF-8"?>
<svg width="24px" height="50px" viewBox="0 0 24 50" version="1.1" xmlns="http://www.w3.org/2000/svg" xmlns:xlink="http://www.w3.org/1999/xlink">
    <!-- Generator: Sketch 41 (35326) - http://www.bohemiancoding.com/sketch -->
    <title>pin</title>
    <desc>Created with Sketch.</desc>
    <defs></defs>
    <g id="Page-1" stroke="none" stroke-width="1" fill="none" fill-rule="evenodd">
        <g id="pin">
            <rect id="Rectangle-6-Copy-11" fill="#F2F2F2" x="-0.613525391" y="-1.04443359" width="24.6135254" height="53.2451172"></rect>
            <path d="M6.306,22.186 L6,23.086 L10.644,23.086 C10.536,23.644 10.266,24.094 9.798,24.436 C9.186,24.886 8.286,25.12 7.098,25.12 L6.126,25.12 L6.126,26.146 C6.594,26.146 7.008,26.272 7.368,26.506 C7.656,26.704 7.98,27.028 8.322,27.496 L11.562,31.852 L13.56,31.852 L9.816,27.01 C9.384,26.434 9.078,26.092 8.862,25.948 C9.834,25.786 10.608,25.426 11.22,24.868 C11.724,24.4 12.03,23.806 12.12,23.086 L14.172,23.086 L14.478,22.186 L12.138,22.186 C12.048,21.232 11.652,20.476 10.968,19.9 L14.208,19.9 L14.514,19 L6.324,19 L6.018,19.9 L7.674,19.9 C8.61,19.9 9.348,20.134 9.888,20.602 C10.32,20.998 10.572,21.52 10.662,22.186 L6.306,22.186 Z" id="₹" fill="#484848"></path>
            <path d="M23.7617188,-0.0766601562 L23.7617188,49.8492002" id="Path-2" stroke="#999999"></path>
        </g>
    </g>
</svg>