<?xml version="1.0" encoding="UTF-8"?>
<svg width="20px" height="20px" viewBox="0 0 20 20" version="1.1" xmlns="http://www.w3.org/2000/svg" xmlns:xlink="http://www.w3.org/1999/xlink">
    <!-- Generator: Sketch 41 (35326) - http://www.bohemiancoding.com/sketch -->
    <title>search</title>
    <desc>Created with Sketch.</desc>
    <defs></defs>
    <g id="Page-1" stroke="none" stroke-width="1" fill="none" fill-rule="evenodd">
        <g id="search" fill="#999999">
            <path d="M13.2497879,8.70008484 C13.2497879,11.2085149 11.2085149,13.2497879 8.70008484,13.2497879 C6.19165481,13.2497879 4.15038179,11.2085149 4.15038179,8.70008484 C4.15038179,6.19165481 6.19165481,4.15038179 8.70008484,4.15038179 C11.2085149,4.15038179 13.2497879,6.19165481 13.2497879,8.70008484 Z M18.4494485,17.1495334 C18.4494485,16.8042434 18.3072703,16.469109 18.0736918,16.2355305 L14.5903254,12.7521641 C15.412928,11.5639604 15.8496182,10.1421782 15.8496182,8.70008484 C15.8496182,4.74956143 12.6506083,1.55055147 8.70008484,1.55055147 C4.74956143,1.55055147 1.55055147,4.74956143 1.55055147,8.70008484 C1.55055147,12.6506083 4.74956143,15.8496182 8.70008484,15.8496182 C10.1421782,15.8496182 11.5639604,15.412928 12.7521641,14.5903254 L16.2355305,18.0635362 C16.469109,18.3072703 16.8042434,18.4494485 17.1495334,18.4494485 C17.8604245,18.4494485 18.4494485,17.8604245 18.4494485,17.1495334 Z" id=""></path>
        </g>
    </g>
</svg>