<?xml version="1.0" encoding="UTF-8"?>
<svg width="156px" height="70px" viewBox="0 0 156 70" version="1.1" xmlns="http://www.w3.org/2000/svg" xmlns:xlink="http://www.w3.org/1999/xlink">
    <!-- Generator: Sketch 41 (35326) - http://www.bohemiancoding.com/sketch -->
    <title>signup</title>
    <desc>Created with Sketch.</desc>
    <defs></defs>
    <g id="Page-1" stroke="none" stroke-width="1" fill="none" fill-rule="evenodd">
        <g id="signup">
            <g id="Group-2" transform="translate(11.000000, 2.000000)">
                <g id="Group-17">
                    <g id="Group-13">
                        <g id="002-theater-1" transform="translate(0.594550, 0.399119)">
                            <polygon id="Path-4" fill="#FF2D55" points="0.943220447 24.6559761 1.17083642 50.1820418 4.26758957 56.8869385 11.2195358 62.2927215 19.6270484 63.29542 29.049174 58.9298867 33.6426492 51.4955369 33.7761951 23.7779158 25.6256953 27.9644814 13.7745462 28.4838073 5.1276588 26.2251392"></polygon>
                            <path d="M13.5812581,34.7402998 C12.4628765,33.667237 10.807311,33.0519504 9.03945655,33.0519504 C7.27120442,33.0519504 5.6157715,33.6673631 4.49712466,34.7404259 C4.08071441,35.1398137 4.08363101,35.784862 4.50375329,36.1809709 C4.71255499,36.3779534 4.98525664,36.4761925 5.25769315,36.4761925 C5.5333114,36.4761925 5.80879707,36.3755573 6.01812906,36.1747916 C6.72659655,35.4950632 7.85611433,35.0892439 9.03945655,35.0892439 C10.2226662,35.0892439 11.3520514,35.4949371 12.0605189,36.1746655 C12.4770617,36.5740532 13.1550375,36.5768276 13.5748947,36.1807187 C13.9947518,35.7846098 13.9976684,35.1396876 13.5812581,34.7402998 Z" id="Shape" fill="#FFFFFF"></path>
                            <path d="M11.7235196,38.4003661 C11.0564147,37.7604882 10.0781622,37.3933844 9.03919141,37.3933844 C8.00022065,37.3933844 7.0219681,37.7604882 6.35473066,38.4004922 C5.93818784,38.7998799 5.94123701,39.4448021 6.36109414,39.8410371 C6.56989585,40.0380196 6.8425975,40.1362587 7.11516658,40.1362587 C7.39078482,40.1362587 7.66613793,40.0357497 7.87560249,39.8348578 C8.13942178,39.5816306 8.57452476,39.4305518 9.03932398,39.4305518 C9.5041232,39.4305518 9.93882845,39.5817567 10.2026477,39.8348578 C10.6191906,40.2342455 11.2971664,40.2370199 11.7170235,39.8407849 C12.1370132,39.444676 12.1399298,38.7998799 11.7235196,38.4003661 Z" id="Shape" fill="#FFFFFF"></path>
                            <path d="M30.2147332,34.7405521 C29.0963515,33.6676153 27.4406534,33.0520765 25.6724013,33.0520765 C23.9220465,33.0520765 22.2819919,33.6551305 21.164008,34.7083942 C18.5320459,36.8504845 18.015676,39.2702671 18.0472283,40.9262065 C18.0770571,42.4907167 18.5975368,43.6780345 18.7491997,43.9919202 C19.0812938,44.9724189 18.6476492,45.3938758 18.2894382,45.6261688 C17.2675693,46.2889986 15.1612573,46.2544447 13.8713268,45.2164402 C13.4196523,44.8531197 12.7440628,44.90659 12.3621214,45.3361178 C11.98018,45.7655195 12.0363907,46.408424 12.4879327,46.7717445 C13.5853679,47.655013 15.0761458,48.1137982 16.5140272,48.1137982 C17.6029778,48.1137982 18.6617019,47.8506084 19.4959807,47.3094739 C20.8703599,46.4180083 21.3425831,44.9130215 20.7588664,43.2841956 C20.7428251,43.2394268 20.7234695,43.195667 20.7010648,43.1534204 C20.6961596,43.1443405 20.2138608,42.2009179 20.1888046,40.8891304 C20.154866,39.1109912 20.9606417,37.5447154 22.5839921,36.234189 C22.6074574,36.2152726 22.6298622,36.1955996 22.6513389,36.1747916 C23.359939,35.4950632 24.4893242,35.08937 25.6725339,35.08937 C26.8558761,35.08937 27.9852613,35.4951893 28.6938614,36.1749177 C29.1102716,36.5743054 29.7882474,36.5772059 30.2082371,36.181097 C30.6282268,35.7849881 30.6311434,35.1399398 30.2147332,34.7405521 Z" id="Shape" fill="#FFFFFF"></path>
                            <path d="M28.3572598,38.4004922 C27.6901549,37.7604882 26.7117698,37.3933844 25.672799,37.3933844 C24.6338283,37.3933844 23.6555757,37.7604882 22.9884708,38.4003661 C22.571928,38.7997538 22.5749772,39.4448021 22.9948343,39.840911 C23.4146915,40.2370199 24.0927998,40.2343716 24.5092101,39.8349839 C24.7730294,39.5817567 25.2079998,39.430804 25.6726664,39.430804 C26.1373331,39.430804 26.5723035,39.5820089 26.8361228,39.83511 C27.0454548,40.0358758 27.3209404,40.1363848 27.5965587,40.1363848 C27.8691278,40.1363848 28.1416969,40.0380196 28.3506311,39.8411632 C28.7707534,39.4450544 28.7735374,38.800006 28.3572598,38.4004922 Z" id="Shape" fill="#FFFFFF"></path>
                            <path d="M44.1999398,15.0450753 C43.4959797,13.6905368 42.1304829,12.6083941 40.4535732,12.0759612 C38.7761333,11.5434022 37.0009874,11.628652 35.5828592,12.3097676 C35.0549555,12.5633731 34.8429721,13.1758853 35.1097079,13.6781781 C35.3763113,14.1804709 36.0202159,14.3818672 36.5482522,14.1283878 C37.4465636,13.6968422 38.6529734,13.6520735 39.7754648,14.008458 C40.8978237,14.3648425 41.8340508,15.089844 42.2800247,15.9480169 C42.4668194,16.3073019 42.8462419,16.5155081 43.2407777,16.5155081 C43.4001298,16.5155081 43.5620009,16.4815848 43.7144592,16.4098286 C44.2446167,16.1603847 44.4620356,15.5495119 44.1999398,15.0450753 Z" id="Shape" fill="#FFFFFF"></path>
                            <path d="M41.2195772,17.9575664 C40.7998526,17.149585 39.9938118,16.5069327 39.0085329,16.1940559 C38.023254,15.881179 36.972882,15.9346493 36.1269368,16.340973 C35.5990331,16.5945786 35.3870496,17.2070908 35.6537855,17.7093836 C35.9203888,18.2116764 36.5644261,18.4130727 37.0923298,18.1595933 C37.4266777,17.9989302 37.8896209,17.9865715 38.3305571,18.1265527 C38.7713607,18.2664077 39.1336813,18.5408213 39.2997947,18.8602558 C39.4865893,19.2195408 39.8660119,19.427747 40.2606802,19.427747 C40.4200324,19.427747 40.5819034,19.3938236 40.7342292,19.3220675 C41.2642541,19.0727497 41.481673,18.4618769 41.2195772,17.9575664 Z" id="Shape" fill="#FFFFFF"></path>
                            <path d="M59.9776593,20.0545095 C59.2738318,18.6997188 57.908335,17.6173239 56.230895,17.084891 C54.570822,16.5577547 52.8141037,16.6358163 51.4030019,17.2982677 C46.5203564,19.1838519 45.7466632,23.3610918 46.0225466,25.3856483 C46.0083614,26.4087719 45.4588483,26.6766278 45.0427032,26.788991 C43.8532627,27.110065 41.8662659,26.4430736 40.9883707,25.0698709 C40.6810677,24.5891428 40.0223149,24.4365507 39.517081,24.7288718 C39.0117146,25.0211928 38.8511693,25.6478292 39.158605,26.1284312 C40.2368172,27.8150152 42.3871433,28.9095166 44.3702954,28.9091383 C44.8012887,28.9091383 45.2248578,28.8574335 45.6272154,28.7488535 C47.2276307,28.3169297 48.1764522,27.0318773 48.1649184,25.3108655 C48.1646532,25.2634485 48.1608086,25.2162837 48.1535171,25.1693711 C48.1519263,25.1592823 48.0084828,24.1192601 48.421181,22.8673744 C48.9807696,21.1703234 50.2663252,19.9273915 52.2423185,19.1731326 C52.270689,19.1622872 52.2986618,19.1503069 52.3259717,19.1371915 C53.2242831,18.7057721 54.4308255,18.6611294 55.5529192,19.0173878 C56.6754106,19.3737723 57.6116377,20.0989 58.0576116,20.9570728 C58.3195749,21.4613834 58.9617561,21.6682024 59.4921787,21.4190107 C60.0222036,21.1696929 60.2396225,20.5588201 59.9776593,20.0545095 Z" id="Shape" fill="#FFFFFF"></path>
                            <path d="M56.9974292,22.9670007 C56.5778372,22.1588931 55.7717964,21.5159886 54.7865175,21.2032379 C53.801106,20.8904872 52.750734,20.9439575 51.905054,21.350029 C51.3770177,21.6035084 51.1651668,22.2161467 51.4317702,22.7184395 C51.6982409,23.2207323 52.3424107,23.4222547 52.8703145,23.1687753 C53.2046623,23.0081122 53.6676055,22.9958797 54.1085417,23.1357347 C54.5493453,23.2755898 54.911666,23.5500033 55.0777793,23.8695639 C55.264574,24.2288489 55.6439965,24.4371813 56.0385323,24.4371813 C56.1978844,24.4371813 56.3596229,24.4032579 56.5120813,24.3315018 C57.0421062,24.0823101 57.2595251,23.4714373 56.9974292,22.9670007 Z" id="Shape" fill="#FFFFFF"></path>
                            <path d="M67.5480798,10.1524181 C67.2496591,9.87989622 66.8132304,9.79502475 66.4263838,9.9347537 C62.4686967,11.3635705 56.2692084,11.0635568 50.2472348,9.15161581 C48.5183567,8.60278873 46.8531134,7.94109396 45.2969773,7.18481731 C44.7779559,6.93259898 44.1210591,7.09553202 43.8386797,7.58054786 C43.5441036,8.08649782 43.7498561,8.71981803 44.2866422,8.98149455 C45.9481734,9.79136759 47.7255731,10.4987139 49.569259,11.0841126 C55.194178,12.8698183 60.8334148,13.3331434 65.1412259,12.4163298 L59.2029055,29.3405577 C59.0157131,29.8742517 59.3186413,30.4512011 59.8796882,30.6293934 C60.440735,30.8074595 61.0472543,30.5193001 61.2345792,29.9856061 L67.8222398,11.2095912 C67.9530888,10.8364342 67.8465005,10.4248139 67.5480798,10.1524181 Z" id="Shape" fill="#FFFFFF"></path>
                            <path d="M58.7252468,33.9894459 C58.1868698,33.7577834 57.55198,33.9854104 57.3084443,34.4980441 C55.7668912,37.7419501 53.0227728,40.322648 49.5817208,41.7648324 C46.1172034,43.2167272 42.2297797,43.3879834 38.6353413,42.2468216 C37.2300727,41.8006474 35.9126996,41.1701016 34.7119904,40.3694345 L34.7119904,35.1534335 C36.5330064,35.1917706 38.6349435,35.5665671 40.7443047,36.2363328 C43.6530782,37.1598302 46.1841525,38.518152 47.6883202,39.9629847 C47.9415337,40.2062493 48.3062407,40.312181 48.659679,40.2449648 C49.0127196,40.1776225 49.3065003,39.9462122 49.4417242,39.6286693 C49.4865337,39.523242 50.5262999,37.0164441 49.2338505,34.3491092 C48.2284206,32.2739829 46.1398733,30.7204442 43.0264079,29.7318745 C40.9605305,29.0759807 37.4983994,28.423618 34.7118578,30.1107064 L34.7118578,23.9883588 C34.7118578,23.1543989 33.6426606,22.6556371 32.9616356,23.2010593 C32.0091021,23.9636414 30.8962885,24.5470224 29.767301,25.0369564 C29.6205432,25.1006416 28.5921782,25.4077174 28.5683152,25.5137752 C28.6876304,24.9817206 28.8386305,24.4550888 29.0202549,23.9374107 L36.2785998,3.24995922 C37.3658269,4.45821111 38.7480279,5.63796232 40.3585187,6.7264105 C40.8408175,7.05227658 41.5093807,6.94457935 41.8516829,6.48592033 C42.1942503,6.02726131 42.0810333,5.3912928 41.5988671,5.06555284 C39.4957368,3.64430257 37.8418948,2.07752234 36.8164464,0.534576739 C36.5954481,0.201900769 36.1925602,0.0203035751 35.7822483,0.067594511 C35.3716712,0.115011556 35.0264524,0.383119635 34.8956033,0.756276647 L26.9887137,23.2922362 C26.6525099,24.2505397 26.4102999,25.2364611 26.2626141,26.2318408 C23.5756345,26.9377999 20.5113535,27.3289905 17.3559952,27.3289905 C15.6831953,27.3289905 14.0224595,27.2217977 12.4203207,27.0106909 C11.834085,26.933386 11.2937195,27.322685 11.2125851,27.8798353 C11.1314507,28.4371117 11.5404369,28.9513848 12.1262749,29.0286898 C13.8255893,29.2526596 15.5850916,29.366284 17.3559952,29.366284 C23.2860961,29.366284 28.7893136,28.1074623 32.5702815,25.9405286 L32.5702815,32.4581023 L32.5702815,34.1517484 L32.5702815,40.8882476 L32.5702815,47.7464422 C32.5702815,55.7265039 25.7451836,62.2189819 17.3559952,62.2189819 C8.96680682,62.2189819 2.14170889,55.7262517 2.14170889,47.7460639 L2.14170889,25.937502 C3.70685993,26.8316159 5.59177587,27.5854965 7.69769018,28.1538705 C8.26655882,28.3073454 8.85862765,27.9930813 9.02010096,27.4518208 C9.18144171,26.9105603 8.85107102,26.3474829 8.2820698,26.1938819 C5.59668106,25.4693848 3.33724778,24.4337763 1.74823368,23.1991676 C1.42780593,22.9502281 0.985544035,22.89928 0.611822131,23.067888 C0.238100227,23.2363698 0,23.594646 0,23.9881065 L0,47.7460639 C0,56.8496321 7.78598347,64.2558971 17.3561278,64.2558971 C26.9261395,64.2558971 34.712123,56.8496321 34.712123,47.7460639 L34.712123,42.7848033 C35.7362456,43.3514118 36.8217493,43.8186462 37.9576306,44.1794445 C39.7496132,44.7484491 41.6052306,45.0313119 43.4570034,45.0313119 C45.8419829,45.0313119 48.2203337,44.5616814 50.4454307,43.6291041 C54.3702398,41.9841362 57.5006745,39.0393612 59.2600443,35.3371745 C59.50358,34.8245408 59.264154,34.2211084 58.7252468,33.9894459 Z M34.712123,32.8099469 C36.3122732,30.9808596 38.9433072,30.5828591 42.3484321,31.664119 C44.8645258,32.4628945 46.5224776,33.6446634 47.27655,35.1762592 C47.6525256,35.9399763 47.7504967,36.6970096 47.7351183,37.324781 C46.052508,36.1358238 43.8446454,35.0725975 41.4225457,34.3035838 C39.0989473,33.5658452 36.7611637,33.1558643 34.712123,33.1171488 L34.712123,32.8099469 Z" id="Shape" fill="#FFFFFF"></path>
                            <path d="M26.7353677,48.8988277 C26.7144212,48.5484965 26.5053544,48.2332236 26.1821426,48.0641112 C25.8589308,47.8951249 25.4670465,47.8962599 25.1448953,48.0670117 C23.2467221,49.073615 20.4078144,49.6509428 17.3561278,49.6509428 C14.3043086,49.6509428 11.4655335,49.073615 9.56736028,48.0670117 C9.24520909,47.8961338 8.85332475,47.8951249 8.53011297,48.0641112 C8.20690119,48.2330975 7.99783434,48.5484965 7.97688789,48.8988277 C7.96906611,49.0303596 7.81090711,52.1443731 10.1497513,54.4995878 C11.7997488,56.1609499 14.2243674,57.0033591 17.3562604,57.0033591 C20.4882859,57.0033591 22.9129045,56.1608238 24.5626368,54.4995878 C26.9012159,52.1443731 26.7431895,49.0302335 26.7353677,48.8988277 Z M23.0054401,53.1006589 C21.7762278,54.3385464 19.8754032,54.9661917 17.3558626,54.9661917 C14.8473256,54.9661917 12.9519364,54.343843 11.7223264,53.1165487 C10.9315314,52.3273575 10.5282458,51.3935192 10.3232887,50.6165606 C12.3253988,51.3063777 14.7878006,51.6883624 17.3559952,51.6883624 C19.9273716,51.6883624 22.39269,51.3056211 24.3962583,50.6141645 C24.1939527,51.3825477 23.794114,52.3066756 23.0054401,53.1006589 Z" id="Shape" fill="#FFFFFF"></path>
                        </g>
                        <g id="004-guitar" transform="translate(72.793642, 1.602320)">
                            <g id="Group" transform="translate(0.000000, 0.000000)">
                                <polygon id="Path-5" fill="#FF2D55" points="17.6487242 40.6088875 47.4837149 9.69701276 51.7569435 13.8532178 21.5856448 43.268635"></polygon>
                                <ellipse id="Oval-4" fill="#FF2D55" cx="17.6487242" cy="44.344039" rx="3.21099695" ry="3.27255205"></ellipse>
                                <path d="M60.3081243,5.93207403 L54.9518266,0.473457981 C54.4583399,-0.0294888741 53.658024,-0.0294888741 53.1640633,0.473457981 L46.0228466,7.75145167 C45.7858213,7.99326233 45.6526131,8.32095081 45.6526131,8.66252951 C45.6526131,9.00374586 45.7854658,9.33058884 46.02178,9.57215794 L33.6978866,22.1323014 C31.9045532,21.0064687 30.0350162,20.3781475 28.2374163,20.3079716 C25.9177683,20.2173832 23.8196203,21.0561111 22.1737166,22.7336877 C20.9689171,23.9619458 20.0436888,25.0113219 19.3451752,25.9417253 C17.998042,27.7364629 17.7062638,27.7987877 16.5502914,27.7987877 C12.2028919,27.7987877 8.06739305,29.5737166 4.9057126,32.7967315 C1.74225445,36.0213166 0,40.3078394 0,44.8675768 C0,49.4271935 1.74225445,53.7138371 4.9057126,56.9378182 C8.06917074,60.1619201 12.2753032,61.9378153 16.7490372,61.9378153 C17.000521,61.9378153 17.2511753,61.9312929 17.5006444,61.9201808 C17.5651153,61.9304475 17.6306528,61.9373322 17.6979679,61.9373322 L42.9805084,61.9378153 C43.6786664,61.9378153 44.2446828,61.3610691 44.2446828,60.6494065 C44.2446828,59.9381063 43.6789034,59.3609978 42.9805084,59.3609978 L25.6078577,59.3607562 C26.6770788,58.6790482 27.6783922,57.8693086 28.5922432,56.9376974 C31.7549903,53.7146825 33.4964151,49.4999058 33.4960596,45.0701325 C33.4960596,43.8917584 33.5573306,43.5942661 35.3186656,42.2211874 C36.2337018,41.5078338 37.2633397,40.5647481 38.4663616,39.3386641 C40.1120282,37.6612084 40.9348616,35.5246505 40.8460956,33.1592059 C40.7772397,31.3272667 40.160974,29.4216489 39.0564361,27.5938163 L51.3800924,15.0340352 C51.6171177,15.2745172 51.93805,15.4099167 52.2727297,15.4099167 C52.608002,15.4099167 52.9295268,15.2742756 53.1665521,15.0327065 L60.3078873,7.75422971 C60.5449126,7.51241905 60.6781208,7.18473057 60.6781208,6.84303109 C60.6784763,6.50121082 60.5452681,6.17364313 60.3081243,5.93207403 Z M36.6785983,37.5165085 C35.5552169,38.6614252 34.6078268,39.5311947 33.7823862,40.1748556 C31.7053335,41.7943348 30.9678293,42.7772794 30.9678293,45.0701325 C30.9681848,48.811917 29.489621,52.3792886 26.8044799,55.1156625 C24.1185092,57.8534858 20.5473676,59.3609978 16.7489186,59.3609978 C12.9505882,59.3609978 9.37932807,57.8534858 6.69347591,55.1156625 C4.00762374,52.3784431 2.52834886,48.7387215 2.52834886,44.8675768 C2.52834886,40.9961905 4.00750523,37.3567105 6.69359442,34.6192495 C9.37802444,31.8829964 12.8785326,30.3758468 16.55041,30.3758468 C18.79978,30.3758468 19.7643545,29.6244461 21.3533721,27.5076969 C21.9832668,26.6684859 22.8365579,25.7029342 23.9618355,24.5557226 C25.9784467,22.500332 28.8584226,22.3272477 31.8530002,24.0129169 L17.0120167,39.1382826 C15.7791296,39.2142561 14.6301495,39.7389441 13.7493635,40.6364941 C12.7941515,41.6098968 12.2680739,42.9039824 12.2680739,44.2806847 C12.2680739,45.657387 12.7942701,46.9514726 13.749245,47.9248753 C14.7043384,48.8982779 15.9740829,49.434199 17.3247716,49.434199 C18.6753418,49.434199 19.9452048,48.8982779 20.9002982,47.9248753 C21.7813213,47.0269629 22.2959032,45.8560775 22.3708032,44.5991935 L37.2115497,29.4741902 C38.8645641,32.5264157 38.6947355,35.461601 36.6785983,37.5165085 Z M19.8531205,44.2808055 C19.8531205,44.9692774 19.5901409,45.6161994 19.1127719,46.1029612 C18.635403,46.5896021 18.0004122,46.8575022 17.3250086,46.8575022 C16.649605,46.8575022 16.0147328,46.5894813 15.5371268,46.1029612 C15.0596393,45.6163202 14.7965413,44.9692774 14.7965413,44.2808055 C14.7965413,43.5925751 15.0596393,42.9456531 15.5372453,42.4588914 C16.0146143,41.9721296 16.6494865,41.7041087 17.3248901,41.7041087 C17.3899536,41.7041087 17.4540689,41.7085777 17.5183028,41.7136507 C17.5606118,41.7169119 17.6029208,41.7213809 17.6448743,41.726937 C17.680191,41.7311645 17.7152708,41.7367205 17.7501135,41.7425182 C17.7958594,41.7506108 17.8414868,41.759428 17.8865216,41.7699363 C17.9160312,41.776821 17.9453038,41.7841889 17.9743394,41.7924022 C18.0229296,41.8055677 18.0711643,41.8193372 18.1186878,41.8354015 C18.1435755,41.8437357 18.1682261,41.8532776 18.1927582,41.8623365 C18.2422965,41.8808165 18.2913608,41.8997797 18.3394769,41.9215209 C18.3623499,41.931546 18.3845117,41.9431413 18.4070291,41.9540119 C18.4549082,41.9772026 18.5025503,42.000514 18.5490073,42.0267242 C18.5729468,42.0402521 18.5959383,42.0557125 18.6195223,42.0697235 C18.6626609,42.0961754 18.7060365,42.1222648 18.7476345,42.1512531 C18.7772626,42.1719073 18.8055872,42.1948563 18.8343857,42.2167183 C18.8683989,42.2425662 18.9030046,42.2675686 18.9359511,42.2952283 C18.9845413,42.3361743 19.0309982,42.3805022 19.0768626,42.4255548 C19.0883583,42.4369086 19.1009207,42.4469337 19.1122979,42.458529 C19.1294822,42.475922 19.1445333,42.4950059 19.1612436,42.5131236 C19.1990492,42.553828 19.2369732,42.5946532 19.2718159,42.6374109 C19.3039328,42.6769075 19.3329684,42.7184573 19.3628336,42.7596449 C19.3793069,42.7825939 19.3969653,42.8046975 19.4127275,42.8280089 C19.4444888,42.875598 19.4732874,42.9246366 19.501849,42.9739167 C19.5127521,42.9926383 19.5244849,43.0106352 19.5347955,43.0298399 C19.5627645,43.080811 19.5878892,43.1335938 19.6123028,43.1866183 C19.6209542,43.2054606 19.6301982,43.2240615 19.6383755,43.2430246 C19.6610115,43.2953243 19.6809216,43.3487111 19.7001206,43.4022187 C19.707824,43.4240807 19.7160013,43.4460635 19.7232306,43.468167 C19.7398224,43.5192589 19.7541624,43.5710755 19.7676728,43.6231336 C19.7747836,43.6500686 19.7815388,43.6772451 19.7877015,43.7044216 C19.7986046,43.752977 19.8077301,43.801774 19.8159075,43.8509333 C19.8213591,43.8839074 19.8260996,43.9168816 19.8302475,43.9498558 C19.8360546,43.9956332 19.8407951,44.0411689 19.843995,44.0871878 C19.848617,44.1516868 19.8531205,44.2159442 19.8531205,44.2808055 Z M21.6799929,41.6590561 C21.5755833,41.4793287 21.4589669,41.3060029 21.3326324,41.1391994 C21.3249291,41.1291743 21.3171072,41.1191492 21.3094039,41.1090033 C21.2558362,41.0393106 21.2002537,40.9709465 21.1428936,40.9036695 C21.1309238,40.8896585 21.1190726,40.8749228 21.1068658,40.8611534 C21.0402617,40.784576 20.9719984,40.7093272 20.9004167,40.6367357 C20.8296647,40.5645065 20.7565424,40.4955385 20.682235,40.4281408 C20.6664728,40.4138882 20.650118,40.3998772 20.6341188,40.3858662 C20.5714256,40.3301845 20.5074288,40.2763146 20.4424839,40.2242564 C20.429329,40.2137482 20.4160555,40.2031192 20.4029006,40.1928525 C20.2403013,40.065304 20.0717763,39.9477806 19.8969701,39.8420941 L47.8093063,11.3947968 L49.5922106,13.2120003 L21.6799929,41.6590561 Z M52.2729667,12.299473 L48.7045508,8.66277108 L54.0580042,3.20657072 L57.6264201,6.84315187 L52.2729667,12.299473 Z" id="Shape" fill="#FFFFFF"></path>
                                <path d="M10.7055036,52.8587752 C10.3666528,52.6015413 10.0419676,52.3155475 9.74134157,52.0097313 C6.35193437,48.5551197 6.35193437,42.9336703 9.74134157,39.4786004 C10.2095942,39.0014859 10.2095942,38.227607 9.74122914,37.7502634 C9.27308891,37.2729197 8.51365394,37.2729197 8.04528886,37.7502634 C3.72083789,42.1581874 3.72083789,49.3303735 8.04618826,53.7387559 C8.42888503,54.1281015 8.84137458,54.4913227 9.27230193,54.81868 C9.48759697,54.9819577 9.73875578,55.0609039 9.98800335,55.0609039 C10.3538363,55.0609039 10.7151722,54.8906368 10.950479,54.5690084 C11.3461047,54.0277287 11.2363773,53.2618705 10.7055036,52.8587752 Z" id="Shape" fill="#FFFFFF"></path>
                                <path d="M14.0734375,54.4111161 C13.9255978,54.3793772 13.7709002,54.3414509 13.6132795,54.2981394 C12.9731281,54.1223724 12.315888,54.5087389 12.1434271,55.16036 C11.9711911,55.8119811 12.3500654,56.4827372 12.9895422,56.6585042 C13.1895474,56.7133884 13.3877537,56.7618561 13.5789897,56.8029906 C13.662297,56.8208652 13.7456044,56.8295734 13.8273378,56.8295734 C14.382383,56.8295734 14.8806533,56.4348425 14.9995996,55.859303 C15.1363092,55.19863 14.7215711,54.5502172 14.0734375,54.4111161 Z" id="Shape" fill="#FFFFFF"></path>
                            </g>
                        </g>
                    </g>
                </g>
            </g>
        </g>
    </g>
</svg>