<?xml version="1.0" encoding="UTF-8"?>
<svg width="156px" height="70px" viewBox="0 0 156 70" version="1.1" xmlns="http://www.w3.org/2000/svg" xmlns:xlink="http://www.w3.org/1999/xlink">
    <!-- Generator: Sketch 41 (35326) - http://www.bohemiancoding.com/sketch -->
    <title>signup</title>
    <desc>Created with Sketch.</desc>
    <defs></defs>
    <g id="Page-1" stroke="none" stroke-width="1" fill="none" fill-rule="evenodd">
        <g id="signup">
            <g id="Group-15" transform="translate(10.000000, 1.000000)">
                <g id="Group-21">
                    <g id="Group" transform="translate(0.020133, 0.202348)">
                        <path d="M42.1599402,54.5230409 C52.9478861,54.5230409 61.6932441,45.1793188 61.6932441,33.6532534 C61.6932441,22.1271881 52.9478861,12.7834659 42.1599402,12.7834659 C31.3719944,12.7834659 24.1691265,22.1271881 24.1691265,33.6532534 C24.1691265,45.1793188 31.3719944,54.5230409 42.1599402,54.5230409 Z" id="Oval-2-Copy" fill="#5AC8FA"></path>
                        <path d="M19.5333039,42.0404445 C30.3212498,42.0404445 39.0666078,32.6967223 39.0666078,21.170657 C39.0666078,9.64459158 30.3212498,0.300869448 19.5333039,0.300869448 C8.74535805,0.300869448 1.54249018,9.64459158 1.54249018,21.170657 C1.54249018,32.6967223 8.74535805,42.0404445 19.5333039,42.0404445 Z" id="Oval-2" fill="#FF2D55"></path>
                        <path d="M24.9868851,7.4549723 C25.8094568,7.70214158 26.5879168,8.01840262 27.3008441,8.39508282 C27.4888741,8.49438416 27.6941996,8.54164986 27.8968277,8.54164986 C28.3071615,8.54164986 28.7065468,8.34796165 28.9274225,8.00134649 C29.2571494,7.48344736 29.0635657,6.82013753 28.4950329,6.51963172 C27.6400914,6.06793348 26.7105727,5.68995239 25.732182,5.39595104 C25.1082716,5.20862275 24.4351718,5.51722299 24.2292115,6.08585687 C24.0235686,6.65449075 24.3628159,7.26749946 24.9868851,7.4549723 Z" id="Shape" fill="#FFFFFF"></path>
                        <path d="M33.0558312,19.0600758 C33.0558312,20.6772277 32.8497123,22.3302265 32.4431867,23.9728181 C32.2986336,24.5569181 32.7011924,25.1371155 33.3423984,25.2687946 C33.4304631,25.2868625 33.5185278,25.2955351 33.6051644,25.2955351 C34.1492613,25.2955351 34.6403607,24.9534008 34.7650794,24.4496669 C35.2103217,22.6508238 35.4361164,20.8375264 35.4361164,19.0600758 C35.4361164,15.2744832 34.4218651,12.1211235 32.4216068,9.68802386 C32.0277752,9.20886236 31.2816849,9.111151 30.755677,9.47005236 C30.229669,9.82895371 30.1224047,10.5084524 30.5163949,10.9876139 C32.2013658,13.0373844 33.0558312,15.7533556 33.0558312,19.0600758 L33.0558312,19.0600758 Z" id="Shape" fill="#FFFFFF"></path>
                        <path d="M15.8697313,35.6136238 C12.9121861,33.7760431 10.2677069,30.2520741 8.79551938,26.1873681 C8.5895591,25.6187342 7.91630066,25.3099894 7.29239017,25.4976068 C6.66816234,25.6852242 6.32923233,26.2982329 6.5351926,26.8668668 C8.19001521,31.4357403 11.1036074,35.276693 14.5286094,37.4049506 C14.7337763,37.5324379 14.9671873,37.5935798 15.1980596,37.5935798 C15.5782451,37.5935798 15.951925,37.427933 16.1823212,37.1203446 C16.5525102,36.6254278 16.4127175,35.9509882 15.8697313,35.6136238 L15.8697313,35.6136238 Z" id="Shape" fill="#FFFFFF"></path>
                        <path d="M57.4261049,17.7045474 C53.8029177,14.4900459 48.7264253,12.7198224 43.1317,12.7198224 C41.9514746,12.7198224 40.7847366,12.7996104 39.6503683,12.9548501 C38.7057754,9.83112186 36.9970033,7.13191772 34.5768907,4.98472496 C30.9537035,1.77022347 25.8772111,0 20.2824858,0 C14.6877605,0 9.61126806,1.77022347 5.98808087,4.98472496 C2.10419048,8.43049596 0.0512520568,13.2977071 0.0512520568,19.0600758 C0.0512520568,24.9286838 2.16258292,31.037234 5.84400388,35.8194536 C8.98227997,39.8964458 12.8544284,42.5197647 16.9895015,43.4335683 C16.7116614,43.9086825 16.5534623,44.4502868 16.5534623,45.0251361 L16.5534623,47.337831 C16.5534623,47.93653 17.0862933,48.4219068 17.7435255,48.4219068 L19.0216535,48.4219068 C18.924703,49.0886857 18.7385771,49.5408176 18.5334102,50.0392033 C18.2003511,50.8477793 17.8228631,51.7644738 17.8228631,53.502175 C17.8228631,55.240888 18.2001925,56.1578716 18.5332515,56.9670257 C18.8333061,57.6958137 19.0922639,58.3251559 19.0922639,59.6708553 C19.0922639,61.0165546 18.8333061,61.6458968 18.5332515,62.3746848 C18.2001925,63.1838389 17.8228631,64.1008225 17.8228631,65.8395355 C17.8228631,66.4382344 18.3556941,66.9236113 19.0129263,66.9236113 C19.6701586,66.9236113 20.2029896,66.4382344 20.2029896,65.8395355 C20.2029896,64.4939807 20.4619473,63.8646385 20.7618433,63.1358505 C21.0949023,62.3266964 21.4723903,61.4097128 21.4723903,59.6709998 C21.4723903,57.9322868 21.0949023,57.0151587 20.7618433,56.2061491 C20.4619473,55.4773611 20.2029896,54.8480189 20.2029896,53.5024641 C20.2029896,52.1580656 20.4619473,51.5291571 20.7618433,50.8010918 C21.0176275,50.1799886 21.2989585,49.4936964 21.4160607,48.4221959 L22.8211287,48.4221959 C23.4783609,48.4221959 24.0111919,47.936819 24.0111919,47.3381201 L24.0111919,45.0254251 C24.0111919,44.4505759 23.8529928,43.9089716 23.5751528,43.4338574 C24.175262,43.301311 24.7698176,43.1327734 25.3575501,42.9288226 C28.4844016,49.9331085 33.9060124,54.808414 39.8431585,56.1457299 C39.5624623,56.6227233 39.4026765,57.1672184 39.4026765,57.7453921 L39.4026765,60.0580871 C39.4026765,60.656786 39.9355075,61.1421629 40.5927397,61.1421629 L41.8708676,61.1421629 C41.7739171,61.8089418 41.5877913,62.2610736 41.3826244,62.7594594 C41.0495653,63.5680354 40.6720773,64.4847299 40.6720773,66.2224311 C40.6720773,66.82113 41.2049082,67.3065068 41.8621405,67.3065068 C42.5193728,67.3065068 43.0522037,66.82113 43.0522037,66.2224311 C43.0522037,64.8780326 43.3111615,64.2491241 43.6110574,63.5210588 C43.8668417,62.8999556 44.1481726,62.2136634 44.2652749,61.1421629 L45.6703429,61.1421629 C46.3275751,61.1421629 46.8604061,60.656786 46.8604061,60.0580871 L46.8604061,57.7453921 C46.8604061,57.1705429 46.702207,56.6289386 46.4243669,56.1538243 C50.55944,55.2400207 54.4315884,52.6165574 57.5698645,48.5397097 C61.2511268,43.7574901 63.3624577,37.6489399 63.3624577,31.7803318 C63.362775,26.0175296 61.3098366,21.1503184 57.4261049,17.7045474 L57.4261049,17.7045474 Z M7.79285144,34.5746456 C4.38562105,30.1484364 2.43153721,24.4936081 2.43153721,19.0600758 C2.43153721,13.8961169 4.23567308,9.5660292 7.64877445,6.53798874 C10.8249739,3.71996989 15.311671,2.16815155 20.2824858,2.16815155 C25.2533006,2.16815155 29.7401564,3.71996989 32.9161971,6.53784419 C36.3292985,9.5660292 38.1334344,13.8961169 38.1334344,19.0599312 C38.1334344,24.4936081 36.1793505,30.1484364 32.7721201,34.574501 C29.2704781,39.1234275 24.835033,41.6285098 20.2824858,41.6285098 C15.7299385,41.6285098 11.2943348,39.1234275 7.79285144,34.5746456 L7.79285144,34.5746456 Z M21.6312241,45.0252806 L21.6312241,46.2538998 L18.9337474,46.2538998 L18.9337474,45.0252806 C18.9337474,44.3478055 19.5387756,43.7966614 20.2824858,43.7966614 C21.026196,43.7966614 21.6312241,44.3478055 21.6312241,45.0252806 Z M44.4804383,57.745103 L44.4804383,58.9737223 L41.7829616,58.9737223 L41.7829616,57.745103 C41.7829616,57.067628 42.3879898,56.5164838 43.1317,56.5164838 C43.8754101,56.5164838 44.4804383,57.067628 44.4804383,57.745103 Z M55.6213343,47.294468 C52.1196922,51.84325 47.6842472,54.3483323 43.1317,54.3483323 C39.9229721,54.3483323 36.7118642,53.074471 33.8455572,50.6646428 C31.2696256,48.4989485 29.0392884,45.4415657 27.5169595,42.0056237 C28.2919287,41.6092855 29.050713,41.1493483 29.7893456,40.627402 C31.4916121,44.7357601 34.2162222,48.1601387 37.3778235,50.124484 C37.5829904,50.2519713 37.8164015,50.3131131 38.0472738,50.3131131 C38.4274593,50.3131131 38.8011392,50.1474664 39.0315354,49.8398779 C39.4018831,49.3452503 39.2619317,48.6708106 38.7189455,48.3334462 C35.8051946,46.5230397 33.1961,43.0755342 31.7116945,39.086858 C32.7721201,38.1322932 33.7798657,37.042002 34.7209677,35.8194536 C38.40223,31.037234 40.5135608,24.9286838 40.5135608,19.0600758 C40.5135608,17.678096 40.3942372,16.3484409 40.1611434,15.0766032 C41.1289029,14.951284 42.1242718,14.887974 43.1317,14.887974 C48.1025148,14.887974 52.5893705,16.4397923 55.7654113,19.2576666 C59.1785127,22.2858516 60.9826485,26.6159394 60.9826485,31.7797537 C60.9826485,37.2135751 59.0285647,42.8684034 55.6213343,47.294468 L55.6213343,47.294468 Z" id="Shape" fill="#FFFFFF"></path>
                        <path d="M55.2706623,22.4077018 C54.8768307,21.9285403 54.1307404,21.8308289 53.6047325,22.1897303 C53.0787245,22.5486316 52.9714602,23.2281303 53.3654504,23.7072918 C55.05058,25.7570623 55.9050454,28.4730335 55.9050454,31.7797537 C55.9050454,33.3969056 55.6989264,35.0499044 55.2924008,36.692496 C55.1478478,37.276596 55.5504065,37.8567934 56.1916126,37.9884725 C56.2796773,38.0065404 56.367742,38.015213 56.4543786,38.015213 C56.9984755,38.015213 57.4895749,37.6730787 57.6142935,37.1693448 C58.0595359,35.3705017 58.2853305,33.5572043 58.2853305,31.7797537 C58.2851719,27.9941611 57.2709206,24.840946 55.2706623,22.4077018 L55.2706623,22.4077018 Z" id="Shape" fill="#FFFFFF"></path>
                        <path d="M51.3444057,19.2394542 C50.4894643,18.7877559 49.5599455,18.4097748 48.5815549,18.1157735 C47.9574857,17.9284452 47.2845446,18.2370454 47.0785844,18.8056793 C46.8727828,19.3743132 47.2118714,19.9871774 47.8359406,20.1747947 C48.6585123,20.421964 49.4369723,20.7382251 50.1498996,21.1149053 C50.3379296,21.2142066 50.5432551,21.2614723 50.7458832,21.2614723 C51.156217,21.2614723 51.5556023,21.0677841 51.776478,20.7211689 C52.1065222,20.2032698 51.9129386,19.53996 51.3444057,19.2394542 L51.3444057,19.2394542 Z" id="Shape" fill="#FFFFFF"></path>
                    </g>
                    <g id="Group-2" transform="translate(74.282994, 3.745763)">
                        <path d="M36.4727513,10.97765 L36.4727513,6.44498048 C36.4727513,5.92960814 36.0453864,5.51188652 35.5181165,5.51188652 L32.399746,5.51188652 L32.399746,1.46875093 C32.399746,0.953378587 31.9723811,0.535656967 31.4451112,0.535656967 C30.9178413,0.535656967 30.4904764,0.953262197 30.4904764,1.46875093 L30.4904764,5.51200291 L27.372106,5.51200291 C26.8449552,5.51200291 26.4174712,5.92960814 26.4174712,6.44509687 L26.4174712,10.9777663 C14.8162234,13.2644692 6.05292134,23.3042204 6.05292134,35.3076938 C6.05292134,48.9931107 17.4437613,60.1270388 31.4452303,60.1270388 C35.049313,60.1270388 38.5839743,59.3773745 41.8234453,57.9599842 L41.8840552,58.1968367 C41.9901522,58.6122305 42.3720299,58.9035532 42.8101116,58.9035532 C43.2481934,58.9035532 43.629952,58.6122305 43.7361681,58.1968367 L44.0850617,56.8329855 C45.4670614,56.0579483 46.7797586,55.1540681 48.0013625,54.1263496 C48.4009826,53.7902169 48.4461125,53.2010537 48.1022201,52.8104508 C47.7583278,52.4199643 47.1555635,52.37562 46.7559434,52.711869 C46.1144793,53.2515667 45.4456276,53.7540198 44.7535561,54.2193447 L41.3522604,56.1176561 C39.061113,57.1593414 36.6043306,57.8375425 34.0763405,58.1161788 C34.7459066,56.9372704 35.3328337,55.2351916 35.8455763,52.9953936 C35.960604,52.4923585 35.6369546,51.9935135 35.1224259,51.8810813 C34.6081353,51.7693475 34.0975361,52.0852284 33.9825084,52.5879142 C32.9226101,57.2185836 31.7667364,58.2608509 31.4453494,58.2608509 C31.0996709,58.2608509 29.8678264,57.1120873 28.7798262,52.0074802 C28.7148105,51.7021908 28.6519382,51.3894524 28.5909711,51.0705454 C29.5323884,51.1356071 30.4846417,51.1695928 31.4453494,51.1695928 C31.9725002,51.1695928 32.3999842,50.7519876 32.3999842,50.2364988 C32.3999842,49.7211265 31.9726193,49.3034049 31.4453494,49.3034049 C30.3717574,49.3034049 29.3098348,49.2594097 28.2641067,49.174911 C27.8888972,46.7548258 27.6179986,44.0394607 27.462604,41.1516065 C28.7676804,41.1946706 30.0983582,41.2169009 31.4453494,41.2169009 C32.7916262,41.2169009 34.1213513,41.1946706 35.4257133,41.1517229 C35.3149723,43.1995947 35.1465984,45.1742575 34.9230921,47.0129775 C34.8608152,47.5246254 35.234953,47.9887864 35.7584125,48.0495417 C36.2810384,48.1109953 36.7566292,47.7447178 36.8190252,47.2330699 C37.0538437,45.3015875 37.2288858,43.2249676 37.3416511,41.0726944 C40.6319677,40.9088181 43.7181876,40.6076023 46.4347946,40.1832465 C46.1630624,42.0543228 45.733316,43.8676699 45.1454363,45.6067606 C44.9800393,46.0960617 45.2518905,46.6237713 45.7524873,46.7854362 C46.2526078,46.9473339 46.792857,46.6815005 46.9583731,46.192083 C47.6450862,44.1603893 48.1280597,42.0357005 48.4070555,39.8409452 C48.5799543,39.8076579 48.751186,39.7740213 48.9201553,39.7396864 C51.3285928,39.2492214 53.1754664,38.683918 54.4786376,38.0367929 C53.5829455,40.7171248 51.3708649,43.1910982 48.0327987,45.1854309 C47.5828093,45.4541741 47.4412275,46.0284395 47.7161747,46.4681587 C47.9911219,46.9079943 48.5786445,47.0463813 49.0285148,46.7776381 C50.804538,45.7165158 52.2977549,44.5225932 53.488518,43.2295067 C52.9488642,44.6655194 52.2631037,46.0507862 51.4332609,47.362495 C51.1559322,47.8007011 51.2946561,48.3757812 51.7430974,48.6467358 C52.1914198,48.917574 52.7797758,48.7820967 53.0571045,48.3437741 C55.5304386,44.4344864 56.8377774,39.9266078 56.8377774,35.307461 C56.8375393,23.3042204 48.0742372,13.2644692 36.4727513,10.97765 Z M28.3268599,7.37807444 L34.5636008,7.37807444 L34.5636008,10.6756194 C33.5414497,10.5527122 32.5009609,10.4882325 31.4452303,10.4882325 C30.3896188,10.4882325 29.3490109,10.5527122 28.3268599,10.6756194 L28.3268599,7.37807444 Z M31.4452303,19.4456784 C30.4845226,19.4456784 29.5321503,19.4796641 28.5908521,19.5447258 C28.6518191,19.2258188 28.7146914,18.9129641 28.7797071,18.607791 C29.8677073,13.5031839 31.0995518,12.3544204 31.4452303,12.3544204 C31.7909088,12.3544204 33.0227533,13.5031839 34.1107535,18.607791 C34.1757692,18.9130804 34.2386415,19.2259352 34.2996086,19.5447258 C33.3581913,19.4796641 32.405938,19.4456784 31.4452303,19.4456784 Z M34.6264731,21.4402439 C35.0016825,23.860329 35.2725811,26.5756941 35.4279757,29.4635484 C34.1228993,29.4204843 32.7922215,29.3982539 31.4452303,29.3982539 C30.0982391,29.3982539 28.7676804,29.4204843 27.4624849,29.4635484 C27.6178795,26.5756941 27.8887781,23.860329 28.2639876,21.4402439 C29.3097157,21.3557452 30.3716383,21.31175 31.4452303,21.31175 C32.5188223,21.31175 33.5807449,21.3558615 34.6264731,21.4402439 Z M28.6880183,12.7267501 C28.0111886,14.0037748 27.4211654,15.8315542 26.9106853,18.2271976 C26.8074461,18.7112612 26.7095654,19.213016 26.6163287,19.7293194 C24.0341588,20.0362383 21.5604675,20.5890881 19.268963,21.368548 C21.5417726,16.9321326 24.8703127,13.7682026 28.6880183,12.7267501 Z M25.4661706,39.2005707 C22.0975017,39.0273832 18.9575784,38.7076615 16.2341841,38.2572344 C16.1510689,37.2913187 16.1079632,36.306897 16.1079632,35.3078102 C16.1079632,34.3087234 16.1510689,33.3243017 16.2341841,32.3585024 C18.9575784,31.9080753 22.0973826,31.5881208 25.4661706,31.4150497 C25.4221123,32.6906778 25.3993687,33.9913295 25.3993687,35.3079266 C25.3993687,36.6242909 25.4222314,37.9248263 25.4661706,39.2005707 Z M25.5470234,41.0726944 C25.6942017,43.8936248 25.9493822,46.5610374 26.3028007,48.9657592 C23.3979341,48.5778333 20.6537014,47.8612236 18.1913224,46.8464243 C17.3944637,44.8040228 16.8024163,42.5620134 16.4573331,40.1835957 C19.1729875,40.6078351 22.2581357,40.9089345 25.5470234,41.0726944 Z M25.5470234,29.5425768 C22.2580166,29.7064531 19.1729875,30.0074361 16.4574522,30.4315592 C16.8026544,28.0531414 17.3944637,25.8111321 18.1915605,23.7687306 C20.6539396,22.7539312 23.3980532,22.0373216 26.3030389,21.6493957 C25.9495013,24.0543502 25.6942017,26.7216465 25.5470234,29.5425768 Z M22.4329397,14.1131809 C21.2426529,15.1630134 20.1339333,16.4294467 19.1309536,17.8999106 C18.1979907,19.2676026 17.3891053,20.7670475 16.7102512,22.367402 C15.6372546,22.8442494 14.6165324,23.3752179 13.659278,23.9600748 C11.9744672,24.9893064 10.5497192,26.1405141 9.40503859,27.3836695 C11.6679648,21.3891489 16.4218484,16.5642256 22.4329397,14.1131809 Z M14.6710694,25.5425053 C15.0268694,25.3252062 15.3930291,25.11652 15.7670478,24.9149335 C15.1732142,26.7758839 14.7421579,28.7414684 14.4841196,30.7739768 C14.3111017,30.8072642 14.1393937,30.8410171 13.9704244,30.875352 C11.5632967,31.3654678 9.7171376,31.9304221 8.4142046,32.5771981 C9.29441669,29.949707 11.4405291,27.5160042 14.6710694,25.5425053 Z M7.96207185,35.3076938 C7.96207185,34.9713284 9.12842432,33.7764746 14.2915732,32.7165162 C14.2306061,33.571862 14.1988127,34.4361699 14.1988127,35.3076938 C14.1988127,36.1792178 14.2306061,37.0435256 14.2915732,37.8988714 C9.12842432,36.838913 7.96207185,35.6440592 7.96207185,35.3076938 Z M13.9704244,39.7399192 C14.1393937,39.7743705 14.3111017,39.8081234 14.4841196,39.8412944 C14.742277,41.8738028 15.1732142,43.8393873 15.7670478,45.7003377 C15.3930291,45.4986348 15.0267503,45.290065 14.6710694,45.0727659 C11.4405291,43.099267 9.29441669,40.6655643 8.41408552,38.0379568 C9.7171376,38.6848492 11.5634158,39.2498034 13.9704244,39.7399192 Z M9.40491951,43.2317181 C10.5496001,44.4747571 11.9743482,45.6260812 13.6591589,46.6553129 C14.6164134,47.2401697 15.6371355,47.7711382 16.7101321,48.2479856 C17.3889862,49.8483401 18.1978716,51.347785 19.1308345,52.7154771 C20.1338143,54.185941 21.2425338,55.4523742 22.4328206,56.5022068 C16.4218484,54.0510456 11.6679648,49.2261223 9.40491951,43.2317181 Z M28.6880183,57.8885211 C24.8703127,56.8470686 21.5417726,53.6830223 19.268963,49.2467232 C21.5604675,50.0261832 24.0341588,50.5790329 26.6163287,50.8859518 C26.7094463,51.4022553 26.8075652,51.90401 26.9106853,52.3880736 C27.4214036,54.7838334 28.0111886,56.6116128 28.6880183,57.8885211 Z M35.5100193,39.2821596 C34.180175,39.3275515 32.8218716,39.3509458 31.4452303,39.3509458 C30.0682318,39.3509458 28.709333,39.3275515 27.3790124,39.2821596 C27.3325727,37.9818571 27.3086383,36.6537374 27.3086383,35.3076938 C27.3086383,33.9616502 27.3325727,32.6335306 27.3790124,31.333228 C28.709333,31.2878361 30.0682318,31.2644418 31.4452303,31.2644418 C32.8222288,31.2644418 34.1811276,31.2878361 35.5114482,31.333228 C35.557888,32.6335306 35.5818223,33.9616502 35.5818223,35.3076938 C35.5818223,36.6444263 35.5574117,37.9739426 35.5100193,39.2821596 Z M36.274132,19.7293194 C36.1807761,19.213016 36.0830145,18.7112612 35.9797753,18.2271976 C35.4691761,15.8314378 34.8792721,14.0037748 34.2024423,12.7267501 C38.0201479,13.7682026 41.3486881,16.9321326 43.6214976,21.368548 C41.329874,20.5890881 38.8561827,20.0362383 36.274132,19.7293194 Z M36.5874217,21.649512 C39.4922884,22.037438 42.236521,22.7540476 44.6989001,23.7688469 C45.4958778,25.8112484 46.0878062,28.0532578 46.4330084,30.4316755 C43.7174731,30.0076689 40.632325,29.7064531 37.3434373,29.5426932 C37.1962589,26.7216465 36.9410784,24.0543502 36.5874217,21.649512 Z M46.6561574,38.257118 C43.932644,38.7075451 40.7926017,39.0272668 37.4236947,39.2004543 C37.4683483,37.9178429 37.4909728,36.6157945 37.4909728,35.3075774 C37.4909728,33.9909803 37.4682292,32.690445 37.424171,31.4147006 C40.7928398,31.587888 43.9327631,31.9076098 46.6561574,32.3581532 C46.7392727,33.3239526 46.7823783,34.3083743 46.7823783,35.307461 C46.7824974,36.3032889 46.7392727,37.2868959 46.6561574,38.257118 Z M46.1800903,22.367402 C45.5012363,20.7670475 44.6923509,19.2676026 43.759388,17.8999106 C42.7564082,16.4294467 41.6476887,15.1630134 40.4574019,14.1131809 C46.4684932,16.5642256 51.2223767,21.3890325 53.485303,27.3836695 C52.3409796,26.1406305 50.9161125,24.9894228 49.2311827,23.9600748 C48.2739282,23.3753343 47.253206,22.8442494 46.1800903,22.367402 Z M48.406222,30.7738604 C48.1480645,28.741352 47.7171274,26.7757676 47.1232938,24.9148172 C47.4973125,25.11652 47.8635912,25.3250899 48.2192722,25.5422725 C51.4498125,27.5157715 53.5959249,29.9494742 54.476256,32.5770817 C53.173323,31.9303057 51.3269257,31.3653515 48.9200363,30.8752356 C48.7509479,30.8407844 48.5792399,30.8070314 48.406222,30.7738604 Z M48.5990065,37.898755 C48.6597354,37.0439911 48.6916479,36.1801489 48.6916479,35.3076938 C48.6916479,34.4362862 48.6598545,33.5719784 48.5988874,32.7165162 C53.7621554,33.7764746 54.9283888,34.9713284 54.9283888,35.3076938 C54.9283888,35.6440592 53.7620363,36.838913 48.5990065,37.898755 Z" id="Shape" fill="#FFFFFF"></path>
                        <path d="M60.2644365,8.54778808 L55.1896422,6.85408928 L53.7542964,1.24237351 C53.6480803,0.826979679 53.2662025,0.535656967 52.8282399,0.535656967 C52.3902772,0.535656967 52.0083995,0.826979679 51.9021834,1.24237351 L50.4668375,6.85408928 L45.3920433,8.54778808 C45.0056407,8.67674756 44.7459352,9.03173528 44.7459352,9.4308346 C44.7459352,9.82993391 45.0057597,10.1849216 45.3920433,10.3138811 L50.4668375,12.0075799 L51.9021834,17.6192957 C52.0082804,18.0346895 52.3901581,18.3260122 52.8282399,18.3260122 C53.2663216,18.3260122 53.6480803,18.0346895 53.7542964,17.6192957 L55.1896422,12.0075799 L60.2644365,10.3138811 C60.6508391,10.1849216 60.9105445,9.82993391 60.9105445,9.4308346 C60.9105445,9.03173528 60.65072,8.67674756 60.2644365,8.54778808 Z" id="Shape" fill="#FF2D55"></path>
                        <path d="M15.8437329,12.5287717 L10.7689387,10.8351893 L9.3335928,5.22347354 C9.22725765,4.80807971 8.845499,4.516757 8.40753633,4.516757 C7.96957365,4.516757 7.58769592,4.80807971 7.48147985,5.22347354 L6.04613399,10.8351893 L0.971339749,12.5287717 C0.589342942,12.6564509 0.325231683,13.0171417 0.325231683,13.4118182 C0.325231683,13.8064948 0.589342942,14.1671856 0.971339749,14.2948647 L6.04613399,15.9885636 L7.48147985,21.6002793 C7.587815,22.0156732 7.96957365,22.3069959 8.40753633,22.3069959 C8.845499,22.3069959 9.22737673,22.0156732 9.3335928,21.6002793 L10.7689387,15.9885636 L15.8437329,14.2948647 C16.2301355,14.1659053 16.489841,13.8109175 16.489841,13.4118182 C16.489841,13.0127189 16.2300165,12.6578476 15.8437329,12.5287717 Z" id="Shape" fill="#FF2D55"></path>
                        <path d="M49.0818331,49.100511 L44.0070389,47.4069286 L42.571693,41.7952128 C42.4653579,41.379819 42.0835992,41.0884963 41.6456365,41.0884963 C41.2076739,41.0884963 40.8257961,41.379819 40.7195801,41.7952128 L39.2842342,47.4069286 L34.20944,49.100511 C33.8274431,49.2281902 33.5633319,49.588881 33.5633319,49.9835575 C33.5633319,50.378234 33.8274431,50.7389249 34.20944,50.866604 L39.2842342,52.5603028 L40.7195801,58.1720186 C40.8259152,58.5874125 41.2076739,58.8787352 41.6456365,58.8787352 C42.0835992,58.8787352 42.4654769,58.5874125 42.571693,58.1720186 L44.0070389,52.5603028 L49.0818331,50.866604 C49.4682357,50.7376446 49.7279412,50.3826568 49.7279412,49.9835575 C49.7279412,49.5844582 49.4681167,49.2295869 49.0818331,49.100511 Z" id="Shape-Copy" fill="#FF2D55"></path>
                    </g>
                </g>
            </g>
        </g>
    </g>
</svg>