<?xml version="1.0" encoding="UTF-8"?>
<svg width="122px" height="82px" viewBox="0 0 122 82" version="1.1" xmlns="http://www.w3.org/2000/svg" xmlns:xlink="http://www.w3.org/1999/xlink">
    <!-- Generator: Sketch 41 (35326) - http://www.bohemiancoding.com/sketch -->
    <title>specific-style</title>
    <desc>Created with Sketch.</desc>
    <defs></defs>
    <g id="Page-1" stroke="none" stroke-width="1" fill="none" fill-rule="evenodd">
        <g id="specific-style">
            <g id="001-premium" transform="translate(16.820055, 3.365232)">
                <path d="M26.8311444,74.5452783 C25.1454145,74.5452783 22.6844336,73.719702 17.2179648,67.6015705 C14.4396257,64.4921793 12.1626579,61.4336271 12.0671423,61.3049036 C12.0027806,61.2181179 11.9444099,61.1275664 11.8920304,61.0332491 C10.8524856,59.1619656 10.3030143,57.0412804 10.3030143,54.9003965 L10.3030143,39.3423143 C10.3030143,37.9857536 11.4026415,36.8859552 12.7593734,36.8859552 L32.6284943,36.8859552 C35.474105,36.8859552 38.1582978,37.9850689 40.1867198,39.9809677 L50.3604971,49.9921288 C53.3077857,52.9394174 53.3077857,57.712457 50.3747046,60.6458804 C50.3702541,60.6503309 50.3497131,60.6707007 50.3454337,60.6748089 C48.9371782,62.0830644 47.0479214,62.8655047 45.0383286,62.8655047 C43.0289071,62.8655047 41.139479,62.0828933 39.7185566,60.6619708 L29.5559057,50.4989776 C28.547857,50.4914459 26.9112542,50.483743 25.6039919,50.4779231 L23.7438348,50.469022 C22.3872741,50.4618326 21.2931244,49.3565566 21.3003138,47.9999959 C21.3075031,46.6478858 22.4055898,45.5564749 23.7563306,45.5564749 L23.7693398,45.5564749 L25.626587,45.565376 C26.7878372,45.5705112 28.0295395,45.5765024 28.9822988,45.5823223 C29.4629577,45.5852323 29.8706962,45.5884846 30.159297,45.5919081 C30.8712132,45.5997821 31.6076075,45.6078274 32.3191813,46.3147795 L43.192379,57.1879772 C43.6853626,57.6809608 44.3409623,57.9526153 45.0383286,57.9526153 C45.7358661,57.9526153 46.3914658,57.681132 46.8844494,57.1879772 C46.8888999,57.1835267 46.9094409,57.1631569 46.9137203,57.1590487 C47.9190302,56.1537388 47.9190302,54.4974509 46.9008822,53.4794741 L36.7411412,43.4823492 C35.637577,42.396416 34.176942,41.798331 32.6284943,41.798331 L15.2155614,41.798331 L15.2155614,54.9002253 C15.2155614,56.1561352 15.5250455,57.4009187 16.1118329,58.5099606 C16.5594551,59.103595 18.4372432,61.5671434 20.64266,64.0599628 C25.0035105,68.989285 26.6698977,69.5731624 26.891398,69.6323889 L53.4490049,69.6272537 C55.2593502,69.6272537 57.3692514,68.6792873 59.3752495,67.7083836 C61.0686823,66.8889696 73.6399345,58.3618944 81.1664927,53.1795757 C81.2075747,53.1513319 81.2495125,53.1242863 81.2923062,53.0984388 C82.6957689,52.2530063 83.1500669,50.4228048 82.3044631,49.0184863 C81.8951841,48.3387509 81.245062,47.8589478 80.4747752,47.6675743 C79.7190382,47.4799667 78.9360844,47.5920862 78.2649078,47.9828784 L59.9173602,60.1503292 C58.7869215,60.900075 57.2624383,60.5909333 56.5128636,59.4608369 C55.7629466,58.330227 56.071746,56.805915 57.2025271,56.0561691 L75.6009136,43.8548257 C75.6303557,43.8351406 75.6606536,43.815969 75.6911228,43.7978245 C77.4954769,42.7113777 79.6147927,42.3923078 81.6584493,42.8998412 C83.7026193,43.4073746 85.4266924,44.680402 86.5133104,46.4842426 C88.7416646,50.1853852 87.565351,55.0025879 83.8969028,57.2639789 C81.620962,58.8305711 64.0799903,70.8889835 61.5156198,72.1300012 C58.9966107,73.3491084 56.298895,74.5394584 53.4498608,74.5394584 L26.8325138,74.5445936 C26.8320003,74.5452783 26.8314868,74.5452783 26.8311444,74.5452783 Z" id="Shape" fill="#484848"></path>
                <rect id="Rectangle-path" fill="#5AC8FA" x="2.45635912" y="36.3258711" width="14.403679" height="32.4525265"></rect>
                <path d="M16.8590111,71.2330449 L2.45635912,71.2330449 C1.09979842,71.2330449 0,70.1334177 0,68.7766858 L0,36.324844 C0,34.9682833 1.09962724,33.8684849 2.45635912,33.8684849 L16.8590111,33.8684849 C18.2155718,33.8684849 19.3153702,34.9681121 19.3153702,36.324844 L19.3153702,68.7763435 C19.3153702,70.1330753 18.2155718,71.2330449 16.8590111,71.2330449 Z M4.91254706,66.3203267 L14.402652,66.3203267 L14.402652,38.7812031 L4.91254706,38.7812031 L4.91254706,66.3203267 Z" id="Shape" fill="#484848"></path>
                <path d="M60.3511173,32.4817974 L69.8145189,37.4569945 C71.0945645,38.130054 72.5906327,37.0430937 72.346195,35.6177207 L70.5389309,25.0800257 L78.1948973,17.6173157 C79.2305052,16.6077264 78.6591235,14.849076 77.2279306,14.6412697 L66.6474418,13.1039484 L61.9158266,3.51593144 C61.2756327,2.2189396 59.4266019,2.2189396 58.7865792,3.51593144 L54.0547927,13.1032637 L43.474304,14.640585 C42.0432823,14.8485625 41.4717294,16.6073841 42.5073373,17.616631 L50.1633037,25.079341 L48.3560396,35.617036 C48.1116019,37.042409 49.6078413,38.1293693 50.8877156,37.4563098 L60.3511173,32.4817974 Z" id="Shape" fill="#5AC8FA"></path>
                <path d="M70.6267436,40.117394 C69.9531706,40.117394 69.2770299,39.9491291 68.6715845,39.6310863 L60.3511173,35.2568841 L52.0306501,39.6312574 C51.4253759,39.9493003 50.7492352,40.1175652 50.075491,40.1175652 L50.075491,40.1175652 C48.8355004,40.1175652 47.6626103,39.5698057 46.8570614,38.6144788 C46.0612695,37.6702783 45.7252533,36.426693 45.9349425,35.2024505 L47.5241298,25.9372693 L40.79285,19.3759661 C39.6393026,18.2515185 39.2320777,16.6013929 39.729683,15.069378 C40.2276306,13.5373631 41.5270189,12.4416729 43.1211703,12.2100733 L52.4236676,10.8583055 L56.5839012,2.42879996 C57.2970156,0.984255395 58.7405331,0.0869568244 60.3512885,0.0869568244 C61.9623862,0.0869568244 63.4059037,0.984255395 64.1186758,2.42897114 L68.2789094,10.8583055 L77.5815778,12.2100733 C79.1753869,12.4416729 80.4747752,13.5371919 80.9727228,15.069378 C81.4706704,16.6013929 81.0631031,18.2515185 79.9098981,19.3759661 L73.1786183,25.9372693 L74.7676344,35.2021082 C74.977666,36.4260083 74.6416498,37.6697648 73.8458579,38.6139653 C73.0401378,39.5696345 71.8669054,40.117394 70.6267436,40.117394 Z M60.3511173,30.0254383 C60.7439636,30.0254383 61.1361252,30.1195845 61.4940518,30.3077056 L69.6816873,34.6118973 L68.118005,25.4951247 C67.9814075,24.6983058 68.2457014,23.8852252 68.8244436,23.3210329 L75.4483968,16.8644887 L66.2943081,15.5341177 C65.4942369,15.41789 64.8028617,14.9153207 64.444935,14.1905663 L60.3511173,5.89560423 L56.2574707,14.1903952 C55.8995441,14.9153207 55.2081689,15.41789 54.4080976,15.5339466 L45.2541801,16.8643175 L51.8781333,23.3206906 C52.4568755,23.8852252 52.7211695,24.6979634 52.5845719,25.4949535 L51.0208897,34.6117261 L59.2081828,30.3075345 C59.5661094,30.1195845 59.9586134,30.0254383 60.3511173,30.0254383 Z" id="Shape" fill="#484848"></path>
            </g>
        </g>
    </g>
</svg>