<?xml version="1.0" encoding="UTF-8"?>
<svg width="122px" height="82px" viewBox="0 0 122 82" version="1.1" xmlns="http://www.w3.org/2000/svg" xmlns:xlink="http://www.w3.org/1999/xlink">
    <!-- Generator: Sketch 41 (35326) - http://www.bohemiancoding.com/sketch -->
    <title>ss-request</title>
    <desc>Created with Sketch.</desc>
    <defs></defs>
    <g id="Page-1" stroke="none" stroke-width="1" fill="none" fill-rule="evenodd">
        <g id="ss-request">
            <g id="Group-15" transform="translate(8.000000, 4.000000)">
                <path d="M36.1751175,22.5663546 C31.8274086,18.8894714 24.1388507,20.2038826 19.8745642,15.734451 C21.585121,14.4555352 23.6830531,13.6917081 25.9544093,13.6917081 C31.0776584,13.691979 35.3345762,17.5355006 36.1751175,22.5663546 Z" id="Path" fill="#5AC8FA"></path>
                <g id="002-english-receptionist" transform="translate(0.000000, 0.172863)" fill="#484848">
                    <g id="Group">
                        <path d="M11.468362,24.2072762 C11.468362,32.4310846 17.9668987,39.1220906 25.9541461,39.1220906 C33.942183,39.1220906 40.4404566,32.4310846 40.4404566,24.2072762 C40.4404566,15.9831969 33.9419199,9.2924618 25.9541461,9.2924618 C17.9668987,9.29219084 11.468362,15.9831969 11.468362,24.2072762 Z M25.9544093,34.8951653 C20.2308864,34.8951653 15.5736982,30.1008565 15.5736982,24.2072762 C15.5736982,22.1810616 16.135024,20.2914092 17.088462,18.6754231 C19.4190298,21.1140339 22.6309291,22.0827043 25.8694078,22.7912562 C29.9392171,23.6816201 34.2795575,24.1238215 35.1682575,29.0592987 C35.1708891,29.0723047 35.1748366,29.0820591 35.1777313,29.0942522 C33.4503322,32.5340481 29.9679018,34.8951653 25.9544093,34.8951653 Z M36.1751175,22.3934917 C31.8274086,18.7166086 24.1388507,20.0310198 19.8745642,15.5615882 C21.585121,14.2826723 23.6830531,13.5188452 25.9544093,13.5188452 C31.0776584,13.5191162 35.3345762,17.3626377 36.1751175,22.3934917 Z" id="Shape"></path>
                        <path d="M50.3380656,8.89063293 L50.3380656,9.80213145 L43.5395236,19.7858039 L50.3380656,18.9761851 L50.3380656,31.9701871 C50.3380656,36.7585348 54.1226067,40.6535381 58.7732158,40.6535381 L97.4058771,40.6535381 C102.054907,40.6535381 105.838132,36.7585348 105.838132,31.9701871 L105.838132,8.88927815 C105.838132,4.10174331 102.054907,0.205927131 97.4058771,0.205927131 L58.7732158,0.205927131 C54.1226067,0.207281915 50.3380656,4.10309809 50.3380656,8.89063293 Z" id="Shape"></path>
                        <path d="M2.05266811,72.4245721 L10.1796549,72.4245721 L41.7296901,72.4245721 L77.9695456,72.4245721 C79.1053553,72.4245721 80.0222137,71.4794749 80.0222137,70.3111094 C80.0222137,69.1443696 79.1056184,68.1976467 77.9695456,68.1976467 L49.0032406,68.1976467 C49.4471958,67.3102634 49.6982529,66.329129 49.6982529,65.2973257 L47.1461023,47.3253062 C47.0429425,43.4725722 43.5086691,40.3671369 39.1775394,40.3671369 L30.0294818,40.3671369 L26.1146753,44.5276778 L26.0612533,44.3724196 L25.9462513,44.707864 L25.9094085,44.7466108 L21.5222252,40.3671369 L12.7318055,40.3671369 C8.40067583,40.3671369 4.86482343,43.4725722 4.76324267,47.3253062 L2.2313555,64.9889769 L2.21003933,65.2973257 C2.21003933,66.3318385 2.46241225,67.3102634 2.90636752,68.1976467 L2.05266811,68.1976467 C0.917911074,68.1976467 0,69.1443696 0,70.3111094 C0,71.4794749 0.919490049,72.4245721 2.05266811,72.4245721 Z M27.2518008,60.465083 L26.0609901,61.2633215 L24.8704426,60.4653539 L26.0609901,57.0120101 L27.2518008,60.465083 Z M6.31958616,65.4238625 L8.84384161,47.8040868 L8.86568411,47.495738 C8.86568411,45.9231051 10.6351893,44.5940622 12.7318055,44.5940622 L19.8585113,44.5940622 L24.4159609,49.1455937 L19.9214072,62.1891808 L26.0612533,66.310162 L32.2016257,62.1891808 L27.6473342,48.9762457 L31.7671443,44.595417 L39.1756972,44.595417 C41.2709977,44.595417 43.0418187,45.9244598 43.0418187,47.495738 L45.5902851,65.426843 C45.4968624,66.943117 43.7647263,68.2006273 41.7283743,68.2006273 L10.1796549,68.2006273 C8.14225018,68.1976467 6.41248255,66.9417622 6.31958616,65.4238625 Z" id="Shape"></path>
                    </g>
                </g>
                <rect id="Rectangle-2" fill="#FFFFFF" x="54.3335828" y="3.78271432" width="47.7607405" height="33.4139765" rx="7"></rect>
                <text id="HI!" font-family="Montserrat-Bold, Montserrat" font-size="16" font-weight="bold" letter-spacing="3" fill="#484848">
                    <tspan x="63.1719489" y="26.7542054">HI!</tspan>
                </text>
            </g>
        </g>
    </g>
</svg>