<?xml version="1.0" encoding="UTF-8"?>
<svg width="122px" height="82px" viewBox="0 0 122 82" version="1.1" xmlns="http://www.w3.org/2000/svg" xmlns:xlink="http://www.w3.org/1999/xlink">
    <!-- Generator: Sketch 41 (35326) - http://www.bohemiancoding.com/sketch -->
    <title>ss-request</title>
    <desc>Created with Sketch.</desc>
    <defs></defs>
    <g id="Page-1" stroke="none" stroke-width="1" fill="none" fill-rule="evenodd">
        <g id="ss-request">
            <circle id="Oval-6" fill="#5AC8FA" cx="34.7620152" cy="25.8790949" r="10.9507181"></circle>
            <g id="001-user" transform="translate(2.000000, 1.990209)" stroke="#484848" fill="#484848">
                <path d="M54.4943146,9.34693109 C42.0475476,-3.10005249 21.7947808,-3.10005249 9.34801382,9.34693109 C4.98095888,13.713986 1.99372613,19.20036 0.708967019,25.2131539 C-0.541794588,31.0678702 -0.132092206,37.1337176 1.89368252,42.7545657 C2.13707865,43.4295352 2.88177553,43.7794713 3.5565285,43.5362917 C4.23171456,43.2928956 4.58165064,42.5484153 4.33825451,41.8734457 C2.47705367,36.7090736 2.10069916,31.1358652 3.25011789,25.7558147 C4.42963633,20.2347936 7.17368949,15.1958007 11.1853947,11.1840955 C22.6191661,-0.249675923 41.2231623,-0.249675923 52.6569337,11.1840955 C58.1019477,16.629326 61.1500294,23.8673292 61.2394624,31.5652732 C61.3288953,39.2491417 58.4653095,46.5449624 53.1766408,52.1084262 C53.1140594,52.1742558 53.0521276,52.2405184 52.9901959,52.3067811 C52.8806243,52.4239317 52.7712693,52.5412989 52.6569337,52.6556344 C41.2231623,64.0894058 22.6191661,64.0894058 11.1853947,52.6556344 C11.1245457,52.5947854 11.0652125,52.5328537 11.0065289,52.4709219 C11.0034973,52.3509562 11.0008987,52.2327228 11.0008987,52.1162218 C11.0008987,51.854636 11.0058793,51.5941328 11.0154072,51.3344958 C11.0186554,51.2476615 11.0251517,51.1616933 11.0294826,51.0750754 C11.0379279,50.9024894 11.04594,50.7299033 11.0584996,50.5581835 C11.0660787,50.4557579 11.0771224,50.354415 11.0862173,50.2524225 C11.0998596,50.0975931 11.1126358,49.9427637 11.1295262,49.7888005 C11.1414362,49.6800951 11.1570274,49.5722559 11.1706697,49.4639836 C11.189076,49.317816 11.2066161,49.1712153 11.2282706,49.0256973 C11.244728,48.9148265 11.264217,48.8050384 11.2824067,48.6948172 C11.305577,48.5529805 11.3280976,48.4111438 11.3542995,48.2701732 C11.3748713,48.1586527 11.3984746,48.048215 11.4209953,47.9373442 C11.4489295,47.7989722 11.4764307,47.6603836 11.50718,47.5228778 C11.5320826,47.4113573 11.5598004,47.3004865 11.5864353,47.1896157 C11.618917,47.0542753 11.6511822,46.9189349 11.6862624,46.7846773 C11.7154959,46.6733733 11.7471114,46.5629356 11.7778608,46.4522813 C11.8148899,46.319756 11.8517025,46.1870142 11.8913301,46.0553551 C11.9244615,45.9449173 11.9599748,45.8353457 11.995055,45.7257742 C12.0366316,45.5956309 12.0782081,45.465271 12.1221667,45.3362104 C12.1594124,45.2272885 12.1983904,45.1190162 12.2373684,45.0107439 C12.2834924,44.8825495 12.329833,44.7543551 12.3783389,44.6270269 C12.4194824,44.5194042 12.4621417,44.4128643 12.5050175,44.3061078 C12.5554724,44.1802954 12.6063604,44.054483 12.6591973,43.9297533 C12.7042386,43.8236464 12.7505791,43.7184057 12.7973527,43.6131651 C12.8521385,43.4895181 12.9075739,43.3663042 12.9647417,43.2439565 C13.0134643,43.1397986 13.0632695,43.0362902 13.1137244,42.9329985 C13.1730576,42.811517 13.2330405,42.690252 13.2945391,42.5700697 C13.3467264,42.4682938 13.3997798,42.3669509 13.4536994,42.2660411 C13.5173635,42.1465085 13.5821104,42.027409 13.6481565,41.9089591 C13.7038084,41.8093485 13.76011,41.7101711 13.8172778,41.6116433 C13.8852728,41.4944927 13.9543505,41.3779917 14.0247275,41.2619238 C14.0838442,41.1644787 14.1436105,41.0674667 14.204243,40.9708879 C14.2765689,40.8561192 14.3499775,40.7420002 14.4244689,40.6287474 C14.4868337,40.5336843 14.5496316,40.4390543 14.6135123,40.345074 C14.6899525,40.2324708 14.7681251,40.1211668 14.8469474,40.0100795 C14.9125604,39.9176149 14.9781734,39.8253669 15.0453022,39.7342016 C15.1260734,39.624197 15.2085769,39.5152751 15.2915134,39.4070028 C15.3601581,39.3173533 15.4285862,39.2277038 15.4987466,39.1391371 C15.5838486,39.0315144 15.6708996,38.925191 15.758167,38.8193007 C15.8294102,38.7326829 15.9006534,38.646065 15.9734124,38.5605299 C16.0630618,38.4552892 16.1546602,38.3515644 16.2464751,38.2480561 C16.3205334,38.1644698 16.3941585,38.0806671 16.4695161,37.9983801 C16.5634964,37.895738 16.6594257,37.7950448 16.7555715,37.6943515 C16.8322283,37.6137969 16.908452,37.5330258 16.986408,37.4535539 C17.0849358,37.3535103 17.185629,37.2556322 17.2861057,37.1573209 C17.364928,37.0804476 17.4431006,37.0027081 17.5232221,36.9269175 C17.6267304,36.8290393 17.7326207,36.7335431 17.8380779,36.6378304 C17.9186325,36.5648549 17.9981044,36.4910132 18.0797417,36.4191204 C18.1886636,36.3231911 18.3004006,36.2300769 18.411488,36.1363131 C18.4929088,36.0676685 18.5734634,35.9979411 18.6559669,35.9303792 C18.7709521,35.8363989 18.8887523,35.7452336 19.0061195,35.6534187 C19.0879734,35.589538 19.1685279,35.5241415 19.251248,35.4613436 C19.3748949,35.3675798 19.5011405,35.2770642 19.6271694,35.1861154 C19.7066413,35.1285146 19.7845973,35.0696144 19.8651519,35.0130963 C20.0041736,34.9154347 20.1464434,34.8212378 20.2882801,34.7266078 C20.358224,34.6800507 20.4266521,34.6317613 20.4970291,34.5858538 C20.6819582,34.4656715 20.8701354,34.3493871 21.0596119,34.2346185 C21.089062,34.2168618 21.1176459,34.1978059 21.1473125,34.1800492 C21.3664556,34.0488232 21.5886304,33.921495 21.8134037,33.7976315 C21.890277,33.7554053 21.9693158,33.7157776 22.0470553,33.6744176 C22.1962545,33.5947292 22.3450207,33.5143911 22.4968184,33.4381674 C22.594047,33.3892283 22.6936575,33.3433209 22.7917522,33.2958976 C22.9156157,33.2359148 23.0390461,33.1752823 23.1644254,33.1174649 C25.519348,35.3669302 28.6607605,36.640429 31.921489,36.640429 C35.1822176,36.640429 38.3238467,35.3667136 40.6787692,33.1170318 C45.2757945,35.2445825 49.0382569,39.0620472 51.0809221,43.7043303 C51.3697926,44.3608936 52.136144,44.6595086 52.7933568,44.3704215 C53.4501366,44.0813345 53.7483185,43.3145501 53.4592315,42.6579868 C51.2249243,37.580016 47.3351336,33.5221867 42.4115591,31.0726342 C43.8401038,28.9771321 44.6129515,26.502677 44.6129515,23.9491831 C44.6129515,16.9511112 38.9195609,11.2577206 31.921489,11.2577206 C31.2040768,11.2577206 30.6222214,11.839576 30.6222214,12.5569882 C30.6222214,13.2744005 31.2040768,13.8562558 31.921489,13.8562558 C37.4869018,13.8562558 42.0144163,18.3839869 42.0144163,23.9491831 C42.0144163,26.4377136 41.0895543,28.8339961 39.4104675,30.6960632 C39.4102509,30.6962797 39.4100344,30.6964962 39.4098178,30.6967128 C37.492532,32.8227477 34.7632038,34.0421103 31.9212725,34.0421103 C29.0793412,34.0421103 26.3497965,32.8227477 24.4327272,30.6967128 C24.4325106,30.6962797 24.4320775,30.6960632 24.4316444,30.6958466 C22.7527742,28.83313 21.8281287,26.4374971 21.8281287,23.9493996 C21.8281287,21.2330642 22.8915792,18.6847673 24.822724,16.7744109 C25.3329031,16.2696454 25.337234,15.4469925 24.8324685,14.9370299 C24.3279196,14.4266343 23.5052666,14.4227365 22.9950876,14.9270689 C20.566973,17.3285485 19.2295935,20.5327589 19.2295935,23.9485334 C19.2295935,26.4994288 20.0004923,28.9721516 21.426655,31.066571 C21.4138789,31.0728508 21.4015359,31.0797802 21.3889763,31.0862765 C21.2876334,31.136948 21.1886725,31.190651 21.0881958,31.2424052 C20.9342326,31.3220936 20.7798363,31.4013489 20.6280385,31.4842855 C20.5206324,31.5427525 20.4156083,31.6042512 20.3092849,31.6642341 C20.1674482,31.7445721 20.0253949,31.8244771 19.8855071,31.9074136 C19.7770183,31.9719439 19.6702618,32.0386397 19.5628557,32.1046858 C19.428598,32.1874058 19.2943404,32.2699093 19.1620316,32.3550113 C19.0539759,32.4245221 18.947869,32.4959819 18.8411125,32.5670085 C18.7127016,32.6525436 18.5845072,32.7385118 18.4580451,32.8264289 C18.3517217,32.9004872 18.2466976,32.9760612 18.1416735,33.0516353 C18.018243,33.1406351 17.8952457,33.2300681 17.7737642,33.3212333 C17.6696062,33.3994059 17.5667475,33.4786613 17.4641054,33.5583497 C17.3450059,33.6508142 17.2267725,33.7439284 17.1098384,33.8385584 C17.0084956,33.9204122 16.9080189,34.0033488 16.8079753,34.0867185 C16.6929901,34.1828643 16.5788711,34.2800928 16.4658348,34.3784041 C16.3677401,34.4635061 16.270295,34.5492578 16.1737161,34.6360921 C16.0621957,34.7363523 15.952191,34.8376952 15.842836,34.9399042 C15.7484225,35.0280379 15.6542256,35.1163881 15.5611115,35.2062541 C15.4530557,35.3106286 15.3467323,35.4165189 15.2406255,35.5228423 C15.1501098,35.6135745 15.0595942,35.7040901 14.9708109,35.7961216 C14.8657868,35.9050435 14.7627115,36.0159143 14.6598528,36.1267852 C14.5738846,36.2194663 14.4872668,36.3117143 14.4028144,36.4059112 C14.2999557,36.5202467 14.1999121,36.6369642 14.0994354,36.7532487 C14.0186643,36.846796 13.9372435,36.939477 13.8579882,37.034107 C13.7559957,37.1560216 13.6572513,37.2803182 13.5578574,37.4041818 C13.4840157,37.4964298 13.4086581,37.5873785 13.3361157,37.6807092 C13.2317412,37.8149669 13.1308314,37.9518231 13.0294886,38.0882461 C12.9658244,38.1739978 12.900428,38.2582337 12.8380631,38.3448515 C12.7098687,38.5224181 12.5857887,38.7025832 12.4627913,38.8836145 C12.4305262,38.9312543 12.3963121,38.9775948 12.3642635,39.0254512 C12.2111665,39.2541223 12.0624004,39.4853919 11.917532,39.7192601 C11.8675102,39.8000312 11.8205201,39.8825347 11.771581,39.9637389 C11.6778172,40.1194345 11.5836203,40.2749135 11.4933212,40.4327745 C11.4370196,40.5313023 11.3837496,40.6315625 11.3289638,40.7309564 C11.249925,40.8738759 11.1704532,41.0163622 11.0946626,41.161014 C11.038361,41.2682036 10.985091,41.3766924 10.9303052,41.4847482 C10.8597117,41.6242029 10.7889016,41.7634411 10.7211231,41.9044116 C10.6672035,42.0165817 10.6158824,42.1300511 10.5636952,42.2428708 C10.499598,42.382109 10.4352842,42.5211306 10.3737856,42.6616681 C10.3231141,42.7775194 10.2746082,42.8944535 10.2258856,43.0111711 C10.167202,43.1512754 10.1089515,43.2913798 10.053083,43.4325669 C10.0060929,43.5512333 9.96105158,43.6705494 9.9160103,43.7898655 C9.86274033,43.9314856 9.81011999,44.0733223 9.75944855,44.2160252 C9.71657272,44.3370737 9.67499616,44.4587717 9.63385269,44.5806863 C9.58556324,44.7238223 9.53857306,44.8673914 9.4930987,45.0118266 C9.45433721,45.1346074 9.416875,45.2578213 9.38006242,45.3812517 C9.3367535,45.5269862 9.29496039,45.6731538 9.25446655,45.8199711 C9.2202525,45.9438346 9.18668809,46.0679146 9.15442294,46.1926443 C9.11609455,46.3409774 9.07971506,46.4899601 9.04420174,46.6393758 C9.01453513,46.7641055 8.98508507,46.8886187 8.9575839,47.0137814 C8.92423603,47.1651461 8.89327016,47.317377 8.86295391,47.4698244 C8.83805128,47.5945541 8.81271557,47.7192838 8.78976184,47.8446631 C8.7613945,48.0001421 8.73584223,48.1564873 8.71050651,48.313049 C8.69058441,48.4364795 8.66957958,48.5596933 8.65160638,48.6835569 C8.62800302,48.8450991 8.60808092,49.0075076 8.58772573,49.169916 C8.57278415,49.2903148 8.55632676,49.4104971 8.54311754,49.531329 C8.5244947,49.701533 8.51020276,49.8728198 8.49526118,50.0441066 C8.48530013,50.1582256 8.47339018,50.2719115 8.46516148,50.3866801 C8.45130263,50.577889 8.44220776,50.7699641 8.43289634,50.9622557 C8.4283489,51.0577518 8.42120293,51.1525984 8.41773822,51.2483111 C8.40734408,51.5367485 8.40149737,51.8262686 8.40149737,52.1168715 C8.40149737,52.4306446 8.41210806,52.7273107 8.42488419,53.0549427 C8.42791581,53.1307333 8.4385265,53.2043585 8.45368462,53.2762513 C8.45498389,53.2818814 8.45563352,53.2875116 8.45693279,53.2931417 C8.47295709,53.3639518 8.49547773,53.4319468 8.5225458,53.4977764 C8.52514434,53.5042727 8.52752633,53.5107691 8.53034141,53.5172654 C8.55827566,53.5822288 8.59162353,53.6441605 8.62930229,53.7030607 C8.63406627,53.7104232 8.63861371,53.7177857 8.64337769,53.7249317 C8.68213917,53.7827491 8.72523155,53.8371018 8.77222173,53.8877732 C8.77568644,53.8914545 8.77806843,53.8960019 8.78153314,53.8996832 L8.95303647,54.0822303 C9.08253014,54.2208188 9.21202381,54.3589743 9.34714764,54.4938815 C15.5706394,60.7173733 23.7454146,63.8291192 31.9204063,63.8291192 C40.095398,63.8291192 48.2701732,60.7173733 54.493665,54.4938815 C54.6287888,54.3589743 54.7582825,54.2206023 54.8877762,54.0822303 L55.0592795,53.8996832 C60.8169839,47.8427142 63.9343599,39.9007244 63.8371314,31.5360397 C63.7403359,23.1546809 60.4220065,15.274623 54.4943146,9.34693109 Z" id="Shape"></path>
            </g>
        </g>
    </g>
</svg>