<?xml version="1.0" encoding="UTF-8"?>
<svg width="25px" height="25px" viewBox="0 0 25 25" version="1.1" xmlns="http://www.w3.org/2000/svg" xmlns:xlink="http://www.w3.org/1999/xlink">
    <!-- Generator: Sketch 41 (35326) - http://www.bohemiancoding.com/sketch -->
    <title>stats-question</title>
    <desc>Created with Sketch.</desc>
    <defs></defs>
    <g id="Page-1" stroke="none" stroke-width="1" fill="none" fill-rule="evenodd">
        <g id="stats-question">
            <g id="Group-3" transform="translate(3.000000, 2.000000)">
                <path d="M10.6715482,12.6731362 L10.6715482,12.5894818 C10.6715482,12.0178433 10.9364538,11.5856288 11.424438,11.2370687 L11.9960765,10.832739 C12.8186783,10.2471581 13.3763744,9.46638348 13.3763744,8.36493362 C13.3763744,6.95675088 12.2470398,5.59039536 10.0859672,5.59039536 C8.02249155,5.59039536 6.89315688,7.0404053 6.89315688,8.54618486 C6.89315688,8.75532091 6.90709928,8.97839936 6.9628689,9.17359301 L8.71961172,9.24330503 C8.67778451,9.1178234 8.6638421,8.96445696 8.6638421,8.79714812 C8.6638421,8.01637354 9.09605661,7.22165655 10.0859672,7.22165655 C11.0201083,7.22165655 11.4802076,7.83512229 11.4802076,8.47647284 C11.4802076,8.89474494 11.2989563,9.27118983 10.8806842,9.57792271 L10.2114489,10.0798492 C9.41673188,10.6793726 9.10999901,11.3625503 9.10999901,12.1014977 C9.10999901,12.3106338 9.13788382,12.491885 9.16576862,12.6731362 L10.6715482,12.6731362 Z M8.84509335,14.6947847 C8.84509335,15.3082505 9.33307746,15.7962346 9.94654321,15.7962346 C10.560009,15.7962346 11.0619355,15.3082505 11.0619355,14.6947847 C11.0619355,14.081319 10.560009,13.5793925 9.94654321,13.5793925 C9.33307746,13.5793925 8.84509335,14.081319 8.84509335,14.6947847 Z" id="?" fill="#FFFFFF"></path>
                <circle id="Oval-2" stroke="#FFFFFF" cx="9.9609667" cy="10.4562941" r="9.87586902"></circle>
            </g>
        </g>
    </g>
</svg>