<?xml version="1.0" encoding="UTF-8"?>
<svg width="100px" height="124px" viewBox="0 0 100 124" version="1.1" xmlns="http://www.w3.org/2000/svg" xmlns:xlink="http://www.w3.org/1999/xlink">
    <!-- Generator: Sketch 41 (35326) - http://www.bohemiancoding.com/sketch -->
    <title>tools</title>
    <desc>Created with Sketch.</desc>
    <defs></defs>
    <g id="Page-1" stroke="none" stroke-width="1" fill="none" fill-rule="evenodd">
        <g id="tools">
            <g id="001-group" transform="translate(4.000000, 14.000000)">
                <g id="Group" transform="translate(-0.000000, 0.000000)">
                    <ellipse id="Oval-2-Copy-2" fill-opacity="0.7" fill="#5AC8FA" cx="18.1151254" cy="10.0351526" rx="8.40781794" ry="8.40781794"></ellipse>
                    <ellipse id="Oval-2-Copy-3" fill-opacity="0.7" fill="#5AC8FA" cx="45.9025258" cy="14.1679017" rx="8.40781794" ry="8.40781794"></ellipse>
                    <path d="M54.5596707,83.1777811 C53.4428891,83.086315 52.5129519,83.9249723 52.4375063,85.0177231 L52.2666825,87.4340323 L40.0700117,87.4340323 L38.6393391,67.4165373 C38.5638934,66.3236002 37.6417802,65.4493624 36.5171746,65.5765954 C35.4242376,65.652041 34.5976888,66.6058228 34.6772327,67.6987598 L36.2390503,89.560295 C36.314496,90.5975327 37.1809099,91.4043352 38.2220595,91.4043352 L54.1183604,91.4043352 C55.15951,91.4043352 56.0259239,90.5975327 56.0974576,89.560295 L56.3994264,85.3001319 C56.4791565,84.2030965 55.6524215,83.2571388 54.5596707,83.1777811 Z" id="Shape" fill="#484848"></path>
                    <path d="M46.1703031,23.8445444 C51.646538,23.8445444 56.1054678,19.3856146 56.1054678,13.9093797 C56.1054678,8.43314473 51.646538,3.97421492 46.1703031,3.97421492 C40.6940682,3.97421492 36.2351384,8.43314473 36.2351384,13.9093797 C36.2351384,19.3856146 40.6940682,23.8445444 46.1703031,23.8445444 Z M46.1703031,7.94824356 C49.4569382,7.94824356 52.1314392,10.6227445 52.1314392,13.9093797 C52.1314392,17.1960148 49.4569382,19.8705158 46.1703031,19.8705158 C42.883668,19.8705158 40.209167,17.1960148 40.209167,13.9093797 C40.209167,10.6227445 42.883668,7.94824356 46.1703031,7.94824356 Z" id="Shape" fill="#484848"></path>
                    <path d="M41.2583269,27.818573 C40.1575659,27.818573 39.0407843,28.0132414 37.9478473,28.4027644 C36.9145216,28.7684428 36.3741073,29.9049707 36.7397858,30.9382964 C37.1093762,31.971622 38.2419921,32.5159483 39.2753178,32.1463578 C39.942965,31.9118244 40.6106122,31.7926017 41.2624252,31.7926017 L51.0744552,31.7926017 C54.0749558,31.7926017 56.6183118,34.0379008 56.9918143,37.0145569 L59.4954914,57.0558965 C59.6227244,58.0612793 60.4770297,58.7965482 61.4665783,58.7965482 C61.5461222,58.7965482 61.6295781,58.7926362 61.7050238,58.7807139 C62.7938625,58.6456569 63.5648982,57.6520101 63.4298412,56.5631713 L60.9261641,36.5218317 C60.3101179,31.5582545 56.0698873,27.818573 51.070357,27.818573 L41.2583269,27.818573 L41.2583269,27.818573 Z" id="Shape" fill="#484848"></path>
                    <path d="M83.5784813,79.4818768 C80.8682135,79.4818768 78.4718368,80.8490261 77.0370658,82.9313254 L59.2848025,74.0572429 C59.5551028,73.2623627 59.7339369,72.4238916 59.7339369,71.5377315 C59.7339369,70.6515713 59.5551028,69.812914 59.2848025,69.01822 L77.0370658,60.1441375 C78.4716505,62.2147009 80.8641152,63.5857622 83.5784813,63.5857622 C87.9619654,63.5857622 91.5267248,60.0210028 91.5267248,55.6375186 C91.5267248,51.2540345 87.9619654,47.6892751 83.5784813,47.6892751 C79.1949971,47.6892751 75.6302377,51.2540345 75.6302377,55.6375186 C75.6302377,55.8839744 75.6818388,56.1183215 75.7017713,56.3608653 L57.0950164,65.6641496 C55.6842763,64.3845544 53.8322258,63.5857622 51.7856933,63.5857622 C47.4022091,63.5857622 43.8374497,67.1505216 43.8374497,71.5340058 C43.8374497,75.9174899 47.4022091,79.4822493 51.7856933,79.4822493 C53.8363241,79.4822493 55.6881883,78.6834571 57.0991147,77.403862 L75.7058696,86.7071463 C75.6781131,86.9495037 75.630424,87.1840372 75.630424,87.4304929 C75.630424,91.8139771 79.1951834,95.3787365 83.5786675,95.3787365 C87.9621517,95.3787365 91.5269111,91.8139771 91.5269111,87.4304929 C91.5265385,83.0466361 87.9617791,79.4818768 83.5784813,79.4818768 Z M83.5784813,51.6631174 C85.7682673,51.6631174 87.5525099,53.4475463 87.5525099,55.6371461 C87.5525099,57.8269322 85.7680811,59.6111747 83.5784813,59.6111747 C81.3888815,59.6111747 79.6044526,57.8267459 79.6044526,55.6371461 C79.6042663,53.4475463 81.3886952,51.6631174 83.5784813,51.6631174 Z M51.7856933,75.5076618 C49.5959072,75.5076618 47.8116647,73.723233 47.8116647,71.5336332 C47.8116647,69.3438471 49.5960935,67.5596046 51.7856933,67.5596046 C53.9752931,67.5596046 55.7597219,69.3440334 55.7597219,71.5336332 C55.7597219,73.7234193 53.9754794,75.5076618 51.7856933,75.5076618 Z M83.5784813,91.404149 C81.3886952,91.404149 79.6044526,89.6197201 79.6044526,87.4301203 C79.6044526,85.2403342 81.3888815,83.4560917 83.5784813,83.4560917 C85.7680811,83.4560917 87.5525099,85.2405205 87.5525099,87.4301203 C87.5525099,89.6197201 85.7680811,91.404149 83.5784813,91.404149 Z" id="Shape" fill="#FF2D55"></path>
                    <path d="M18.0098962,19.8705158 C23.4861311,19.8705158 27.9450609,15.411586 27.9450609,9.93535102 C27.9450609,4.45911609 23.4861311,0 18.0098962,0 C12.5336612,0 8.07473142,4.4589298 8.07473142,9.93516474 C8.07473142,15.4113997 12.5336612,19.8705158 18.0098962,19.8705158 Z M18.0098962,3.97402864 C21.2965313,3.97402864 23.9710323,6.64852961 23.9710323,9.93516474 C23.9710323,13.2217999 21.2965313,15.8963008 18.0098962,15.8963008 C14.723261,15.8963008 12.0487601,13.2217999 12.0487601,9.93516474 C12.0487601,6.64871589 14.723261,3.97402864 18.0098962,3.97402864 Z" id="Shape" fill="#484848"></path>
                    <path d="M35.8417034,56.5791919 L33.2107932,33.4976729 C32.5869231,27.9934951 28.2272834,23.8445444 23.0807738,23.8445444 L12.9310082,23.8445444 C7.7844986,23.8445444 3.42895726,27.9934951 2.80098882,33.4976729 L0.17026495,56.5791919 C-0.0482479453,58.5106 0.547865665,60.4300858 1.80361624,61.8369139 C2.88854301,63.0490737 4.32722595,63.7563997 5.88494533,63.8437676 L8.07864341,93.5382357 C8.15818732,94.5754734 9.02050292,95.3781776 10.0616526,95.3781776 L25.9579534,95.3781776 C26.9991031,95.3781776 27.861605,94.5754734 27.9331386,93.5382357 L30.1268367,63.8437676 C31.6847424,63.7563997 33.1273373,63.0529857 34.2081658,61.8369139 C35.4680147,60.4259875 36.0641283,58.5106 35.8417034,56.5791919 Z M31.2475303,59.1901695 C31.0210071,59.4444492 30.5241837,59.8777493 29.7930131,59.8777493 L28.2868948,59.8777493 C27.2457451,59.8777493 26.3793312,60.6804535 26.3038856,61.7176912 L24.1101875,91.404149 L11.9056928,91.404149 L9.7159067,61.7176912 C9.63636279,60.6804535 8.7740472,59.8777493 7.73289752,59.8777493 L6.22677923,59.8777493 C5.49560863,59.8777493 5.00269719,59.4446355 4.77226202,59.1901695 C4.26761459,58.6218124 4.02916915,57.8349424 4.12044904,57.0283262 L6.7513592,33.9468072 C7.14870618,30.4535815 9.80737288,27.8187593 12.9351065,27.8187593 L23.0848721,27.8187593 C26.2085074,27.8187593 28.8671741,30.4535815 29.2686194,33.9468072 L31.8995296,57.0283262 C31.9908094,57.8349424 31.752364,58.6218124 31.2475303,59.1901695 Z" id="Shape" fill="#484848"></path>
                </g>
            </g>
        </g>
    </g>
</svg>