<?xml version="1.0" encoding="UTF-8"?>
<svg width="100px" height="124px" viewBox="0 0 100 124" version="1.1" xmlns="http://www.w3.org/2000/svg" xmlns:xlink="http://www.w3.org/1999/xlink">
    <!-- Generator: Sketch 41 (35326) - http://www.bohemiancoding.com/sketch -->
    <title>tools</title>
    <desc>Created with Sketch.</desc>
    <defs></defs>
    <g id="Page-1" stroke="none" stroke-width="1" fill="none" fill-rule="evenodd">
        <g id="tools">
            <g id="Group-13" transform="translate(8.573862, 9.903493)">
                <g id="006-invoice" transform="translate(0.000000, 0.013677)">
                    <path d="M74.0164719,1.59758708 C74.0164719,4.31008708 72.1027654,6.37387303 69.5565627,6.37387303 C67.1769148,6.37387303 65.0966536,4.31034451 65.0966536,1.59758708 L59.7048616,1.59758708 C59.7048616,4.31008708 57.7911551,6.37387303 55.2449524,6.37387303 C52.8653045,6.37387303 50.7850433,4.31034451 50.7850433,1.59758708 L45.3765186,1.59758708 C45.3765186,4.31008708 43.4628121,6.37387303 40.9166094,6.37387303 C38.5369615,6.37387303 36.4567003,4.31034451 36.4567003,1.59758708 L31.0481755,1.59758708 C31.0481755,4.31008708 29.1344691,6.37387303 26.5882664,6.37387303 C24.0420637,6.37387303 22.1283573,4.31034451 22.1283573,1.59758708 L16.7198325,1.59758708 C16.7198325,4.31008708 14.8061261,6.37387303 12.2599234,6.37387303 C9.88027548,6.37387303 7.80001425,4.31034451 7.80001425,1.59758708 L1.60839898,1.59758708 L1.60839898,100.266223 L7.81571725,100.266223 C7.81571725,97.5537228 9.72942372,95.4899369 12.2756264,95.4899369 C14.6552743,95.4899369 16.7355355,97.5534654 16.7355355,100.266223 L22.1440603,100.266223 C22.1440603,97.5537228 24.0577667,95.4899369 26.6039694,95.4899369 C29.1501721,95.4899369 31.0638785,97.5534654 31.0638785,100.266223 L36.4724033,100.266223 C36.4724033,97.5537228 38.3861097,95.4899369 40.9323124,95.4899369 C43.3119603,95.4899369 45.3922216,97.5534654 45.3922216,100.266223 L50.8007463,100.266223 C50.8007463,97.5537228 52.7144528,95.4899369 55.2606554,95.4899369 C57.6403034,95.4899369 59.7205646,97.5534654 59.7205646,100.266223 L65.1290893,100.266223 C65.1290893,97.5537228 67.0427958,95.4899369 69.5889985,95.4899369 C71.9686464,95.4899369 74.0489076,97.5534654 74.0489076,100.266223 L81.2048415,100.266223 L81.2048415,1.59758708 L74.0164719,1.59758708 Z" id="Shape" stroke="#193651" stroke-width="2" fill="#FFFFFF"></path>
                    <path d="M62.4006289,92.2947627 C60.4869224,90.3810562 57.9407197,89.1163213 55.244695,89.1163213 C52.5486703,89.1163213 49.9859923,90.3810562 48.0887611,92.2947627 C46.1750547,90.3810562 43.628852,89.1163213 40.9328273,89.1163213 C38.2368025,89.1163213 35.6741246,90.3810562 33.7768934,92.2947627 C31.8631869,90.3810562 29.3169843,89.1163213 26.6209595,89.1163213 C23.9249348,89.1163213 21.3622569,90.3810562 19.4650257,92.2947627 C17.5513192,90.3810562 15.0051165,89.1163213 12.3090918,89.1163213 C10.5616827,89.1163213 8.96409559,89.5989954 7.53280584,90.3810562 L7.53280584,11.4495457 C8.96409559,12.2483392 10.5616827,12.7310134 12.3090918,12.7310134 C15.0215918,12.7310134 17.5677945,11.6161004 19.4650257,9.55257191 C21.3787321,11.4662784 23.9249348,12.7310134 26.6209595,12.7310134 C29.3169843,12.7310134 31.8796622,11.6161004 33.7768934,9.55257191 C35.6905999,11.4662784 38.2368025,12.7310134 40.9328273,12.7310134 C43.628852,12.7310134 46.19153,11.6161004 48.0887611,9.55257191 C50.0024676,11.4662784 52.5486703,12.7310134 55.244695,12.7310134 C57.9407197,12.7310134 60.5033977,11.6161004 62.4006289,9.55257191 C64.3143353,11.4662784 66.860538,12.7310134 69.5565627,12.7310134 C71.6200913,12.7310134 73.7003525,12.0985172 75.2812069,10.8173069 L75.2812069,90.8637304 C73.6836198,89.7488175 71.6200913,88.9500239 69.5565627,88.9500239 C66.860538,89.1163213 64.3143353,90.3810562 62.4006289,92.2947627 Z" id="SVGCleanerId_0" fill="#FDBF5E"></path>
                    <path d="M74.0164719,1.59758708 C74.0164719,4.31008708 72.1027654,6.37387303 69.5565627,6.37387303 C67.1769148,6.37387303 65.0966536,4.31034451 65.0966536,1.59758708 L59.7048616,1.59758708 C59.7048616,4.31008708 57.7911551,6.37387303 55.2449524,6.37387303 C52.8653045,6.37387303 50.7850433,4.31034451 50.7850433,1.59758708 L45.3765186,1.59758708 C45.3765186,4.31008708 43.4628121,6.37387303 40.9166094,6.37387303 C38.5369615,6.37387303 36.4567003,4.31034451 36.4567003,1.59758708 L31.0481755,1.59758708 C31.0481755,4.31008708 29.1344691,6.37387303 26.5882664,6.37387303 C24.0420637,6.37387303 22.1283573,4.31034451 22.1283573,1.59758708 L16.7198325,1.59758708 C16.7198325,4.31008708 14.8061261,6.37387303 12.2599234,6.37387303 C9.88027548,6.37387303 7.80001425,4.31034451 7.80001425,1.59758708 L1.60839898,1.59758708 L1.60839898,100.266223 L7.81571725,100.266223 C7.81571725,97.5537228 9.72942372,95.4899369 12.2756264,95.4899369 C14.6552743,95.4899369 16.7355355,97.5534654 16.7355355,100.266223 L22.1440603,100.266223 C22.1440603,97.5537228 24.0577667,95.4899369 26.6039694,95.4899369 C29.1501721,95.4899369 31.0638785,97.5534654 31.0638785,100.266223 L36.4724033,100.266223 C36.4724033,97.5537228 38.3861097,95.4899369 40.9323124,95.4899369 C43.3119603,95.4899369 45.3922216,97.5534654 45.3922216,100.266223 L50.8007463,100.266223 C50.8007463,97.5537228 52.7144528,95.4899369 55.2606554,95.4899369 C57.6403034,95.4899369 59.7205646,97.5534654 59.7205646,100.266223 L65.1290893,100.266223 C65.1290893,97.5537228 67.0427958,95.4899369 69.5889985,95.4899369 C71.9686464,95.4899369 74.0489076,97.5534654 74.0489076,100.266223 L81.2048415,100.266223 L81.2048415,1.59758708 L74.0164719,1.59758708 Z" id="Shape" fill="#FFFFFF"></path>
                    <path d="M82.7699928,101.847077 L72.4188848,101.847077 L72.4188848,100.24949 C72.4188848,98.502081 71.1541498,97.0710487 69.5565627,97.0710487 C67.9589757,97.0710487 66.6942407,98.5023384 66.6942407,100.24949 L66.6942407,101.847077 L58.1070171,101.847077 L58.1070171,100.24949 C58.1070171,98.502081 56.8422821,97.0710487 55.244695,97.0710487 C53.6471079,97.0710487 52.3823729,98.5023384 52.3823729,100.24949 L52.3823729,101.847077 L43.7951493,101.847077 L43.7951493,100.24949 C43.7951493,98.502081 42.5304144,97.0710487 40.9328273,97.0710487 C39.3352402,97.0710487 38.0705052,98.5023384 38.0705052,100.24949 L38.0705052,101.847077 L29.4832816,101.847077 L29.4832816,100.24949 C29.4832816,98.502081 28.2185466,97.0710487 26.6209595,97.0710487 C25.0233725,97.0710487 23.7586375,98.5023384 23.7586375,100.24949 L23.7586375,101.847077 L15.1714139,101.847077 L15.1714139,100.24949 C15.1714139,98.502081 13.9066789,97.0710487 12.3090918,97.0710487 C10.7115047,97.0710487 9.44676974,98.5023384 9.44676974,100.24949 L9.44676974,101.847077 L0.0275446048,101.847077 L0.0275446048,-1.70530257e-13 L9.41356176,-1.70530257e-13 L9.41356176,1.59758708 C9.41356176,3.34499621 10.6950294,4.77602853 12.2758838,4.77602853 C13.8567382,4.77602853 15.1382059,3.34473879 15.1382059,1.59758708 L15.1382059,-1.70530257e-13 L23.7254295,-1.70530257e-13 L23.7254295,1.59758708 C23.7254295,3.34499621 24.9901645,4.77602853 26.5877516,4.77602853 C28.1853386,4.77602853 29.4500736,3.34473879 29.4500736,1.59758708 L29.4500736,-1.70530257e-13 L38.0372972,-1.70530257e-13 L38.0372972,1.59758708 C38.0372972,3.34499621 39.3020322,4.77602853 40.8996193,4.77602853 C42.4972064,4.77602853 43.7619414,3.34473879 43.7619414,1.59758708 L43.7619414,-1.70530257e-13 L52.3823729,-1.70530257e-13 L52.3823729,1.59758708 C52.3823729,3.34499621 53.6471079,4.77602853 55.244695,4.77602853 C56.8422821,4.77602853 58.1070171,3.34473879 58.1070171,1.59758708 L58.1070171,-1.70530257e-13 L66.6942407,-1.70530257e-13 L66.6942407,1.59758708 C66.6942407,3.34499621 67.9589757,4.77602853 69.5565627,4.77602853 C71.1541498,4.77602853 72.4188848,3.34473879 72.4188848,1.59758708 L72.4188848,-1.70530257e-13 L82.7699928,-1.70530257e-13 L82.7699928,101.847077 L82.7699928,101.847077 Z M75.4477616,98.6686357 L79.5915514,98.6686357 L79.5915514,3.17844145 L75.4477616,3.17844145 C74.8152654,5.89094146 72.4188848,7.95472741 69.5565627,7.95472741 C66.6942407,7.95472741 64.4641574,5.89119888 63.6653639,3.17844145 L60.9528639,3.17844145 C60.3203677,5.89094146 57.923987,7.95472741 55.061665,7.95472741 C52.1993429,7.95472741 49.9692596,5.89119888 49.1704661,3.17844145 L46.4579661,3.17844145 C45.8254699,5.89094146 43.4290893,7.95472741 40.5667672,7.95472741 C37.7044451,7.95472741 35.4743619,5.89119888 34.6755683,3.17844145 L31.9630683,3.17844145 C31.3305721,5.89094146 28.9341915,7.95472741 26.0718694,7.95472741 C23.2095474,7.95472741 20.9794641,5.89119888 20.1806705,3.17844145 L17.4681705,3.17844145 C16.8356743,5.89119888 14.4392937,7.95472741 11.5769717,7.95472741 C8.71464959,7.95472741 6.48456631,5.89119888 5.68577277,3.17844145 L3.20624348,3.17844145 L3.20624348,98.6683783 L6.55123969,98.6683783 C7.1837359,95.9558783 9.58011652,93.8920924 12.4424386,93.8920924 C15.3047606,93.8920924 17.5348439,95.9556209 18.3336375,98.6683783 L21.0461375,98.6683783 C21.6786337,95.9558783 24.0750143,93.8920924 26.9373364,93.8920924 C29.7996584,93.8920924 32.0297417,95.9556209 32.8285352,98.6683783 L35.5410352,98.6683783 C36.1735314,95.9558783 38.5699121,93.8920924 41.4322341,93.8920924 C44.2945562,93.8920924 46.5246395,95.9556209 47.323433,98.6683783 L50.035933,98.6683783 C50.6684292,95.9558783 53.0648098,93.8920924 55.9271319,93.8920924 C58.789454,93.8920924 61.0195372,95.9556209 61.8183308,98.6683783 L64.5308308,98.6683783 C65.163327,95.9558783 67.5597076,93.8920924 70.4220297,93.8920924 C73.2843517,93.8920924 74.6654434,95.9558783 75.4477616,98.6686357 Z" id="Shape" fill="#484848"></path>
                    <path d="M62.4006289,92.2947627 C60.4869224,90.3810562 57.9407197,89.1163213 55.244695,89.1163213 C52.5486703,89.1163213 49.9859923,90.3810562 48.0887611,92.2947627 C46.1750547,90.3810562 43.628852,89.1163213 40.9328273,89.1163213 C38.2368025,89.1163213 35.6741246,90.3810562 33.7768934,92.2947627 C31.8631869,90.3810562 29.3169843,89.1163213 26.6209595,89.1163213 C23.9249348,89.1163213 21.3622569,90.3810562 19.4650257,92.2947627 C17.5513192,90.3810562 15.0051165,89.1163213 12.3090918,89.1163213 C10.5616827,89.1163213 8.96409559,89.5989954 7.53280584,90.3810562 L7.53280584,11.4495457 C8.96409559,12.2483392 10.5616827,12.7310134 12.3090918,12.7310134 C15.0215918,12.7310134 17.5677945,11.6161004 19.4650257,9.55257191 C21.3787321,11.4662784 23.9249348,12.7310134 26.6209595,12.7310134 C29.3169843,12.7310134 31.8796622,11.6161004 33.7768934,9.55257191 C35.6905999,11.4662784 38.2368025,12.7310134 40.9328273,12.7310134 C43.628852,12.7310134 46.19153,11.6161004 48.0887611,9.55257191 C50.0024676,11.4662784 52.5486703,12.7310134 55.244695,12.7310134 C57.9407197,12.7310134 60.5033977,11.6161004 62.4006289,9.55257191 C64.3143353,11.4662784 66.860538,12.7310134 69.5565627,12.7310134 C71.6200913,12.7310134 73.7003525,12.0985172 75.2812069,10.8173069 L75.2812069,90.8637304 C73.6836198,89.7488175 71.6200913,88.9500239 69.5565627,88.9500239 C66.860538,89.1163213 64.3143353,90.3810562 62.4006289,92.2947627 Z" id="SVGCleanerId_0_1_" fill="#5AC8FA"></path>
                    <g id="Group" transform="translate(14.886698, 21.623802)" fill="#484848">
                        <rect id="Rectangle-path" x="12.8326995" y="0.110178419" width="27.3754758" height="3.32826351"></rect>
                        <rect id="Rectangle-path" x="0.251508239" y="10.7609306" width="52.5211257" height="3.32826351"></rect>
                        <rect id="Rectangle-path" x="0.251508239" y="21.428158" width="52.5211257" height="3.32826351"></rect>
                        <polygon id="Shape" points="53.4051301 51.6494805 53.4051301 48.321217 37.1960312 48.321217 37.0130012 48.321217 37.0130012 51.6494805 37.1960312 51.6494805"></polygon>
                        <polygon id="Shape" points="37.1960312 55.810003 37.0130012 55.810003 37.0130012 59.1382665 37.1960312 59.1382665 40.0251453 59.1382665 40.1917 59.1382665 40.1917 55.810003 40.0251453 55.810003"></polygon>
                        <polygon id="Shape" points="43.7029936 55.810003 43.6198449 55.810003 43.6198449 59.1382665 43.7029936 59.1382665 46.881435 59.1382665 46.9481084 59.1382665 46.9481084 55.810003 46.881435 55.810003"></polygon>
                        <polygon id="Shape" points="53.4051301 55.810003 50.2264312 55.810003 50.1432826 55.810003 50.1432826 59.1382665 50.2264312 59.1382665 53.4051301 59.1382665 53.4715461 59.1382665 53.4715461 55.810003"></polygon>
                    </g>
                </g>
            </g>
        </g>
    </g>
</svg>