<?xml version="1.0" encoding="UTF-8"?>
<svg width="100px" height="124px" viewBox="0 0 100 124" version="1.1" xmlns="http://www.w3.org/2000/svg" xmlns:xlink="http://www.w3.org/1999/xlink">
    <!-- Generator: Sketch 41 (35326) - http://www.bohemiancoding.com/sketch -->
    <title>tools</title>
    <desc>Created with Sketch.</desc>
    <defs></defs>
    <g id="Page-1" stroke="none" stroke-width="1" fill="none" fill-rule="evenodd">
        <g id="tools">
            <g id="Group-14" transform="translate(3.000000, 15.000000)">
                <ellipse id="Oval-2" fill="#5AC8FA" cx="16.0732475" cy="40.7359854" rx="7.65392736" ry="7.65392736"></ellipse>
                <circle id="Oval-2-Copy" fill="#5AC8FA" cx="79.5639702" cy="40.7359854" r="7.65392736"></circle>
                <ellipse id="Oval-2-Copy-2" fill-opacity="0.7" fill="#5AC8FA" cx="48.1479868" cy="9.41368287" rx="7.65392736" ry="7.65392736"></ellipse>
                <g id="003-team" transform="translate(0.467041, 0.228799)" fill="#484848">
                    <path d="M71.9349159,17.6386641 C70.4337257,16.2611531 68.8086731,14.9996256 67.1048323,13.8888951 C66.4197414,13.4423675 65.5019504,13.6354903 65.0552396,14.3209477 C64.6085287,15.0058554 64.8018347,15.9236464 65.4871089,16.3705404 C67.0549942,17.3925884 68.5505043,18.5537067 69.9322296,19.8214639 C70.2166,20.0823811 70.5753612,20.2113739 70.9332063,20.2113739 C71.3337435,20.2113739 71.732815,20.0499497 72.0250642,19.7314988 C72.5780475,19.1286774 72.5377373,18.1918306 71.9349159,17.6386641 Z" id="Shape"></path>
                    <path d="M28.6547213,14.3819627 C28.2056285,13.6981544 27.2872878,13.5075968 26.6034795,13.9570561 C24.9036697,15.0732834 23.2830146,16.3399413 21.7871381,17.7216666 C21.1861489,18.2768486 21.1489536,19.2140618 21.7039524,19.8150509 C21.9960184,20.1311199 22.393624,20.2910783 22.7925122,20.2910783 C23.1518231,20.2910783 23.5124166,20.1611693 23.7969703,19.8980534 C25.1737484,18.6266316 26.6650442,17.4607493 28.2294482,16.4333878 C28.913623,15.984295 29.1039973,15.0657711 28.6547213,14.3819627 Z" id="Shape"></path>
                    <path d="M79.4437985,27.2350678 C78.471039,25.4500568 77.3412527,23.7315577 76.0857718,22.1273932 C75.5817105,21.4829789 74.6507271,21.3695606 74.0063128,21.8738051 C73.3620818,22.3780496 73.2486634,23.3090331 73.7527247,23.9530809 C74.9081629,25.4295352 75.9476176,27.0107962 76.8426883,28.652889 C77.1114843,29.1461399 77.6199431,29.4255631 78.1447092,29.4255631 C78.3840055,29.4255631 78.6269663,29.3674797 78.852154,29.2449 C79.5702261,28.8531577 79.8351743,27.953323 79.4437985,27.2350678 Z" id="Shape"></path>
                    <path d="M19.7302162,21.9641367 C19.0843361,21.4622741 18.1537191,21.5788074 17.6516733,22.2246875 C16.4009563,23.8339824 15.2763005,25.5570622 14.309221,27.3464706 C13.9202272,28.0661917 14.1882903,28.9647438 14.9078282,29.3539208 C15.1317333,29.4750348 15.3728618,29.5322021 15.6108755,29.5322021 C16.1376571,29.5322021 16.6473985,29.2507633 16.9150952,28.7549472 C17.8048523,27.1088234 18.839543,25.5235314 19.9905837,24.0424963 C20.4926295,23.3966162 20.3760962,22.4661825 19.7302162,21.9641367 Z" id="Shape"></path>
                    <path d="M75.8763418,65.5941142 C75.2306449,65.0911523 74.3002112,65.2065862 73.7976157,65.852283 C72.6463917,67.3298368 71.3639762,68.7225558 69.9860987,69.9923285 C69.3845599,70.5467776 69.3462652,71.4836244 69.9003478,72.0855296 C70.1924139,72.4023315 70.5905692,72.5630228 70.9901903,72.5630228 C71.3487683,72.5630228 71.708812,72.4334803 71.993549,72.1710973 C73.4905249,70.7919372 74.8837936,69.2784707 76.1345106,67.6732068 C76.637106,67.0276932 76.5214889,66.0970762 75.8763418,65.5941142 Z" id="Shape"></path>
                    <path d="M23.8510226,70.0139494 C22.4716793,68.7458258 21.1881645,67.3542062 20.0358411,65.8781182 C19.5323295,65.2331543 18.6015293,65.1182701 17.9567486,65.621965 C17.3119679,66.1254766 17.1970837,67.0562768 17.7005953,67.7010575 C18.9525949,69.3048556 20.3471462,70.816673 21.8455879,72.1947337 C22.1301416,72.4563839 22.4896357,72.5855599 22.8478472,72.5855599 C23.2478348,72.5855599 23.6463565,72.4246854 23.9384226,72.1069673 C24.492322,71.5048789 24.4529279,70.5676656 23.8510226,70.0139494 Z" id="Shape"></path>
                    <path d="M46.9064676,0 C38.4664183,0 31.6001177,6.86648388 31.6001177,15.3063499 C31.6001177,17.7586787 32.1981751,20.2020293 33.3294272,22.3720031 C35.9796426,27.4551251 41.1822295,30.6126999 46.9064676,30.6126999 C52.6307057,30.6126999 57.8332926,27.4551251 60.483508,22.3720031 C61.6147601,20.2020293 62.2128176,17.7588619 62.2128176,15.3063499 C62.2128176,6.86648388 55.3465169,0 46.9064676,0 Z M46.5766565,2.9708651 C46.6865935,2.96793345 46.7957977,2.96261982 46.9064676,2.96261982 C47.0171376,2.96261982 47.1265249,2.96811668 47.2362787,2.9708651 C50.6230723,3.14328302 53.3251413,5.95254068 53.3251413,9.38129352 C53.3251413,12.9207163 50.4455239,15.8001504 46.9062844,15.8001504 C43.3670448,15.8001504 40.4876107,12.9207163 40.4876107,9.38129352 C40.4876107,5.95254068 43.189863,3.14328302 46.5766565,2.9708651 Z M35.0488424,18.7327208 C34.7287424,17.6280369 34.5625543,16.4832259 34.5625543,15.3063499 C34.5625543,12.0742012 35.8127216,9.1300874 37.8529697,6.92713248 C37.6404247,7.71006739 37.5251741,8.53221317 37.5251741,9.38129352 C37.5251741,11.6674341 38.348236,13.7641166 39.7118217,15.3933834 C37.9266275,16.2272558 36.3341896,17.3663867 35.0488424,18.7327208 Z M46.9064676,27.6500801 C42.5784298,27.6500801 38.6197805,25.4106627 36.3801799,21.7515918 C37.7622716,19.8637897 39.8547398,18.3743261 42.2894787,17.5428357 C43.653614,18.3177085 45.2286453,18.762587 46.9064676,18.762587 C48.5853893,18.762587 50.1615199,18.3169756 51.5263882,17.5410034 C53.9886113,18.3770745 56.046999,19.8454668 57.4334883,21.7503092 C55.1940709,25.410113 51.2350551,27.6500801 46.9064676,27.6500801 Z M58.7662916,18.724842 C57.4831431,17.3517284 55.9015157,16.2204764 54.1051446,15.3888027 C55.4665315,13.7600856 56.2877611,11.6650522 56.2877611,9.38129352 C56.2877611,8.53221317 56.1723272,7.71006739 55.9599655,6.92713248 C58.0002137,9.1300874 59.250381,12.0742012 59.250381,15.3063499 C59.2501977,16.4804775 59.0849257,17.6227232 58.7662916,18.724842 Z" id="Shape"></path>
                    <path d="M15.3063499,31.6001177 C6.86630065,31.6001177 0,38.4666016 0,46.9064676 C0,49.3587964 0.598057462,51.8021469 1.72930954,53.9721208 C4.37952496,59.0552427 9.58211184,62.2128176 15.3063499,62.2128176 C21.030588,62.2128176 26.2331749,59.0552427 28.8833903,53.9721208 C30.0146424,51.8021469 30.6126999,49.3589796 30.6126999,46.9064676 C30.6126999,38.4666016 23.7463992,31.6001177 15.3063499,31.6001177 Z M14.9765388,34.5709828 C15.0864759,34.5680511 15.19568,34.5627375 15.3063499,34.5627375 C15.4170199,34.5627375 15.5264072,34.5682343 15.636161,34.5709828 C19.0229546,34.7434007 21.7252069,37.5526583 21.7252069,40.9814112 C21.7252069,44.520834 18.8455895,47.4002681 15.3063499,47.4002681 C11.7671104,47.4002681 8.88749301,44.520834 8.88749301,40.9814112 C8.88749301,37.5526583 11.5897453,34.7434007 14.9765388,34.5709828 Z M3.44872474,50.3328385 C3.12862474,49.2281545 2.9624366,48.0833436 2.9624366,46.9064676 C2.9624366,43.6743188 4.21260389,40.7302051 6.25285201,38.5272501 C6.04030708,39.3101851 5.92505642,40.1323308 5.92505642,40.9814112 C5.92505642,43.2675518 6.74811834,45.3642343 8.11170401,46.9935011 C6.32650982,47.8273735 4.73407189,48.9666876 3.44872474,50.3328385 Z M15.3063499,59.2501977 C10.9783122,59.2501977 7.01966282,57.0107804 4.78006222,53.3517094 C6.16215395,51.4639073 8.25462216,49.9744438 10.689361,49.1429533 C12.0534963,49.9178262 13.6285276,50.3627047 15.3063499,50.3627047 C16.9852717,50.3627047 18.5614023,49.9170933 19.9262705,49.141121 C22.3884936,49.9771922 24.4468814,51.4455845 25.8333706,53.3504268 C23.59377,57.0102307 19.6349374,59.2501977 15.3063499,59.2501977 Z M27.1659907,50.3249597 C25.8828422,48.9518461 24.3012148,47.820594 22.5048437,46.9889204 C23.8664138,45.3602032 24.6876435,43.2649866 24.6876435,40.9814112 C24.6876435,40.1323308 24.5722096,39.3101851 24.3598479,38.5272501 C26.400096,40.7302051 27.6502633,43.6743188 27.6502633,46.9064676 C27.6500801,48.0805951 27.4848081,49.2230241 27.1659907,50.3249597 Z" id="Shape"></path>
                    <path d="M78.5065853,31.6001177 C70.066536,31.6001177 63.2002353,38.4666016 63.2002353,46.9064676 C63.2002353,49.3587964 63.7982928,51.8021469 64.9295449,53.9721208 C67.5797603,59.0552427 72.7823472,62.2128176 78.5065853,62.2128176 C84.2308234,62.2128176 89.4334103,59.0552427 92.0836257,53.9721208 C93.2148778,51.8021469 93.8129352,49.3587964 93.8129352,46.9064676 C93.8129352,38.4666016 86.9466346,31.6001177 78.5065853,31.6001177 Z M78.1767742,34.5709828 C78.2867112,34.5680511 78.3959153,34.5627375 78.5065853,34.5627375 C78.6172552,34.5627375 78.7266426,34.5682343 78.8363964,34.5709828 C82.2231899,34.7434007 84.9254422,37.5526583 84.9254422,40.9814112 C84.9254422,44.520834 82.0458248,47.4002681 78.5065853,47.4002681 C74.9673457,47.4002681 72.0877284,44.520834 72.0877284,40.9814112 C72.0879116,37.5526583 74.7899806,34.7434007 78.1767742,34.5709828 Z M66.6491433,50.3328385 C66.3290433,49.2281545 66.1628552,48.0833436 66.1628552,46.9064676 C66.1628552,43.6743188 67.4130225,40.7302051 69.4532706,38.5272501 C69.2407256,39.3100018 69.125475,40.1323308 69.125475,40.9814112 C69.125475,43.2675518 69.9485369,45.3642343 71.3121226,46.9935011 C69.5269284,47.8273735 67.9343072,48.9666876 66.6491433,50.3328385 Z M78.5065853,59.2501977 C74.1785475,59.2501977 70.2198982,57.0107804 67.9802976,53.3517094 C69.3623893,51.4639073 71.4548575,49.9744438 73.8895963,49.1429533 C75.2537317,49.9178262 76.8287629,50.3627047 78.5065853,50.3627047 C80.185507,50.3627047 81.7616376,49.9170933 83.1265059,49.141121 C85.588729,49.9771922 87.6471167,51.4455845 89.0336059,53.3504268 C86.7941886,57.0102307 82.8351727,59.2501977 78.5065853,59.2501977 Z M90.3664092,50.3249597 C89.0832608,48.9518461 87.5016334,47.820594 85.7052622,46.9889204 C87.0668324,45.3602032 87.888062,43.2649866 87.888062,40.9814112 C87.888062,40.1323308 87.7726281,39.3101851 87.5602664,38.5272501 C89.6005146,40.7302051 90.8506819,43.6743188 90.8506819,46.9064676 C90.8504986,48.0805951 90.6850434,49.2230241 90.3664092,50.3249597 Z" id="Shape"></path>
                    <path d="M57.5051306,55.3003433 L36.3078047,55.3003433 C33.7120081,55.3003433 31.6001177,57.4120505 31.6001177,60.0080303 L31.6001177,89.1054315 C31.6001177,91.7014113 33.7120081,93.8131185 36.3078047,93.8131185 L57.5051306,93.8131185 C60.1009271,93.8131185 62.2128176,91.7014113 62.2128176,89.1054315 L62.2128176,60.0078471 C62.2128176,57.4118673 60.1009271,55.3003433 57.5051306,55.3003433 Z M59.2501977,79.0003858 L56.0579927,79.0003858 C55.239878,79.0003858 54.5767744,79.6636726 54.5767744,80.4816041 C54.5767744,81.2997188 55.2400612,81.9628224 56.0579927,81.9628224 L59.2501977,81.9628224 L59.2501977,89.1052482 C59.2501977,90.0690295 58.4689119,90.8503154 57.5051306,90.8503154 L36.3078047,90.8503154 C35.3440233,90.8503154 34.5627375,90.0690295 34.5627375,89.1052482 L34.5627375,81.9628224 L49.5077611,81.9628224 C50.3258758,81.9628224 50.9889793,81.2995356 50.9889793,80.4816041 C50.9889793,79.6634893 50.3256926,79.0003858 49.5077611,79.0003858 L34.5627375,79.0003858 L34.5627375,60.0078471 C34.5627375,59.0440658 35.3440233,58.2627799 36.3078047,58.2627799 L57.5051306,58.2627799 C58.4689119,58.2627799 59.2501977,59.0440658 59.2501977,60.0078471 L59.2501977,79.0003858 Z" id="Shape"></path>
                    <rect id="Rectangle-6" x="33.8696252" y="78.7668568" width="26.023353" height="3.38529693"></rect>
                    <ellipse id="Oval" cx="46.9064676" cy="86.4066605" rx="1.97501881" ry="1.97501881"></ellipse>
                </g>
            </g>
        </g>
    </g>
</svg>