<?xml version="1.0" encoding="UTF-8"?>
<svg width="100px" height="124px" viewBox="0 0 100 124" version="1.1" xmlns="http://www.w3.org/2000/svg" xmlns:xlink="http://www.w3.org/1999/xlink">
    <!-- Generator: Sketch 41 (35326) - http://www.bohemiancoding.com/sketch -->
    <title>tools</title>
    <desc>Created with Sketch.</desc>
    <defs></defs>
    <g id="Page-1" stroke="none" stroke-width="1" fill="none" fill-rule="evenodd">
        <g id="tools">
            <g id="Group" transform="translate(1.000000, 12.000000)">
                <polygon id="Path-5" fill="#FF2D55" points="20.1995979 9.89993811 77.6731824 9.89993811 77.6731824 48.8301088 49.2206089 69.1542028 19.9594487 47.6672348"></polygon>
                <g id="001-social-relations" transform="translate(31.435617, 20.400115)" fill="#FFFFFF">
                    <path d="M27.0681009,9.75263724 C29.7338979,9.75263724 31.902634,7.5839011 31.902634,4.91823246 C31.902634,2.25243544 29.7338979,0.0835709263 27.0681009,0.0835709263 C24.4023039,0.0835709263 22.2335677,2.25243544 22.2335677,4.91823246 C22.2335677,7.5839011 24.4023039,9.75263724 27.0681009,9.75263724 Z M8.87296547,9.75263724 C11.5387625,9.75263724 13.7074986,7.5839011 13.7074986,4.91823246 C13.7074986,2.25243544 11.5387625,0.0835709263 8.87296547,0.0835709263 C6.20716846,0.0835709263 4.03843231,2.25243544 4.03843231,4.91823246 C4.03843231,7.5839011 6.20716846,9.75263724 8.87296547,9.75263724 Z M27.0681009,2.39428778 C28.4596659,2.39428778 29.5919172,3.52653904 29.5919172,4.91823246 C29.5919172,6.3097975 28.4597943,7.44192038 27.0681009,7.44192038 C25.6764075,7.44192038 24.5442846,6.3097975 24.5442846,4.91823246 C24.5442846,3.52653904 25.6765358,2.39428778 27.0681009,2.39428778 Z M8.87296547,2.39428778 C10.2645305,2.39428778 11.3967818,3.52653904 11.3967818,4.91823246 C11.3967818,6.3097975 10.2646589,7.44192038 8.87296547,7.44192038 C7.48127205,7.44192038 6.34914917,6.3097975 6.34914917,4.91823246 C6.34914917,3.52653904 7.48140043,2.39428778 8.87296547,2.39428778 Z M18.3786501,20.3278897 L20.142369,16.2420288 C20.9803889,14.3014117 22.4886452,11.7216247 25.8983647,11.7216247 L28.2382222,11.7216247 C31.6480701,11.7216247 33.1561979,14.3015401 33.9938328,16.2420288 L35.75768,20.3278897 C36.0105751,20.9136564 35.7407347,21.593649 35.154968,21.8465441 C34.5689445,22.0995676 33.8892087,21.8295989 33.6363135,21.2438322 L31.8724663,17.1579713 C30.9140323,14.9380142 29.8611157,14.03247 28.2382222,14.03247 L25.8983647,14.03247 C24.2754712,14.03247 23.2224262,14.9380142 22.2638638,17.1580996 L20.5002733,21.2438322 C20.3118215,21.6804293 19.8861361,21.9416687 19.4388841,21.9416687 C19.28612,21.9416687 19.1307885,21.9111158 18.9814905,21.8468009 C18.3957238,21.593649 18.125755,20.9136564 18.3786501,20.3278897 Z M0.18351473,20.3278897 L1.94723356,16.2420288 C2.78525354,14.3014117 4.29350978,11.7216247 7.70322925,11.7216247 L10.0430868,11.7216247 C13.4529347,11.7216247 14.9610625,14.3015401 15.7986974,16.2420288 L17.5625446,20.3278897 C17.8154397,20.9136564 17.5455993,21.593649 16.9598326,21.8465441 C16.3738091,22.0995676 15.6940733,21.8295989 15.4411781,21.2438322 L13.6773309,17.1579713 C12.7188969,14.9380142 11.6659803,14.03247 10.0430868,14.03247 L7.70322925,14.03247 C6.08033577,14.03247 5.02729075,14.9380142 4.06872838,17.1580996 L2.30513792,21.2438322 C2.11668613,21.6804293 1.69100073,21.9416687 1.24374865,21.9416687 C1.09098459,21.9416687 0.935653067,21.9111158 0.786355084,21.8468009 C0.200588361,21.593649 -0.0693803921,20.9136564 0.18351473,20.3278897 Z" id="Shape"></path>
                </g>
                <path d="M97.1025889,35.6202674 C97.1025889,34.992865 96.3132761,34.2035523 95.5442022,33.6166274 L79.6162757,22.0602793 L79.6162757,9.28960384 C79.6162757,8.03479896 78.5638588,7.18476985 77.5114418,7.18476985 L59.3572486,7.18476985 L50.1081224,0.445253343 C49.4807199,0.0202387883 48.4283029,0.0202387883 47.7806617,0.445253343 L38.5315355,7.18476985 L20.3773423,7.18476985 C19.1225375,7.18476985 18.2725083,8.23718685 18.2725083,9.28960384 L18.2725083,21.9186078 L2.14219405,33.6368662 C1.190971,34.2237911 0.583807347,34.992865 0.583807347,35.6405062 L0.583807347,96.9640349 C0.583807347,98.1581234 1.5350304,98.9879137 2.52673103,99.0688688 L94.9775161,99.0688688 C96.3335149,99.0486301 97.1025889,97.9962131 97.1025889,96.5390203 C97.1025889,96.5390203 97.1025889,50.8398363 97.1025889,35.6202674 Z M93.0953088,39.4049209 L93.0953088,92.7543669 L58.2643541,64.8653166 L93.0953088,39.4049209 Z M91.5369221,35.7012226 L79.6162757,44.3836628 L79.6162757,26.9378273 L91.5369221,35.7012226 Z M48.8533175,4.43229464 L52.5570158,7.16453107 L45.1293804,7.16453107 L48.8533175,4.43229464 Z M75.4066078,11.3944378 L75.4066078,47.4599586 L48.8533175,66.8082403 L22.3000272,47.4599586 L22.3000272,11.3944378 L75.4066078,11.3944378 Z M4.61132622,39.4049209 L39.4422809,64.8653166 L4.61132622,92.9162772 L4.61132622,39.4049209 L4.61132622,39.4049209 Z M18.2927471,44.5455731 L6.06851898,35.6405062 L18.2927471,26.7556782 L18.2927471,44.5455731 Z M8.39597964,95.04135 L42.8221586,67.3344488 L47.5782738,70.8155203 C48.4890193,71.5036391 49.1771381,71.5036391 50.1081224,70.8155203 L54.8642376,67.3344488 L89.4928045,95.04135 L8.39597964,95.04135 L8.39597964,95.04135 Z" id="Shape" fill="#484848"></path>
            </g>
        </g>
    </g>
</svg>