<?xml version="1.0" encoding="UTF-8"?>
<svg width="122px" height="82px" viewBox="0 0 122 82" version="1.1" xmlns="http://www.w3.org/2000/svg" xmlns:xlink="http://www.w3.org/1999/xlink">
    <!-- Generator: Sketch 41 (35326) - http://www.bohemiancoding.com/sketch -->
    <title>vendor-balloons</title>
    <desc>Created with Sketch.</desc>
    <defs></defs>
    <g id="Page-1" stroke="none" stroke-width="1" fill="none" fill-rule="evenodd">
        <g id="vendor-balloons">
            <g id="Group" transform="translate(24.567720, 2.325734)">
                <path d="M48.3283269,62.2188897 C60.6380689,62.2188897 70.6170864,51.5571002 70.6170864,38.4051162 C70.6170864,25.2531323 60.6380689,14.5913427 48.3283269,14.5913427 C36.0185849,14.5913427 27.7996481,25.2531323 27.7996481,38.4051162 C27.7996481,51.5571002 36.0185849,62.2188897 48.3283269,62.2188897 Z" id="Oval-2-Copy" fill="#5AC8FA"></path>
                <path d="M22.5098756,47.9754421 C34.8196175,47.9754421 44.7986351,37.3136526 44.7986351,24.1616686 C44.7986351,11.0096847 34.8196175,0.347895094 22.5098756,0.347895094 C10.2001336,0.347895094 1.9811968,11.0096847 1.9811968,24.1616686 C1.9811968,37.3136526 10.2001336,47.9754421 22.5098756,47.9754421 Z" id="Oval-2" fill="#FF2D55"></path>
                <path d="M28.7327634,8.51118784 C29.6713708,8.79322393 30.5596439,9.15409817 31.3731398,9.58391457 C31.5876942,9.69722381 31.8219839,9.75115702 32.0531956,9.75115702 C32.521413,9.75115702 32.9771373,9.53014629 33.2291707,9.13463603 C33.6054103,8.54367972 33.3845189,7.78680042 32.7357863,7.44390392 C31.760243,6.92848709 30.6996021,6.4971863 29.5831953,6.16171179 C28.8712732,5.94795813 28.1032229,6.3000909 27.868209,6.94893883 C27.6335571,7.59778677 28.0206603,8.29726925 28.7327634,8.51118784 Z" id="Shape" fill="#FFFFFF"></path>
                <path d="M37.9399513,21.7533594 C37.9399513,23.598634 37.7047563,25.4848122 37.2408844,27.3591152 C37.0759401,28.025611 37.5352855,28.6876536 38.266943,28.8379079 C38.3674305,28.8585246 38.467918,28.8684206 38.5667759,28.8684206 C39.1876256,28.8684206 39.7480017,28.4780233 39.8903137,27.9032304 C40.3983639,25.8506345 40.6560102,23.7815452 40.6560102,21.7533594 C40.6560102,17.433754 39.4986841,13.8355673 37.2162604,11.0592437 C36.7668732,10.5124895 35.915536,10.4009946 35.315327,10.8105241 C34.715118,11.2200537 34.5927225,11.9954056 35.0422908,12.5421597 C36.9649512,14.8810801 37.9399513,17.9801783 37.9399513,21.7533594 L37.9399513,21.7533594 Z" id="Shape" fill="#FFFFFF"></path>
                <path d="M18.3295029,40.6420252 C14.9547532,38.5452271 11.9372319,34.5241512 10.2573709,29.8860596 C10.0223569,29.2372116 9.25412563,28.8849139 8.54220353,29.0989975 C7.82991931,29.313081 7.44317831,30.0125635 7.67819227,30.6614114 C9.56645158,35.8747907 12.8910481,40.2575655 16.7991963,42.6860447 C17.033305,42.8315159 17.2996421,42.9012827 17.5630822,42.9012827 C17.9968984,42.9012827 18.4232912,42.7122691 18.6861882,42.3612908 C19.1085977,41.7965589 18.9490852,41.0269798 18.3295029,40.6420252 L18.3295029,40.6420252 Z" id="Shape" fill="#FFFFFF"></path>
                <path d="M65.7480053,20.2066141 C61.6137151,16.5386606 55.8211098,14.5187214 49.4371674,14.5187214 C48.0904541,14.5187214 46.7591308,14.6097646 45.4647435,14.7869031 C44.3869021,11.2225277 42.4370829,8.14256173 39.6755783,5.69247632 C35.541288,2.0245228 29.7486828,0.00458364931 23.3647404,0.00458364931 C16.980798,0.00458364931 11.1881928,2.0245228 7.05390249,5.69247632 C2.62213307,9.62432325 0.279597929,15.1781251 0.279597929,21.7533594 C0.279597929,28.4498197 2.68876261,35.4200694 6.88950135,40.8768904 C10.4704768,45.5290014 14.8888479,48.5223774 19.6072329,49.5650862 C19.2901994,50.1072223 19.1096841,50.7252277 19.1096841,51.3811677 L19.1096841,54.0201019 C19.1096841,54.7032559 19.7176786,55.2571022 20.467623,55.2571022 L21.9260494,55.2571022 C21.8154226,56.0179399 21.603041,56.5338516 21.3689323,57.1025419 C20.9888905,58.0251792 20.5581523,59.0711867 20.5581523,61.0540159 C20.5581523,63.0379995 20.9887094,64.0843369 21.3687513,65.007634 C21.7111329,65.8392281 22.0066204,66.5573481 22.0066204,68.0928779 C22.0066204,69.6284077 21.7111329,70.3465276 21.3687513,71.1781218 C20.9887094,72.1014188 20.5581523,73.1477562 20.5581523,75.1317399 C20.5581523,75.814894 21.1661468,76.3687403 21.9160912,76.3687403 C22.6660356,76.3687403 23.2740301,75.814894 23.2740301,75.1317399 C23.2740301,73.596375 23.5695176,72.8782551 23.9117182,72.046661 C24.29176,71.1233639 24.7224982,70.0770265 24.7224982,68.0930428 C24.7224982,66.1090591 24.29176,65.0625568 23.9117182,64.1394247 C23.5695176,63.3078306 23.2740301,62.5897106 23.2740301,61.0543457 C23.2740301,59.5203003 23.5695176,58.8026752 23.9117182,57.9719057 C24.2035845,57.263187 24.5246013,56.4800833 24.6582225,55.2574321 L26.2614957,55.2574321 C27.0114401,55.2574321 27.6194346,54.7035858 27.6194346,54.0204317 L27.6194346,51.3814976 C27.6194346,50.7255575 27.4389192,50.1075521 27.1218858,49.5654161 C27.8066491,49.4141722 28.4850754,49.2218599 29.1557161,48.9891389 C32.7236553,56.9814808 38.9100629,62.5445189 45.6847296,64.0704825 C45.364437,64.6147627 45.1821111,65.2360667 45.1821111,65.8958003 L45.1821111,68.5347344 C45.1821111,69.2178885 45.7901056,69.7717348 46.54005,69.7717348 L47.9984764,69.7717348 C47.8878496,70.5325725 47.675468,71.0484841 47.4413593,71.6171744 C47.0613175,72.5398118 46.6305793,73.5858193 46.6305793,75.5686484 C46.6305793,76.2518025 47.2385738,76.8056488 47.9885182,76.8056488 C48.7384626,76.8056488 49.3464571,76.2518025 49.3464571,75.5686484 C49.3464571,74.034603 49.6419446,73.3169779 49.9841452,72.4862084 C50.2760115,71.7774897 50.5970283,70.994386 50.7306495,69.7717348 L52.3339227,69.7717348 C53.0838671,69.7717348 53.6918616,69.2178885 53.6918616,68.5347344 L53.6918616,65.8958003 C53.6918616,65.2398602 53.5113462,64.6218548 53.1943128,64.0797188 C57.9126978,63.0370099 62.3310689,60.043469 65.9120443,55.3915229 C70.112602,49.9347019 72.5217667,42.9644522 72.5217667,36.2679919 C72.5221288,29.6922628 70.1795937,24.138461 65.7480053,20.2066141 L65.7480053,20.2066141 Z M9.1132621,39.4564841 C5.22539249,34.405894 2.9956568,27.9533702 2.9956568,21.7533594 C2.9956568,15.8609493 5.05429218,10.9200399 8.94886097,7.46485046 C12.5731094,4.24930921 17.6927201,2.4785844 23.3647404,2.4785844 C29.0367607,2.4785844 34.1565525,4.24930921 37.7806198,7.46468553 C41.6751886,10.9200399 43.733824,15.8609493 43.733824,21.7531944 C43.733824,27.9533702 41.5040883,34.405894 37.6162187,39.4563192 C33.6206193,44.6469377 28.5594904,47.5053981 23.3647404,47.5053981 C18.1699904,47.5053981 13.1086805,44.6469377 9.1132621,39.4564841 L9.1132621,39.4564841 Z M24.9037378,51.3813327 L24.9037378,52.7832664 L21.825743,52.7832664 L21.825743,51.3813327 C21.825743,50.6082899 22.5161191,49.9793989 23.3647404,49.9793989 C24.2133617,49.9793989 24.9037378,50.6082899 24.9037378,51.3813327 Z M50.9761648,65.8954704 L50.9761648,67.2974042 L47.89817,67.2974042 L47.89817,65.8954704 C47.89817,65.1224276 48.5885461,64.4935367 49.4371674,64.4935367 C50.2857887,64.4935367 50.9761648,65.1224276 50.9761648,65.8954704 Z M63.6886457,53.9706218 C59.6930463,59.1610754 54.6319174,62.0195359 49.4371674,62.0195359 C45.775802,62.0195359 42.1117207,60.565978 38.8410796,57.8162086 C35.9017756,55.3450117 33.356817,51.8563408 31.6197415,47.9357093 C32.5040314,47.483462 33.3698532,46.958644 34.2126806,46.3630695 C36.1550764,51.0509711 39.2640323,54.9584079 42.8716233,57.1998526 C43.105732,57.3453238 43.3720691,57.4150906 43.6355092,57.4150906 C44.0693254,57.4150906 44.4957183,57.226077 44.7586152,56.8750987 C45.1812058,56.3106967 45.0215122,55.5411175 44.4019299,55.156163 C41.0771523,53.0903724 38.1000071,49.1565462 36.4062046,44.6052095 C37.6162187,43.5159895 38.7661214,42.2718969 39.8399794,40.8768904 C44.0405371,35.4200694 46.4497018,28.4498197 46.4497018,21.7533594 C46.4497018,20.1764313 46.3135458,18.6592091 46.0475708,17.2079602 C47.1518468,17.064963 48.2876269,16.9927222 49.4371674,16.9927222 C55.1091877,16.9927222 60.2289795,18.763447 63.8530468,21.9788233 C67.7476156,25.4341777 69.806251,30.375087 69.806251,36.2673322 C69.806251,42.4676729 67.5765153,48.9201967 63.6886457,53.9706218 L63.6886457,53.9706218 Z" id="Shape" fill="#484848"></path>
                <path d="M63.2885064,25.5732165 C62.8391191,25.0264623 61.987782,24.9149674 61.387573,25.324497 C60.787364,25.7340266 60.6649684,26.5093784 61.1145367,27.0561326 C63.0373782,29.3950529 64.0123783,32.4941512 64.0123783,36.2673322 C64.0123783,38.1126069 63.7771833,39.998785 63.3133114,41.873088 C63.1483671,42.5395838 63.6077125,43.2016264 64.33937,43.3518807 C64.4398575,43.3724974 64.540345,43.3823934 64.6392029,43.3823934 C65.2600526,43.3823934 65.8204287,42.9919961 65.9627407,42.4172033 C66.4707909,40.3646073 66.7284372,38.295518 66.7284372,36.2673322 C66.7282562,31.9477269 65.5709301,28.3497051 63.2885064,25.5732165 L63.2885064,25.5732165 Z" id="Shape" fill="#FFFFFF"></path>
                <path d="M58.8083943,21.9580417 C57.832851,21.4426249 56.7722102,21.0113241 55.6558034,20.6758496 C54.9437002,20.4620959 54.175831,20.8142287 53.9408171,21.4630766 C53.7059842,22.1119245 54.0929062,22.8112421 54.8050094,23.0253256 C55.7436167,23.3073617 56.6318899,23.6682359 57.4453858,24.0980523 C57.6599401,24.2113616 57.8942299,24.2652948 58.1254416,24.2652948 C58.5936589,24.2652948 59.0493832,24.044284 59.3014167,23.6487738 C59.6780184,23.0578175 59.457127,22.3009382 58.8083943,21.9580417 L58.8083943,21.9580417 Z" id="Shape" fill="#FFFFFF"></path>
            </g>
        </g>
    </g>
</svg>