<?xml version="1.0" encoding="UTF-8"?>
<svg width="122px" height="82px" viewBox="0 0 122 82" version="1.1" xmlns="http://www.w3.org/2000/svg" xmlns:xlink="http://www.w3.org/1999/xlink">
    <!-- Generator: Sketch 41 (35326) - http://www.bohemiancoding.com/sketch -->
    <title>vendor-location</title>
    <desc>Created with Sketch.</desc>
    <defs></defs>
    <g id="Page-1" stroke="none" stroke-width="1" fill="none" fill-rule="evenodd">
        <g id="vendor-location">
            <g id="Group-26" transform="translate(34.000000, 4.000000)">
                <circle id="Oval-6" fill="#FF2D55" cx="26.866714" cy="22.7287052" r="7.31743862"></circle>
                <path d="M40.0260826,62.4720984 C39.5712186,62.2697666 39.051831,62.2697666 38.596967,62.4720984 L26.8383649,67.7071363 L15.0797627,62.4720984 C14.6248987,62.2697666 14.1055111,62.2697666 13.6506471,62.4720984 L5.50481356,66.0987729 L12.5882318,51.1152394 L17.0740165,49.1188997 L22.3121138,57.8981498 C23.2721813,59.5073476 24.9642586,60.4681104 26.8380868,60.4681104 C28.7119149,60.4681104 30.4039922,59.5073476 31.3640597,57.8982889 L36.602157,49.1190388 L41.0883589,51.1160738 L48.1713599,66.0989119 L40.0260826,62.4720984 Z" id="Path" fill="#5AC8FA"></path>
                <g id="placeholder" transform="translate(0.000000, 0.188552)" fill="#484848">
                    <path d="M53.3727454,68.6907173 L43.9863611,48.8356477 C43.7990478,48.4394669 43.4744827,48.1358997 43.0852549,47.9702798 L38.4156333,45.8914777 L46.5068165,32.3306631 C46.5261458,32.2981231 46.5443626,32.265166 46.561745,32.2315136 C48.1703865,29.0916867 48.9861102,25.6987714 48.9861102,22.1476062 C48.9861102,16.1737446 46.6435121,10.5732581 42.3898178,6.37796882 C38.1368188,2.18365299 32.5024017,-0.0817670482 26.5249245,0.00222495369 C20.7194641,0.0827404655 15.2533091,2.414631 11.133112,6.56861954 C7.01333216,10.72233 4.72552353,16.207258 4.69103674,22.0134137 C4.66989968,25.5615196 5.50829005,29.094746 7.11498473,32.2313745 C7.13222813,32.2648879 7.15044493,32.2979841 7.16977422,32.330524 L15.2608183,45.8911996 L10.5642192,47.9814045 C10.1799975,48.1523088 9.86989459,48.4553197 9.69022957,48.8355086 L0.304123358,68.6907173 C-0.0100122916,69.3547269 0.122511513,70.1443073 0.636197697,70.6695355 C1.14974482,71.1947636 1.93570971,71.3452261 2.60695043,71.0465261 L14.3655526,65.8114881 L26.1241547,71.0465261 C26.5790187,71.2488578 27.0984063,71.2488578 27.5532703,71.0465261 L39.3118725,65.8114881 L51.0704746,71.0465261 C51.3002011,71.1487349 51.5434163,71.1985182 51.7845457,71.1985182 C52.2477532,71.1985182 52.7034516,71.0152376 53.0412273,70.6696745 C53.5544964,70.1443073 53.6868811,69.355005 53.3727454,68.6907173 Z M10.2171264,30.5800417 C8.86407646,27.9195533 8.18699524,25.0447741 8.20493392,22.0344117 C8.26445144,11.9624635 16.5048456,3.65490362 26.5738735,3.51542684 C31.6031032,3.44784387 36.3446186,5.35087457 39.9226222,8.87979019 C43.5017384,12.4095402 45.4726302,17.1214359 45.4726302,22.1477453 C45.4726302,25.1179194 44.795549,27.9544573 43.4600205,30.5800417 L28.3473007,55.9094708 C27.8859009,56.6826422 27.1385946,56.7660779 26.838643,56.7660779 C26.5385524,56.7660779 25.791246,56.6826422 25.3299853,55.9094708 L10.2171264,30.5800417 Z M40.0260826,62.2835459 C39.5712186,62.0812142 39.051831,62.0812142 38.596967,62.2835459 L26.8383649,67.5185839 L15.0797627,62.2835459 C14.6248987,62.0812142 14.1055111,62.0812142 13.6506471,62.2835459 L5.50481356,65.9102205 L12.5882318,50.926687 L17.0740165,48.9303473 L22.3121138,57.7095974 C23.2721813,59.3187951 24.9642586,60.2795579 26.8380868,60.2795579 C28.7119149,60.2795579 30.4039922,59.3187951 31.3640597,57.7097364 L36.602157,48.9304863 L41.0883589,50.9275213 L48.1713599,65.9103595 L40.0260826,62.2835459 Z" id="Shape"></path>
                    <path d="M26.8390602,14.1294294 C22.4177991,14.1294294 18.8210224,17.7262061 18.8210224,22.1473281 C18.8210224,26.5684502 22.4177991,30.1652269 26.8390602,30.1652269 C31.2601822,30.1653659 34.8569589,26.5684502 34.8569589,22.1473281 C34.8569589,17.7262061 31.2601822,14.1294294 26.8390602,14.1294294 Z M26.8390602,26.6517469 C24.3553165,26.6518859 22.3345024,24.6313499 22.3345024,22.1473281 C22.3345024,19.6635845 24.3551775,17.6429094 26.8390602,17.6429094 C29.3228038,17.6429094 31.3434789,19.6635845 31.3434789,22.1473281 C31.3434789,24.6310717 29.3228038,26.6517469 26.8390602,26.6517469 Z" id="Shape"></path>
                </g>
            </g>
        </g>
    </g>
</svg>