<?xml version="1.0" encoding="UTF-8"?>
<svg width="122px" height="82px" viewBox="0 0 122 82" version="1.1" xmlns="http://www.w3.org/2000/svg" xmlns:xlink="http://www.w3.org/1999/xlink">
    <!-- Generator: Sketch 41 (35326) - http://www.bohemiancoding.com/sketch -->
    <title>vendor-end</title>
    <desc>Created with Sketch.</desc>
    <defs></defs>
    <g id="Page-1" stroke="none" stroke-width="1" fill="none" fill-rule="evenodd">
        <g id="vendor-end">
            <g id="Group" transform="translate(23.000000, 5.000000)">
                <g id="Group-27" transform="translate(0.000000, 12.971527)">
                    <g id="003-road-perspective" transform="translate(32.612513, 19.307625)"></g>
                    <path d="M41.2805905,17.6078495 C41.2624401,17.1384197 40.7754514,16.7653514 40.1811701,16.7653514 L35.391204,16.7653514 C34.7969227,16.7653514 34.3100804,17.1384197 34.2917835,17.6078495 L33.9618549,26.0690383 C33.9526333,26.3041003 34.0643172,26.5321057 34.2714375,26.7009987 C34.478704,26.8697759 34.7635492,26.965212 35.0612754,26.965212 L40.511245,26.965212 C40.8088248,26.965212 41.0938164,26.8698916 41.301083,26.7009987 C41.5082032,26.5321057 41.6198871,26.3041003 41.6106655,26.0690383 L41.2805905,17.6078495 Z" id="Path" fill="#5AC8FA"></path>
                    <path d="M41.7631879,30.0018144 C41.7450375,29.5322689 41.2581952,29.1592006 40.6637675,29.1592006 L34.908753,29.1592006 C34.3143252,29.1592006 33.8276293,29.5322689 33.8093325,30.0016987 L33.4075339,40.3255684 C33.3983123,40.5606303 33.5099962,40.7886358 33.7172628,40.9575287 C33.924383,41.1264217 34.2092282,41.2217421 34.506808,41.2217421 L41.0655661,41.2217421 C41.3631459,41.2217421 41.6481374,41.1264217 41.8552576,40.9576444 C42.0625242,40.7887515 42.1742081,40.560746 42.1649865,40.3256841 L41.7631879,30.0018144 Z" id="Path" fill="#5AC8FA"></path>
                    <path d="M41.7631879,46.7247313 C41.7450375,46.2551859 41.2581952,45.8821176 40.6637675,45.8821176 L34.908753,45.8821176 C34.3143252,45.8821176 33.8276293,46.2551859 33.8093325,46.7246157 L33.4075339,57.0484853 C33.3983123,57.2835473 33.5099962,57.5115528 33.7172628,57.6804457 C33.924383,57.8493386 34.2092282,57.944659 34.506808,57.944659 L41.0655661,57.944659 C41.3631459,57.944659 41.6481374,57.8493386 41.8552576,57.6805614 C42.0625242,57.5116684 42.1742081,57.283663 42.1649865,57.048601 L41.7631879,46.7247313 Z" id="Path" fill="#5AC8FA"></path>
                    <path d="M40.8831832,7.40798884 C40.8650327,6.93855903 40.3781904,6.56549074 39.7837627,6.56549074 L35.7887577,6.56549074 C35.19433,6.56549074 34.7076341,6.93855903 34.6893373,7.40798884 L34.4003936,14.8214631 C34.391172,15.0565251 34.5028559,15.2845305 34.7099761,15.4534235 C34.9172427,15.6222007 35.2022342,15.7176368 35.499814,15.7176368 L40.0727064,15.7176368 C40.3702862,15.7176368 40.6552777,15.6223164 40.8625443,15.4534235 C41.0696646,15.2845305 41.1813485,15.0565251 41.1721269,14.8214631 L40.8831832,7.40798884 Z" id="Path" fill="#5AC8FA"></path>
                    <g id="002-work-tools" transform="translate(0.314261, 0.158896)" fill="#484848">
                        <path d="M56.2280889,15.0238361 L51.9419446,0.670134765 C51.8023031,0.202787199 51.2094855,-0.0862973476 50.6187172,0.0237144186 C50.0275098,0.133957545 49.6612802,0.602230552 49.8007753,1.06946244 L54.087066,15.4231638 C54.2066541,15.8233012 54.6582201,16.0929515 55.156626,16.0929515 C55.240206,16.0929515 55.3251033,16.0854323 55.4100006,16.0695841 C56.0013545,15.959341 56.367584,15.491068 56.2280889,15.0238361 Z" id="Shape"></path>
                        <path d="M68.9016505,57.4646634 L57.0634494,17.820518 C56.9238079,17.3531704 56.3302585,17.0639702 55.740222,17.1740976 C55.1490145,17.2843407 54.782785,17.7526138 54.9222801,18.2198456 L66.7604813,57.8638754 C66.8800694,58.2640129 67.3316354,58.5336631 67.8300413,58.5336631 C67.9136212,58.5336631 67.998665,58.5261439 68.0835623,58.5102958 C68.6749161,58.4000526 69.0411456,57.9318953 68.9016505,57.4646634 Z" id="Shape"></path>
                        <path d="M9.05605702,51.1570908 C8.46572781,51.047079 7.87232473,51.3361636 7.73282963,51.8035112 L6.04234809,57.4646634 C5.90285299,57.9318953 6.26908252,58.4001683 6.86028998,58.5104115 C6.94518731,58.5262596 7.03008464,58.5337788 7.11381098,58.5337788 C7.61221687,58.5337788 8.0640756,58.2640129 8.18337099,57.8639911 L9.87385254,52.2028388 C10.013494,51.7356069 9.64726448,51.2673339 9.05605702,51.1570908 Z" id="Shape"></path>
                        <path d="M24.325135,0.0237144186 C23.7349522,-0.0865287078 23.1415491,0.202787199 23.0019077,0.670134765 L8.82654148,48.1407324 C8.68704638,48.6079643 9.0532759,49.0762373 9.64448336,49.1864805 C9.7293807,49.2023286 9.81427803,49.2098478 9.89800436,49.2098478 C10.3965566,49.2098478 10.848269,48.9400819 10.9677108,48.5400601 L25.1430769,1.06946244 C25.282572,0.602230552 24.9163425,0.133957545 24.325135,0.0237144186 Z" id="Shape"></path>
                        <path d="M74.9021355,57.4277615 L54.583569,0.633232816 C54.418312,0.171090854 53.8098323,-0.0972869562 53.2259436,0.033200186 C52.641323,0.163803008 52.3014409,0.644222425 52.4666979,1.10624871 L72.7852644,57.9007774 C72.9222711,58.2836785 73.3632981,58.5337788 73.8431144,58.5337788 C73.9422101,58.5337788 74.0429159,58.5231363 74.1430362,58.5006943 C74.7275104,58.3702072 75.0675389,57.8897878 74.9021355,57.4277615 Z" id="Shape"></path>
                        <path d="M21.7180551,0.0333158661 C21.1338736,-0.0971712761 20.5255403,0.171206534 20.3604296,0.633348496 L0.0417167928,57.4278772 C-0.123540256,57.8899034 0.216195449,58.3703229 0.800816046,58.5009257 C0.900936349,58.5232519 1.00164215,58.5340102 1.10073783,58.5340102 C1.58040776,58.5340102 2.02158114,58.2839098 2.15858787,57.9010087 L22.4773007,1.10648007 C22.6424114,0.644222425 22.3025293,0.163918688 21.7180551,0.0333158661 Z" id="Shape"></path>
                        <path d="M40.3196461,0.842960821 C40.3010566,0.363119805 39.7979667,-0.0150384118 39.1864131,0.000809760634 C38.5791044,0.0155011321 38.1019229,0.416564006 38.1208052,0.896405022 L38.2502005,4.22278603 L36.6939445,4.22278603 L36.8233398,0.896405022 C36.8420757,0.416564006 36.3650406,0.0155011321 35.7577319,0.000809760634 C35.1578883,-0.0138816109 34.6430885,0.363119805 34.6244989,0.842960821 L34.4602664,5.06551549 C34.4510448,5.30057743 34.5627287,5.52858289 34.7699953,5.69747582 C34.9772619,5.86625308 35.2621071,5.96157347 35.5598333,5.96157347 L39.3847509,5.96157347 C39.6823306,5.96157347 39.9673222,5.86625308 40.1744424,5.69747582 C40.381709,5.52858289 40.4933929,5.30057743 40.4841713,5.06551549 L40.3196461,0.842960821 Z" id="Shape"></path>
                        <path d="M40.5689223,7.24909288 C40.5507718,6.77966307 40.0639295,6.40659478 39.4695018,6.40659478 L35.4744968,6.40659478 C34.8800691,6.40659478 34.3933732,6.77966307 34.3750764,7.24909288 L34.0861327,14.6625672 C34.0769111,14.8976291 34.188595,15.1256346 34.3957152,15.2945275 C34.6029818,15.4633048 34.8879733,15.5587408 35.1855531,15.5587408 L39.7584455,15.5587408 C40.0560253,15.5587408 40.3410169,15.4634204 40.5482834,15.2945275 C40.7554037,15.1256346 40.8670876,14.8976291 40.857866,14.6625672 L40.5689223,7.24909288 Z M36.3198108,13.8200691 L36.540983,8.14526654 L38.4028693,8.14526654 L38.6240415,13.8200691 L36.3198108,13.8200691 Z" id="Shape"></path>
                        <path d="M40.9663296,17.4489535 C40.9481792,16.9795237 40.4611905,16.6064554 39.8669092,16.6064554 L35.0769431,16.6064554 C34.4826618,16.6064554 33.9958195,16.9795237 33.9775226,17.4489535 L33.647594,25.9101424 C33.6383724,26.1452043 33.7500563,26.3732098 33.9571766,26.5421027 C34.1644432,26.71088 34.4492883,26.806316 34.7470145,26.806316 L40.1969841,26.806316 C40.4945639,26.806316 40.7795555,26.7109957 40.9868221,26.5421027 C41.1939423,26.3732098 41.3056262,26.1452043 41.2964046,25.9101424 L40.9663296,17.4489535 Z M35.8812721,25.0676443 L36.1435756,18.3450115 L38.800423,18.3450115 L39.0627265,25.0676443 L35.8812721,25.0676443 Z" id="Shape"></path>
                        <path d="M41.448927,29.8429184 C41.4307766,29.3733729 40.9439343,29.0003046 40.3495066,29.0003046 L34.5944921,29.0003046 C34.0000644,29.0003046 33.5133684,29.3733729 33.4950716,29.8428027 L33.093273,40.1666724 C33.0840514,40.4017344 33.1957353,40.6297398 33.4030019,40.7986328 C33.6101221,40.9675257 33.8949673,41.0628461 34.1925471,41.0628461 L40.7513052,41.0628461 C41.048885,41.0628461 41.3338765,40.9675257 41.5409967,40.7987485 C41.7482633,40.6298555 41.8599472,40.4018501 41.8507256,40.1667881 L41.448927,29.8429184 Z M35.3268047,39.3241743 L35.6611246,30.7389764 L39.2828741,30.7389764 L39.6167548,39.3241743 L35.3268047,39.3241743 L35.3268047,39.3241743 Z" id="Shape"></path>
                        <path d="M42.0445257,45.1414947 C42.0260825,44.6719492 41.5392402,44.2989966 40.9448125,44.2989966 L33.9990397,44.2989966 C33.404612,44.2989966 32.9179161,44.6720649 32.8996193,45.1414947 L32.4126306,57.6374895 C32.3938946,58.1173305 32.8709298,58.5183934 33.4782385,58.5330847 C34.0805704,58.5476604 34.5928819,58.1708904 34.6114715,57.6910494 L35.0656722,46.0376684 L39.87818,46.0376684 L40.3323807,57.6910494 C40.3506776,58.1618673 40.8392764,58.5335475 41.4312157,58.5335475 C41.4426329,58.5335475 41.4540502,58.5334318 41.4654674,58.5330847 C42.0727761,58.5183934 42.5499576,58.1173305 42.5310753,57.6374895 L42.0445257,45.1414947 Z" id="Shape"></path>
                    </g>
                </g>
                <rect id="Rectangle-10" fill="#FF2D55" x="0" y="0" width="75.2202134" height="28.9308513"></rect>
                <text id="END" font-family="Montserrat-Bold, Montserrat" font-size="14" font-weight="bold" letter-spacing="2.625" fill="#FFFFFF">
                    <tspan x="18.5055603" y="18.2944257">END</tspan>
                </text>
            </g>
        </g>
    </g>
</svg>