<?xml version="1.0" encoding="UTF-8"?>
<svg width="120px" height="120px" viewBox="0 0 120 120" version="1.1" xmlns="http://www.w3.org/2000/svg" xmlns:xlink="http://www.w3.org/1999/xlink">
    <!-- Generator: Sketch 41 (35326) - http://www.bohemiancoding.com/sketch -->
    <title>vendor-final-check</title>
    <desc>Created with Sketch.</desc>
    <defs></defs>
    <g id="Page-1" stroke="none" stroke-width="1" fill="none" fill-rule="evenodd">
        <g id="vendor-final-check">
            <g id="Group" transform="translate(16.527324, 16.128492)">
                <path d="M77.6418256,43.9804142 C77.6418256,63.1945914 62.1352418,78.9152817 43.1827505,78.9152817 C24.2302592,78.9152817 8.72367536,63.1945914 8.72367536,43.9804142 C8.72367536,24.7662371 24.2302592,9.04554675 43.1827505,9.04554675 C46.628658,9.04554675 49.643827,9.48223259 52.6589961,10.3556043 L59.5509801,3.36863078 C54.3819499,1.6218874 48.7823502,0.311829873 43.1827505,0.311829873 C19.4921363,0.311829873 0.108906586,19.9626928 0.108906586,43.9804142 C0.108906586,67.9981356 19.4921363,87.6489986 43.1827505,87.6489986 C66.8733646,87.6489986 86.2565943,67.9981356 86.2565943,43.9804142 L77.6418256,43.9804142 Z" id="Shape" fill="#000000"></path>
                <polygon id="Shape" fill="#5AC8FA" points="25.5224745 39.4134158 19.4921363 45.5270176 38.8753661 65.1778806 81.94921 21.5092962 75.9188718 15.3956944 38.8753661 52.950677"></polygon>
            </g>
        </g>
    </g>
</svg>